<?xml version="1.0" standalone="no"?>
<!DOCTYPE svg PUBLIC "-//W3C//DTD SVG 20010904//EN"
 "http://www.w3.org/TR/2001/REC-SVG-20010904/DTD/svg10.dtd">
<svg version="1.0" xmlns="http://www.w3.org/2000/svg"
 width="2252.000000pt" height="1096.000000pt" viewBox="0 0 2252.000000 1096.000000"
 preserveAspectRatio="xMidYMid meet">
<metadata>
Created by potrace 1.13, written by Peter Selinger 2001-2015
</metadata>
<g transform="translate(0.000000,1096.000000) scale(0.100000,-0.100000)"
fill="#000000" stroke="none">
<path d="M12156 10313 c-40 -42 -31 -58 34 -59 30 -1 63 -2 73 -3 29 -2 19
-35 -18 -59 -19 -12 -35 -27 -35 -32 0 -6 -7 -10 -15 -10 -8 0 -15 -6 -15 -12
1 -30 20 -42 72 -45 69 -4 138 -37 138 -68 0 -32 -94 -51 -126 -24 -13 11 -18
11 -21 2 -3 -7 -19 -13 -37 -13 -45 0 -75 -23 -60 -47 10 -17 74 -29 182 -34
12 -1 51 14 86 32 51 27 66 40 74 66 7 22 7 33 0 33 -5 0 -8 5 -6 12 5 13 -20
41 -46 51 -10 4 -14 12 -10 18 4 8 3 9 -5 5 -6 -4 -24 2 -40 13 -16 12 -34 21
-40 21 -14 0 -14 17 0 26 6 3 20 26 31 50 14 33 16 49 8 63 -11 21 -44 36 -59
26 -5 -3 -12 -1 -15 3 -3 5 -32 10 -65 11 -53 2 -62 -1 -85 -26z"/>
<path d="M8890 10305 c-14 -8 -40 -14 -58 -15 -34 0 -82 -37 -82 -63 0 -19 41
-140 53 -155 6 -8 25 -11 56 -7 49 6 69 -3 89 -42 17 -31 16 -35 -22 -76 -29
-32 -40 -37 -77 -37 -24 1 -62 7 -83 15 -22 8 -43 12 -48 9 -13 -8 21 -51 51
-64 43 -17 123 -16 152 3 40 27 90 94 96 130 7 45 -49 121 -93 124 -71 6 -79
9 -91 33 -22 43 -16 67 18 79 18 6 44 11 60 11 40 0 59 10 59 31 0 17 -27 39
-47 39 -4 -1 -19 -7 -33 -15z"/>
<path d="M8375 10290 c-71 -8 -125 -33 -125 -59 0 -14 7 -17 38 -14 91 8 125
7 129 -3 6 -17 -48 -65 -79 -71 -29 -6 -48 -29 -48 -57 0 -12 11 -16 45 -16
48 0 91 -15 99 -36 7 -19 -33 -64 -73 -82 -20 -9 -61 -18 -91 -21 -40 -5 -56
-10 -58 -23 -5 -25 33 -32 102 -18 76 16 88 22 142 72 56 51 57 79 8 137 l-37
42 37 38 c20 20 36 44 36 54 0 15 -49 69 -60 66 -3 -1 -32 -5 -65 -9z"/>
<path d="M15384 10294 c-7 -3 -41 -8 -75 -12 -55 -6 -64 -10 -67 -28 -5 -36
40 -47 123 -29 56 11 72 12 83 2 22 -23 -4 -69 -63 -112 -30 -22 -55 -44 -55
-50 0 -25 21 -32 69 -22 91 18 136 -44 61 -86 -32 -18 -97 -24 -197 -18 -18 1
-40 -2 -49 -7 -29 -16 27 -44 99 -49 126 -10 229 30 258 100 16 38 1 69 -51
103 -22 15 -40 30 -40 35 0 5 9 24 20 44 45 80 20 136 -59 134 -25 0 -51 -3
-57 -5z"/>
<path d="M4530 10235 c-8 -2 -41 -7 -73 -10 -41 -5 -66 -14 -88 -32 -49 -41
-25 -49 85 -28 52 9 99 14 105 11 27 -17 -3 -58 -66 -90 -77 -39 -60 -86 31
-86 64 0 116 -29 116 -64 0 -38 -26 -51 -104 -52 -51 0 -79 -6 -99 -18 -15
-10 -25 -22 -22 -26 3 -4 42 -11 89 -15 72 -6 90 -4 127 14 24 11 56 35 70 53
21 28 24 38 17 65 -9 35 -50 71 -100 88 -17 5 -33 15 -35 21 -2 6 15 29 37 52
45 46 47 71 7 96 -24 15 -74 26 -97 21z"/>
<path d="M19585 10219 c-33 -10 -76 -19 -96 -19 -56 0 -62 -15 -49 -109 14
-89 21 -97 85 -85 43 8 65 -8 65 -46 0 -39 -20 -52 -68 -44 -85 13 -125 -23
-57 -52 46 -19 91 -17 142 5 35 17 43 25 49 58 19 93 -20 146 -111 155 -26 3
-30 8 -33 35 -4 38 8 46 98 64 78 15 92 25 66 45 -23 16 -16 17 -91 -7z"/>
<path d="M18890 10223 c-30 -6 -60 -31 -60 -50 0 -11 9 -13 36 -9 20 4 53 2
75 -4 31 -9 37 -14 31 -28 -12 -31 -36 -57 -67 -72 -18 -10 -30 -24 -30 -35 0
-17 9 -21 60 -26 78 -8 94 -16 102 -47 8 -34 -7 -54 -52 -71 -30 -12 -46 -12
-89 -2 -28 6 -60 13 -71 14 -33 3 -29 -29 6 -54 55 -39 175 -24 239 30 31 25
35 34 35 76 0 48 -5 56 -77 106 l-22 16 27 32 c15 18 27 41 27 52 0 33 -44 69
-84 69 -19 0 -40 2 -48 4 -7 2 -24 1 -38 -1z"/>
<path d="M12275 10070 c4 -6 11 -8 16 -5 14 9 11 15 -7 15 -8 0 -12 -5 -9 -10z"/>
<path d="M8630 9940 c0 -35 18 -39 44 -11 22 24 13 41 -20 41 -20 0 -24 -5
-24 -30z"/>
<path d="M19230 9925 c-17 -21 -5 -45 23 -45 32 0 49 18 36 42 -12 22 -42 24
-59 3z"/>
<path d="M2552 9747 c-31 -37 -40 -97 -31 -205 5 -59 6 -139 4 -178 -4 -51 -1
-82 10 -108 l15 -36 -37 -1 c-40 -1 -35 -3 62 -20 33 -6 71 -13 85 -16 l25 -5
-23 -9 c-13 -5 -29 -6 -34 -3 -6 4 -52 8 -103 8 -95 2 -129 14 -118 42 4 11
-5 13 -44 11 -64 -4 -76 -12 -60 -38 10 -16 9 -21 -3 -29 -8 -5 -23 -10 -32
-10 -23 0 -175 -62 -226 -91 -22 -13 -71 -42 -109 -64 -37 -22 -72 -42 -78
-44 -5 -2 -31 -24 -56 -48 -25 -23 -66 -57 -92 -74 -43 -28 -108 -97 -169
-179 -14 -19 -83 -93 -154 -165 -148 -149 -162 -167 -204 -255 -47 -97 -59
-118 -83 -144 -12 -13 -30 -48 -41 -77 -10 -30 -23 -60 -29 -68 -6 -7 -12 -18
-14 -25 -3 -15 -72 -224 -85 -258 -6 -16 -14 -28 -19 -28 -5 0 -6 6 -3 13 2 7
1 24 -4 37 -9 24 -9 24 -16 -6 -4 -16 -15 -47 -25 -69 -28 -61 -42 -110 -45
-157 -3 -45 -17 -96 -46 -163 -34 -77 -40 -96 -40 -118 0 -12 -10 -38 -21 -56
-12 -19 -30 -62 -40 -95 -30 -95 -27 -91 -47 -65 -10 13 -24 38 -32 54 -8 17
-22 38 -32 48 -10 10 -16 22 -13 28 4 5 -3 9 -14 9 -12 0 -22 -9 -26 -22 -3
-13 -11 -33 -17 -45 -8 -17 -8 -33 1 -63 18 -59 23 -390 7 -481 -14 -83 -14
-128 0 -132 5 -1 13 8 19 21 5 12 17 22 26 22 12 0 18 -14 23 -62 3 -34 12
-65 19 -70 27 -17 36 -7 39 45 3 44 6 52 23 52 15 0 20 7 21 30 0 17 -3 41 -8
55 -15 42 -19 377 -5 392 29 31 49 70 39 80 -6 6 -7 22 -2 39 5 16 8 33 7 37
0 4 12 9 27 12 25 4 29 10 32 45 3 22 5 49 5 60 0 10 4 24 9 30 16 19 70 156
70 176 0 16 18 60 60 149 4 8 21 40 37 70 71 128 103 190 98 190 -2 0 0 12 6
28 20 50 48 156 43 164 -7 10 44 127 70 163 12 17 28 46 36 65 8 19 24 52 37
72 13 21 23 42 23 47 0 5 54 63 120 130 66 67 143 149 171 184 110 133 143
168 194 201 29 19 59 46 68 60 9 14 43 41 74 62 32 20 76 49 98 64 22 15 65
39 95 52 30 14 77 35 104 47 27 13 76 27 109 32 33 6 64 12 68 15 4 2 65 5
136 5 122 0 214 -9 313 -31 25 -5 76 -16 114 -25 37 -8 104 -28 147 -45 43
-16 83 -30 88 -30 17 0 132 -71 170 -105 20 -18 50 -40 68 -48 53 -28 181
-136 304 -257 124 -122 203 -214 284 -330 28 -39 66 -92 86 -118 31 -41 63
-93 141 -227 9 -16 26 -50 38 -75 11 -25 31 -66 45 -93 14 -26 25 -52 25 -58
0 -7 20 -56 45 -111 25 -54 57 -131 71 -171 14 -40 29 -81 34 -92 17 -40 31
-95 26 -103 -3 -5 2 -21 10 -36 7 -16 14 -34 14 -42 0 -20 70 -186 86 -204 7
-9 21 -36 29 -60 21 -60 42 -90 58 -84 40 15 63 -116 50 -289 -8 -115 -8 -120
15 -154 17 -24 30 -33 45 -31 21 3 22 7 23 153 2 255 2 255 22 255 26 1 46 21
61 65 8 22 25 56 37 75 13 19 24 42 24 52 0 9 4 19 9 22 5 3 11 18 14 33 6 36
70 209 91 248 9 17 16 36 16 44 0 8 22 58 49 111 27 53 56 124 65 158 8 34 33
100 56 147 22 48 40 94 40 102 0 22 97 288 124 342 10 18 37 58 60 89 24 31
45 62 47 68 2 6 14 24 27 40 12 16 42 60 67 98 24 38 87 113 140 168 52 55 95
103 95 107 0 4 28 31 63 59 34 29 69 58 77 64 8 7 41 30 75 51 33 22 69 47 80
57 23 20 178 86 247 106 26 7 78 14 115 15 158 5 175 2 257 -35 43 -20 87 -36
98 -36 30 0 300 -138 355 -181 26 -21 64 -50 84 -63 20 -13 62 -55 95 -92 32
-38 71 -79 86 -91 14 -13 43 -49 64 -81 21 -31 54 -77 73 -102 38 -48 57 -76
68 -100 3 -8 23 -40 43 -70 21 -30 47 -73 58 -95 12 -22 48 -83 81 -135 155
-247 268 -455 321 -595 12 -33 31 -80 40 -105 10 -25 34 -90 54 -145 20 -55
45 -118 55 -140 64 -136 75 -225 71 -538 -1 -111 2 -143 14 -162 9 -13 16 -36
16 -50 0 -20 5 -25 24 -25 26 0 59 40 51 62 -3 7 -7 54 -9 103 -2 50 -8 131
-12 181 -7 88 -6 91 17 108 20 13 22 19 12 34 -18 30 -7 118 21 169 15 25 26
50 26 55 0 5 25 61 55 124 30 64 55 118 55 121 0 2 9 24 20 49 11 24 23 59 27
77 3 17 16 43 29 57 13 14 26 45 30 69 8 50 31 94 87 167 21 27 62 84 90 126
29 43 79 108 112 146 33 38 69 84 80 103 33 55 58 94 103 159 23 34 42 65 42
69 0 4 13 23 30 41 16 18 30 37 30 40 0 4 18 25 40 48 22 22 40 47 40 56 0 8
9 20 20 26 10 6 33 39 50 75 17 36 39 66 50 70 10 3 22 15 25 25 14 46 170
181 290 253 123 74 188 107 209 107 6 0 28 8 47 18 19 10 62 24 95 32 32 7 64
17 69 21 6 4 24 9 40 12 17 3 45 10 63 16 50 15 168 25 184 15 7 -5 31 -10 53
-10 68 -3 331 -96 363 -130 25 -26 43 -30 73 -13 16 8 28 6 57 -12 63 -37 106
-62 133 -76 15 -7 32 -20 39 -28 7 -8 18 -15 25 -15 12 0 181 -170 200 -202 6
-9 46 -54 90 -99 44 -46 85 -91 90 -100 6 -9 35 -44 65 -77 30 -34 71 -80 92
-104 144 -171 181 -217 195 -243 8 -16 43 -73 78 -125 35 -52 66 -106 70 -120
4 -14 15 -33 24 -43 19 -22 63 -97 87 -147 9 -19 40 -75 69 -125 29 -49 63
-112 77 -140 13 -27 49 -99 80 -160 31 -60 79 -163 108 -227 l51 -117 -11
-101 c-13 -127 -13 -251 -1 -283 8 -21 18 -26 55 -29 39 -3 47 0 53 17 8 24 6
94 -6 200 -8 76 -7 81 15 105 21 23 31 58 85 300 6 25 17 58 25 74 8 16 14 43
14 61 0 17 9 58 19 91 11 32 22 79 26 104 4 25 17 63 29 85 12 22 42 99 65
170 24 72 48 138 53 149 6 10 12 33 15 50 2 17 17 58 33 91 16 33 43 103 60
155 17 52 35 99 40 105 4 5 26 55 48 110 36 90 81 187 140 300 47 90 150 231
193 263 24 18 53 39 63 47 11 8 36 20 55 26 20 7 45 18 56 25 11 7 40 16 65
20 25 4 50 11 57 16 22 18 77 -3 121 -45 23 -23 42 -46 42 -52 0 -6 15 -26 34
-44 19 -18 51 -65 71 -104 20 -40 50 -86 66 -102 16 -17 29 -35 29 -39 0 -4 8
-20 19 -34 32 -45 119 -268 177 -451 30 -95 57 -178 60 -183 4 -5 14 -8 24 -5
13 3 22 -3 29 -22 22 -56 65 -260 81 -386 4 -33 15 -100 23 -150 9 -49 21
-130 27 -180 16 -120 24 -172 46 -285 10 -52 18 -115 18 -140 1 -25 4 -50 8
-56 9 -14 0 -208 -11 -251 -9 -33 3 -107 22 -131 6 -7 24 -12 41 -10 l30 3 3
150 c2 83 5 156 8 163 2 6 16 12 30 12 18 0 28 8 36 27 6 16 15 36 20 45 5 10
9 24 9 31 0 8 9 43 21 78 12 35 23 73 24 84 10 61 41 149 76 213 22 41 48 106
58 145 49 185 82 296 100 332 10 22 28 69 40 104 12 35 34 85 51 111 16 26 30
53 30 60 0 7 11 28 25 46 14 18 25 38 25 44 0 6 15 34 32 63 18 29 57 100 87
158 29 59 83 146 120 194 36 48 75 101 85 119 11 17 50 65 86 107 37 42 73 85
81 95 28 39 185 164 219 175 19 7 51 23 70 35 19 13 38 24 43 24 5 0 52 21
105 46 145 69 166 76 267 93 62 10 198 24 225 23 8 0 71 -1 140 -2 135 -3 237
-18 285 -42 17 -9 73 -24 125 -34 52 -10 118 -28 145 -40 28 -12 64 -26 80
-32 75 -25 220 -127 298 -212 135 -145 224 -236 239 -245 9 -5 40 -41 70 -80
29 -38 56 -72 59 -75 9 -8 79 -120 79 -126 0 -4 14 -23 31 -43 17 -20 47 -63
68 -96 21 -33 77 -119 124 -191 48 -73 87 -134 87 -138 0 -4 12 -24 26 -46 31
-46 57 -92 80 -140 9 -19 31 -56 50 -81 19 -26 34 -50 34 -53 0 -6 98 -175
130 -226 6 -8 15 -26 20 -40 16 -39 50 -101 83 -149 37 -54 144 -270 187 -376
23 -56 32 -146 22 -202 -16 -86 -18 -175 -3 -201 16 -30 45 -25 49 10 2 16 17
37 38 53 l34 26 -5 127 c-3 70 -8 148 -11 175 -5 37 -3 47 9 47 7 0 21 8 29
18 16 19 52 197 43 212 -11 18 -24 11 -47 -25 -13 -19 -26 -35 -29 -35 -9 0
-19 89 -20 168 -1 71 -11 82 -74 82 -33 0 -36 -2 -30 -22 4 -13 13 -32 20 -43
7 -13 13 -63 13 -135 1 -63 5 -134 8 -157 3 -24 3 -43 0 -43 -4 0 -18 26 -32
58 -14 31 -33 73 -43 92 -64 124 -111 211 -134 247 -15 24 -27 47 -27 52 0 5
-6 16 -13 23 -7 7 -34 58 -61 113 -27 55 -52 102 -55 105 -9 7 -44 61 -58 90
-7 14 -24 43 -38 65 -14 22 -41 69 -61 105 -20 36 -45 79 -55 95 -10 17 -30
53 -45 80 -14 28 -48 80 -75 116 -27 37 -49 69 -49 73 0 4 -8 19 -19 34 -10
15 -58 88 -106 162 -49 74 -99 150 -111 169 -37 55 -126 162 -163 195 -61 56
-176 170 -221 221 -69 77 -275 225 -314 225 -10 0 -46 14 -79 31 -54 27 -102
40 -204 53 -15 2 -50 14 -78 26 -27 12 -86 27 -130 34 l-80 12 2 38 c2 22 10
44 22 54 21 18 20 18 -8 177 -6 33 -10 112 -9 175 1 181 1 188 -23 201 -17 9
-25 8 -38 -5 -17 -18 -17 -16 -20 -409 -1 -171 -2 -178 -20 -172 -11 3 -22 1
-26 -5 -5 -8 -24 -9 -55 -5 -53 7 -63 0 -69 -45 0 -5 -20 -10 -43 -10 -24 0
-61 -5 -83 -10 -22 -5 -74 -11 -115 -15 -54 -4 -91 -14 -134 -35 -32 -17 -62
-30 -67 -30 -7 0 -154 -67 -249 -113 -64 -32 -189 -114 -219 -145 -14 -15 -43
-48 -63 -74 -21 -25 -56 -63 -79 -85 -22 -21 -60 -67 -83 -103 -24 -36 -64
-92 -90 -124 -25 -33 -46 -64 -46 -69 0 -6 -7 -18 -15 -27 -8 -8 -42 -69 -75
-135 -33 -66 -79 -149 -101 -185 -21 -36 -42 -72 -45 -80 -4 -8 -21 -46 -39
-85 -29 -61 -55 -128 -112 -280 -14 -37 -52 -177 -74 -270 -5 -22 -31 -83 -58
-135 -31 -62 -59 -138 -81 -220 -17 -69 -35 -129 -39 -135 -3 -5 -14 -32 -23
-60 l-17 -50 5 125 c3 69 7 140 10 158 7 47 -16 81 -51 75 -25 -5 -25 -7 -21
-69 9 -116 -15 -67 -38 81 -3 17 -9 50 -15 75 -6 25 -13 86 -17 135 -3 50 -11
96 -17 103 -5 7 -7 15 -4 18 3 3 1 22 -5 42 -5 19 -14 68 -18 106 -25 213 -94
483 -165 643 -15 32 -35 83 -45 113 -21 62 -101 221 -130 258 -11 13 -17 29
-14 34 3 5 -1 17 -9 26 -8 9 -17 38 -20 64 -13 100 -101 228 -192 279 -30 17
-70 48 -88 69 -17 20 -48 46 -67 56 -19 11 -46 27 -60 37 l-25 17 -1 283 c-1
155 -2 289 -3 297 -3 24 -27 50 -52 56 -13 3 -33 8 -45 11 -31 7 -35 -16 -24
-138 6 -60 8 -166 6 -235 -4 -110 -3 -131 14 -168 11 -22 21 -52 22 -66 3 -22
-2 -25 -37 -30 -61 -9 -162 -85 -177 -133 -12 -41 -84 -104 -138 -123 -20 -7
-47 -48 -104 -159 -26 -49 -57 -99 -71 -110 -13 -11 -35 -51 -50 -89 -14 -39
-36 -84 -48 -100 -41 -55 -73 -138 -118 -311 -6 -22 -21 -74 -34 -115 -13 -41
-27 -97 -30 -125 -4 -27 -14 -63 -22 -79 -9 -16 -28 -79 -44 -140 -17 -61 -34
-127 -40 -146 -6 -19 -14 -57 -18 -85 -12 -75 -41 -207 -50 -230 -13 -30 -29
-91 -47 -180 -21 -108 -25 -117 -35 -75 -5 20 -4 65 2 107 12 84 1 116 -41
111 -24 -3 -25 -7 -27 -68 -3 -92 -10 -115 -28 -100 -8 7 -15 18 -15 25 0 15
-48 122 -98 220 -20 39 -43 86 -51 105 -36 80 -184 357 -229 430 -12 19 -34
60 -49 90 -14 30 -41 73 -58 95 -28 34 -59 83 -111 175 -6 11 -22 30 -35 42
-22 20 -77 86 -176 209 -17 22 -43 49 -57 60 -14 11 -26 24 -26 28 0 5 -30 41
-67 80 -87 92 -89 94 -131 150 -78 104 -256 266 -325 294 -20 9 -37 20 -37 25
0 5 -6 9 -13 9 -6 0 -30 11 -52 24 -22 14 -62 31 -90 37 -59 15 -94 25 -155
46 -94 32 -276 86 -287 86 -7 0 -13 5 -13 10 0 7 29 10 78 8 91 -2 126 13 158
70 38 67 10 178 -39 159 -14 -5 -16 -21 -14 -92 l3 -85 -90 6 c-50 4 -92 8
-94 9 -8 7 0 379 8 396 14 24 -11 85 -37 93 -11 3 -29 20 -41 36 -26 34 -47
38 -61 12 -11 -20 -10 -27 8 -92 10 -35 11 -87 3 -240 -11 -202 -7 -230 27
-230 18 0 35 -35 25 -51 -2 -4 -23 -10 -47 -14 -79 -13 -242 -56 -284 -75 -24
-11 -48 -20 -55 -20 -29 0 -186 -66 -256 -107 -42 -25 -85 -49 -96 -53 -51
-19 -131 -85 -229 -188 -59 -62 -107 -118 -107 -125 0 -10 -25 -47 -107 -153
-66 -87 -167 -236 -228 -338 -48 -80 -81 -124 -143 -191 -26 -27 -71 -86 -100
-130 -29 -44 -75 -111 -104 -150 -50 -69 -93 -152 -108 -210 -16 -59 -70 -201
-98 -255 -16 -30 -32 -68 -36 -85 -9 -36 -25 -57 -38 -49 -5 3 -8 39 -7 79 2
88 -15 125 -50 103 -28 -17 -32 -31 -20 -70 5 -18 9 -41 9 -52 0 -16 -3 -15
-21 8 -15 18 -27 24 -42 21 -19 -5 -25 3 -50 67 -16 40 -32 82 -37 93 -5 11
-30 73 -55 138 -50 127 -102 246 -138 313 -43 82 -100 179 -114 195 -13 16
-83 129 -83 134 0 2 -22 39 -49 82 -27 43 -71 114 -97 158 -85 142 -233 341
-317 425 -73 74 -275 240 -292 240 -3 0 -65 29 -138 63 -134 65 -216 100 -274
121 -39 13 -43 26 -9 26 20 0 122 49 106 50 -3 1 -46 2 -96 4 -50 2 -100 9
-111 15 -25 13 -31 52 -39 256 -6 151 -14 189 -46 209 -14 8 -22 6 -40 -11
-21 -22 -21 -25 -8 -75 15 -57 16 -279 2 -358 l-7 -45 -75 -3 c-100 -4 -133
-30 -65 -52 19 -6 33 -15 31 -19 -3 -4 -31 -16 -63 -26 -32 -10 -72 -24 -88
-31 -17 -7 -43 -17 -58 -23 -16 -6 -63 -37 -105 -69 -42 -32 -99 -72 -127 -87
-44 -26 -102 -79 -145 -132 -8 -10 -53 -62 -100 -115 -98 -112 -129 -151 -150
-189 -36 -66 -144 -229 -152 -229 -4 0 -8 -4 -8 -9 0 -5 -14 -40 -32 -78 -17
-37 -37 -81 -44 -98 -6 -16 -23 -57 -36 -91 -14 -33 -31 -84 -38 -112 -6 -29
-16 -55 -21 -58 -5 -3 -9 -14 -9 -25 0 -11 -13 -49 -30 -84 -16 -35 -30 -70
-30 -78 0 -7 -18 -56 -41 -108 -23 -52 -52 -120 -66 -153 -13 -32 -31 -69 -39
-81 -8 -12 -21 -44 -28 -71 -43 -153 -122 -329 -147 -329 -23 0 -34 61 -19
106 12 34 12 42 0 49 -11 7 -12 14 -2 35 16 36 15 80 -3 95 -8 7 -15 20 -15
29 0 13 -10 17 -40 18 -53 2 -66 -20 -50 -85 12 -51 21 -173 14 -184 -15 -24
-144 159 -144 204 0 14 -6 39 -14 55 -19 38 -46 134 -46 164 0 14 -7 34 -15
47 -9 12 -24 45 -34 74 -40 116 -60 166 -89 228 -16 36 -48 108 -71 160 -23
52 -47 104 -53 115 -6 11 -26 45 -43 75 -63 108 -101 166 -160 245 -34 44 -79
107 -100 140 -37 56 -245 272 -380 396 -53 49 -166 136 -213 164 -10 6 -19 13
-22 16 -25 30 -155 94 -260 127 -184 59 -230 72 -256 72 -31 0 -39 16 -20 45
9 13 16 26 16 28 0 4 -51 7 -142 9 -33 1 -49 6 -53 17 -4 9 -6 118 -6 243 0
213 -1 228 -20 252 -23 29 -32 32 -47 13z m4068 -637 c-20 -13 -83 -13 -75 0
3 6 25 10 48 10 31 0 38 -3 27 -10z m10424 -75 c-4 -8 -8 -15 -10 -15 -2 0 -4
7 -4 15 0 8 4 15 10 15 5 0 7 -7 4 -15z"/>
<path d="M21443 9648 c-19 -24 -20 -43 -12 -148 6 -80 5 -118 -6 -160 -8 -30
-14 -86 -14 -124 1 -55 -4 -74 -20 -97 -20 -27 -20 -31 -7 -57 21 -41 40 -54
70 -46 48 12 50 23 53 243 1 113 5 238 8 276 4 48 1 78 -8 95 -14 28 -49 38
-64 18z"/>
<path d="M9550 9345 c-17 -21 -24 -85 -12 -128 10 -34 9 -37 -11 -38 -46 -1
-79 -8 -93 -20 -26 -21 1 -32 91 -37 l85 -4 11 28 c13 33 15 72 5 139 -10 65
-47 95 -76 60z"/>
<path d="M11502 9349 c-33 -13 -22 -34 19 -34 27 0 34 4 34 20 0 23 -20 28
-53 14z"/>
<path d="M3316 9318 c-23 -32 -20 -91 4 -113 18 -16 22 -17 34 -4 22 23 27
105 6 124 -22 20 -26 19 -44 -7z"/>
<path d="M10045 9323 c-16 -16 -16 -25 -2 -118 1 -5 -20 -10 -48 -11 -37 -1
-51 -5 -53 -17 -5 -25 33 -38 100 -35 76 4 83 13 74 101 -10 87 -35 116 -71
80z"/>
<path d="M12205 9317 c-3 -12 -5 -40 -3 -62 1 -22 1 -57 0 -77 -2 -33 -5 -38
-27 -38 -34 0 -43 -27 -17 -52 22 -23 77 -27 95 -9 6 6 19 11 28 11 22 0 29
20 29 83 0 64 -14 117 -39 146 -25 28 -59 28 -66 -2z"/>
<path d="M12710 9333 c-25 -10 -30 -26 -29 -88 2 -65 13 -99 40 -129 13 -15
20 -16 38 -7 19 11 21 20 21 106 0 86 -2 95 -22 109 -24 17 -25 17 -48 9z"/>
<path d="M16042 9301 c-6 -16 -8 -32 -5 -34 3 -3 6 -20 8 -39 2 -18 8 -44 13
-58 5 -14 7 -37 5 -51 -4 -34 13 -79 30 -79 8 0 22 9 32 20 15 16 17 30 11 82
-9 89 -28 172 -40 180 -23 16 -44 7 -54 -21z"/>
<path d="M16595 9307 c-13 -21 -15 -40 -10 -104 7 -79 24 -123 49 -123 23 0
34 53 29 131 -4 60 -9 78 -28 98 l-23 23 -17 -25z"/>
<path d="M2910 9305 c-17 -20 5 -65 32 -65 14 0 17 6 15 28 -6 51 -24 65 -47
37z"/>
<path d="M6178 9309 c-22 -12 -23 -38 -3 -85 18 -43 38 -40 46 7 4 27 -13 90
-24 89 -1 0 -10 -5 -19 -11z"/>
<path d="M7219 9298 c-6 -12 -11 -48 -10 -79 1 -52 -2 -60 -24 -75 -23 -15
-33 -15 -81 -5 -44 10 -58 10 -70 0 -36 -30 100 -74 147 -48 13 8 38 14 55 15
58 2 64 9 64 67 0 86 -9 116 -41 132 -26 14 -29 14 -40 -7z"/>
<path d="M8420 9305 c-9 -11 -11 -35 -6 -85 l6 -69 -37 -3 c-47 -4 -52 -21
-10 -36 58 -21 92 -15 121 19 31 36 30 30 8 100 -26 84 -53 109 -82 74z"/>
<path d="M8666 9302 c-3 -9 -1 -44 4 -77 5 -33 10 -61 10 -62 0 -2 7 -3 15 -3
27 0 48 46 40 90 -10 60 -56 95 -69 52z"/>
<path d="M3686 9297 c-10 -7 -19 -28 -21 -48 l-2 -34 -74 -5 c-41 -3 -73 -9
-73 -15 2 -18 49 -35 100 -35 47 0 53 3 82 39 34 43 39 67 19 94 -10 15 -15
16 -31 4z"/>
<path d="M8980 9295 c-8 -10 -11 -35 -8 -69 5 -62 -2 -68 -71 -59 -43 6 -62
-10 -39 -34 10 -9 46 -16 105 -20 l90 -6 7 27 c9 36 -3 126 -20 154 -17 25
-46 29 -64 7z"/>
<path d="M10287 9303 c-10 -9 -8 -65 2 -81 16 -26 46 -9 49 26 5 45 -27 79
-51 55z"/>
<path d="M11665 9296 c-16 -11 -23 -68 -14 -102 2 -5 0 -28 -4 -52 -4 -26 -3
-51 3 -63 10 -18 19 -19 87 -15 59 4 84 11 114 31 25 16 36 30 33 40 -7 18
-24 19 -58 4 -14 -7 -40 -9 -60 -5 -33 6 -35 9 -34 46 0 22 5 40 10 40 5 0 6
6 1 13 -4 6 -8 17 -8 24 0 6 -12 20 -26 32 -22 17 -29 18 -44 7z"/>
<path d="M13272 9287 c-12 -13 -20 -26 -17 -29 4 -3 6 -33 6 -67 0 -33 5 -63
10 -66 15 -10 10 -25 -8 -25 -24 0 -49 -17 -40 -26 4 -4 28 -10 54 -14 40 -6
50 -4 69 15 18 18 22 32 19 66 -1 24 -3 61 -4 82 -1 26 -9 46 -26 62 -30 31
-36 31 -63 2z"/>
<path d="M14950 9283 c-8 -17 -14 -71 -15 -131 -2 -57 -5 -106 -9 -109 -22
-23 33 -52 97 -51 37 1 52 6 63 22 21 30 18 35 -28 38 l-43 3 0 111 c0 79 -4
116 -14 127 -20 24 -36 21 -51 -10z"/>
<path d="M15470 9291 c-16 -31 -13 -174 5 -197 21 -28 20 -29 -32 -32 -85 -3
-84 -34 2 -49 78 -14 155 8 155 45 0 11 -8 13 -33 9 l-34 -5 5 109 c4 115 -3
139 -39 139 -10 0 -23 -9 -29 -19z"/>
<path d="M9802 9288 c-16 -16 -15 -43 3 -78 18 -35 23 -36 40 -13 21 29 3 102
-25 103 -4 0 -11 -5 -18 -12z"/>
<path d="M15769 9293 c-1 -5 -2 -35 -3 -68 -1 -33 -6 -77 -10 -98 -6 -25 -4
-42 4 -52 31 -37 55 -5 71 94 9 59 8 74 -6 100 -14 28 -53 44 -56 24z"/>
<path d="M16819 9282 c-10 -12 -15 -41 -14 -97 0 -77 1 -80 24 -83 20 -3 23
-1 18 19 -3 13 -2 28 2 33 5 6 12 36 16 68 6 49 5 57 -12 67 -15 7 -23 6 -34
-7z"/>
<path d="M3991 9268 c-5 -13 -10 -32 -12 -42 -5 -27 -58 -55 -91 -49 -17 4
-28 1 -28 -6 0 -6 18 -11 43 -12 51 -1 65 -3 145 -19 61 -12 64 -12 88 10 28
27 18 48 -15 30 -40 -21 -92 18 -77 57 10 25 -4 53 -25 53 -11 0 -23 -10 -28
-22z"/>
<path d="M4296 9274 c-25 -25 -11 -104 18 -104 27 0 39 28 32 75 -8 48 -23 57
-50 29z"/>
<path d="M4642 9278 c-17 -17 -15 -35 9 -98 26 -68 25 -67 47 -46 17 14 18 23
9 69 -9 47 -30 87 -47 87 -3 0 -11 -5 -18 -12z"/>
<path d="M4960 9271 c-11 -21 0 -64 20 -76 17 -11 40 15 40 44 0 47 -40 68
-60 32z"/>
<path d="M5857 9269 c-12 -16 -13 -29 -5 -57 14 -51 21 -55 46 -32 22 20 29
61 16 94 -9 23 -40 20 -57 -5z"/>
<path d="M6877 9270 c-10 -15 -14 -34 -10 -59 7 -45 15 -55 42 -46 29 9 30 84
2 109 -18 16 -20 16 -34 -4z"/>
<path d="M5325 9260 c-4 -12 -4 -36 -1 -54 6 -30 4 -34 -25 -42 -17 -5 -31
-13 -32 -19 -3 -18 96 -44 169 -45 59 0 74 3 89 20 10 11 25 21 34 21 9 1 -20
5 -63 10 -44 5 -84 13 -90 19 -5 5 -13 31 -16 58 -4 42 -8 47 -32 50 -20 2
-28 -2 -33 -18z"/>
<path d="M9238 9263 c-21 -24 -7 -63 22 -63 26 0 36 24 22 56 -14 29 -24 30
-44 7z"/>
<path d="M14360 9264 c-11 -12 -11 -33 -1 -106 6 -50 9 -93 6 -96 -3 -4 -32
-5 -63 -3 -127 7 -127 7 -127 -14 0 -42 136 -56 189 -19 11 8 29 14 38 14 28
0 40 46 34 124 -8 98 -42 142 -76 100z"/>
<path d="M5614 9248 c-14 -33 -6 -66 18 -74 41 -13 51 57 12 82 -19 13 -22 12
-30 -8z"/>
<path d="M8122 9261 c-10 -6 -12 -22 -7 -63 7 -54 6 -56 -19 -62 -15 -3 -62
-3 -105 0 l-79 7 -5 44 c-7 65 -58 98 -76 49 -13 -33 5 -104 36 -145 l26 -34
18 24 c15 20 20 22 44 11 14 -7 48 -12 75 -12 41 0 56 5 87 32 50 43 53 48 53
84 0 39 -29 78 -48 65z"/>
<path d="M11070 9244 c-13 -33 -13 -45 2 -117 14 -67 26 -75 108 -78 54 -2
103 21 94 45 -3 8 -29 18 -62 22 l-57 9 -3 55 c-3 58 -22 90 -54 90 -11 0 -23
-11 -28 -26z"/>
<path d="M11424 9259 c-3 -6 -16 -8 -29 -5 -16 4 -25 -1 -35 -19 -14 -26 -4
-49 35 -89 25 -25 49 -2 42 40 -4 24 0 37 14 49 10 10 16 22 13 26 -7 12 -31
11 -40 -2z"/>
<path d="M12931 9254 c0 -11 3 -14 6 -6 3 7 2 16 -1 19 -3 4 -6 -2 -5 -13z"/>
<path d="M12990 9255 c-7 -8 -13 -44 -14 -80 l-1 -65 -50 2 c-40 3 -50 0 -53
-15 -2 -12 8 -22 40 -36 24 -10 47 -16 53 -13 5 3 21 6 35 6 22 1 25 6 28 39
2 23 8 37 17 37 9 0 15 17 17 53 4 42 1 55 -15 70 -24 21 -41 22 -57 2z"/>
<path d="M3174 9236 c-14 -11 -38 -13 -99 -9 -67 5 -83 3 -94 -11 -8 -9 -12
-18 -10 -21 6 -6 129 -25 161 -25 17 0 37 10 53 27 39 43 32 70 -11 39z"/>
<path d="M7537 9243 c-12 -12 -7 -59 8 -79 8 -10 15 -21 15 -24 0 -3 -28 -5
-62 -5 -52 0 -63 -3 -66 -17 -5 -27 42 -40 125 -36 63 3 77 7 100 30 33 33 24
46 -20 30 -41 -15 -67 -15 -67 -2 0 6 4 10 10 10 5 0 12 11 16 25 10 41 -35
93 -59 68z"/>
<path d="M13541 9236 c-9 -10 -9 -20 -3 -33 6 -10 7 -36 4 -58 -12 -72 -5 -94
34 -101 46 -8 125 4 147 23 19 18 23 48 6 58 -5 4 -18 0 -28 -9 -18 -16 -101
-34 -101 -21 0 3 5 15 11 26 6 12 8 37 4 60 -10 60 -47 87 -74 55z"/>
<path d="M2045 9230 c-3 -5 -24 -10 -45 -10 -44 0 -94 -16 -86 -28 2 -4 32 -8
67 -7 52 0 64 3 76 22 9 13 10 23 4 27 -5 4 -12 2 -16 -4z"/>
<path d="M11931 9226 c-7 -9 -11 -38 -9 -73 3 -51 6 -58 25 -61 49 -7 75 102
31 132 -28 20 -32 20 -47 2z"/>
<path d="M12473 9228 c-5 -7 -9 -35 -8 -61 2 -42 7 -52 37 -77 l34 -28 43 19
c30 13 42 24 39 36 -2 12 -11 17 -26 15 -31 -5 -50 13 -45 42 3 16 -3 30 -18
45 -26 24 -42 27 -56 9z"/>
<path d="M19481 9216 c-6 -8 -15 -33 -19 -57 -7 -40 -10 -44 -40 -47 -40 -4
-44 -34 -7 -58 19 -12 31 -14 57 -5 18 6 45 13 61 16 31 6 37 38 10 53 -12 7
-14 18 -10 39 4 19 0 38 -9 52 -18 25 -27 26 -43 7z"/>
<path d="M1668 9209 c-2 -7 -34 -14 -81 -17 -72 -4 -78 -6 -75 -26 3 -19 10
-21 66 -23 51 -1 64 2 69 15 3 9 13 25 21 35 8 9 13 20 10 23 -3 3 -8 0 -10
-7z"/>
<path d="M18905 9186 c-8 -19 -15 -44 -15 -55 0 -11 -10 -27 -22 -35 -50 -35
37 -67 127 -47 59 13 79 29 69 56 -5 12 -13 15 -33 10 -14 -3 -37 -7 -51 -8
-23 -2 -25 1 -25 53 0 44 -3 55 -18 58 -12 2 -22 -7 -32 -32z"/>
<path d="M1335 9200 c-11 -5 -43 -9 -71 -9 -51 -1 -83 -19 -69 -40 11 -19 108
-11 128 10 10 11 27 19 38 19 12 0 19 5 17 12 -6 16 -19 18 -43 8z"/>
<path d="M14646 9193 c-4 -16 -3 -47 2 -90 2 -16 34 -17 50 -1 19 19 14 66 -8
88 -25 25 -37 25 -44 3z"/>
<path d="M16358 9198 c-3 -23 -5 -52 -7 -86 -1 -25 -6 -35 -21 -39 -29 -8 -24
-29 10 -43 20 -8 54 -10 108 -5 89 8 108 15 98 40 -5 14 -17 16 -69 13 l-62
-3 3 33 c5 48 -16 102 -39 102 -10 0 -20 -6 -21 -12z"/>
<path d="M18350 9184 c-19 -49 -8 -152 17 -161 7 -3 23 3 34 13 15 13 38 19
83 20 79 2 108 11 104 32 -3 14 -17 17 -78 19 -94 3 -99 5 -98 42 2 57 -44 83
-62 35z"/>
<path d="M14088 9193 c-2 -5 -3 -36 -3 -70 l0 -63 -47 0 c-49 0 -62 -12 -46
-42 20 -41 145 -5 141 40 -2 13 4 34 13 47 17 27 12 74 -9 87 -16 10 -45 10
-49 1z"/>
<path d="M17696 9188 c-14 -8 -16 -17 -12 -43 8 -41 -1 -47 -68 -50 -66 -3
-66 -3 -66 -18 0 -37 85 -43 162 -10 31 13 37 20 40 53 2 22 2 44 0 49 -7 20
-37 30 -56 19z"/>
<path d="M19152 9188 c-17 -21 6 -118 28 -118 42 0 49 53 14 108 -16 25 -27
28 -42 10z"/>
<path d="M10260 9168 c0 -25 37 -41 105 -45 48 -3 65 0 85 16 40 32 15 43 -94
45 -85 1 -96 -1 -96 -16z"/>
<path d="M15210 9183 c-1 -5 -3 -32 -5 -61 -5 -66 15 -80 50 -36 31 39 36 59
18 83 -13 20 -63 30 -63 14z"/>
<path d="M19744 9178 c-5 -7 -16 -35 -26 -63 -14 -43 -15 -52 -3 -64 12 -12
17 -12 39 3 29 18 39 47 34 97 -3 36 -29 51 -44 27z"/>
<path d="M17403 9168 c-6 -7 -14 -26 -17 -43 -6 -29 -9 -30 -64 -33 -62 -3
-78 -12 -69 -36 5 -12 21 -16 60 -16 47 0 55 3 67 25 10 19 16 22 27 14 23
-20 44 9 41 55 -3 43 -25 59 -45 34z"/>
<path d="M18657 9174 c-15 -15 -6 -54 17 -81 19 -22 27 -25 37 -16 20 19 -1
97 -26 101 -12 2 -24 0 -28 -4z"/>
<path d="M20042 9168 c-16 -16 -15 -39 4 -63 15 -20 15 -20 35 4 11 13 19 34
17 45 -3 24 -37 33 -56 14z"/>
<path d="M20353 9163 c-5 -10 -8 -27 -7 -38 0 -11 2 -30 3 -42 0 -15 7 -23 20
-23 29 0 43 25 39 72 -2 35 -7 44 -25 46 -13 2 -25 -4 -30 -15z"/>
<path d="M1010 9155 c-7 -9 -18 -14 -24 -12 -6 3 -26 -2 -45 -9 -19 -8 -42
-12 -53 -8 -10 3 -18 1 -18 -5 0 -6 8 -11 19 -11 10 0 31 -3 47 -6 22 -4 35 0
54 18 13 13 29 23 34 23 5 0 11 6 14 13 5 17 -13 15 -28 -3z"/>
<path d="M17995 9140 c-20 -38 -19 -53 5 -75 36 -33 152 0 137 39 -5 13 -14
16 -39 11 -30 -6 -34 -3 -45 24 -14 39 -38 40 -58 1z"/>
<path d="M4997 9144 c-21 -7 -75 -15 -120 -16 -67 -2 -82 -6 -85 -20 -4 -20
21 -29 91 -34 44 -3 55 1 84 26 19 17 42 30 53 30 20 0 36 16 23 23 -5 2 -25
-2 -46 -9z"/>
<path d="M20661 9136 c-14 -16 -5 -82 12 -93 12 -7 35 22 44 55 4 16 -1 28
-13 37 -24 18 -29 18 -43 1z"/>
<path d="M4460 9132 c-19 -7 -10 -29 15 -40 44 -20 97 -15 129 13 16 14 27 25
25 26 -18 2 -161 3 -169 1z"/>
<path d="M5770 9127 c0 -33 40 -52 107 -51 57 1 68 4 84 25 24 32 24 42 -2 34
-27 -9 -142 -9 -169 0 -14 4 -20 2 -20 -8z"/>
<path d="M517 9116 c-3 -7 0 -19 6 -25 13 -13 57 -15 57 -2 0 5 3 16 6 25 5
13 -1 16 -29 16 -20 0 -37 -6 -40 -14z"/>
<path d="M21006 9117 c-14 -10 -17 -20 -11 -45 6 -31 19 -39 41 -24 20 14 23
41 6 62 -15 18 -19 19 -36 7z"/>
<path d="M2563 9053 c-18 -6 -16 -23 1 -23 17 0 30 16 19 23 -5 2 -14 2 -20 0z"/>
<path d="M15870 9049 l-25 -10 24 -20 c25 -20 41 -23 106 -20 45 3 71 22 62
45 -5 13 -21 16 -74 15 -37 0 -79 -5 -93 -10z"/>
<path d="M14526 9043 c-14 -14 -4 -23 42 -36 66 -19 137 -11 155 17 l14 21
-102 2 c-57 1 -105 -1 -109 -4z"/>
<path d="M21399 8976 l-26 -22 28 -13 c47 -21 106 12 79 44 -18 21 -51 18 -81
-9z"/>
<path d="M6607 8924 c-10 -10 -8 -56 3 -74 13 -21 28 -3 32 40 2 25 -1 35 -12
38 -9 1 -19 0 -23 -4z"/>
<path d="M17072 8913 c-5 -10 -7 -33 -5 -51 3 -18 0 -53 -7 -78 -11 -39 -11
-47 3 -61 9 -9 23 -13 33 -9 14 6 16 15 10 69 -10 82 -10 77 -2 115 6 25 4 32
-8 32 -8 0 -19 -8 -24 -17z"/>
<path d="M21175 8917 c-25 -19 -11 -41 15 -24 20 12 28 37 12 37 -5 0 -16 -6
-27 -13z"/>
<path d="M21120 8870 c-13 -8 -12 -10 3 -10 9 0 17 5 17 10 0 12 -1 12 -20 0z"/>
<path d="M10626 8855 c-9 -24 -7 -93 3 -99 16 -10 39 28 43 69 3 34 0 40 -18
43 -13 2 -24 -4 -28 -13z"/>
<path d="M20964 8815 c-3 -8 -3 -18 0 -24 9 -13 76 9 76 26 0 19 -69 17 -76
-2z"/>
<path d="M2586 8764 c-4 -9 -4 -19 -1 -22 3 -3 11 0 17 6 9 9 9 15 1 23 -7 7
-12 5 -17 -7z"/>
<path d="M20800 8743 c-23 -8 -90 -75 -90 -90 0 -19 16 -16 63 12 44 25 72 59
62 75 -7 11 -12 11 -35 3z"/>
<path d="M13884 8705 c-8 -32 3 -78 18 -73 6 2 17 22 25 43 11 31 11 40 1 47
-23 14 -37 8 -44 -17z"/>
<path d="M21170 8680 c0 -5 -6 -10 -13 -10 -8 0 -22 -9 -32 -20 -17 -18 -17
-20 -1 -20 21 0 63 27 70 46 3 8 -1 14 -9 14 -8 0 -15 -4 -15 -10z"/>
<path d="M20615 8598 c-21 -12 -44 -38 -45 -50 0 -4 8 -12 19 -17 15 -9 25 -4
53 22 49 46 30 77 -27 45z"/>
<path d="M17057 8563 c-22 -21 8 -143 34 -143 13 0 20 58 14 105 -6 33 -12 45
-24 45 -10 0 -21 -3 -24 -7z"/>
<path d="M6610 8535 c0 -8 7 -15 15 -15 8 0 15 7 15 15 0 8 -7 15 -15 15 -8 0
-15 -7 -15 -15z"/>
<path d="M10623 8456 c-11 -34 -7 -86 6 -86 17 0 39 27 44 55 3 17 9 38 12 48
6 14 2 17 -22 17 -25 0 -31 -5 -40 -34z"/>
<path d="M20425 8405 c-36 -35 -31 -71 9 -68 34 2 57 29 53 63 -3 34 -31 37
-62 5z"/>
<path d="M6635 8370 c-14 -15 -16 -23 -7 -32 8 -8 14 -4 22 17 6 15 9 29 7 31
-2 2 -12 -5 -22 -16z"/>
<path d="M13855 8350 c-10 -16 4 -50 21 -50 11 0 14 8 12 27 -3 28 -22 41 -33
23z"/>
<path d="M17063 8294 c-16 -7 -46 -101 -39 -120 3 -9 15 -14 28 -12 18 2 24
12 31 48 16 83 13 97 -20 84z"/>
<path d="M2574 8262 c-13 -33 -8 -53 12 -45 15 6 19 40 6 60 -5 9 -11 4 -18
-15z"/>
<path d="M6623 8175 c-3 -9 -3 -18 -1 -21 9 -9 38 8 38 22 0 19 -29 18 -37 -1z"/>
<path d="M20244 8182 c-13 -8 -34 -46 -34 -61 0 -26 39 -8 64 29 l26 40 -22 0
c-13 0 -28 -4 -34 -8z"/>
<path d="M10618 8036 c-18 -38 -14 -71 10 -81 23 -9 34 9 40 64 4 45 2 51 -15
51 -12 0 -25 -13 -35 -34z"/>
<path d="M13849 8033 c-4 -49 -2 -67 9 -71 8 -2 12 11 12 42 0 43 -18 67 -21
29z"/>
<path d="M2576 7974 c-3 -9 -6 -31 -6 -51 0 -53 24 -36 28 20 3 46 -10 63 -22
31z"/>
<path d="M17043 7895 c-9 -25 3 -107 18 -116 7 -4 21 -3 31 2 14 8 16 18 11
57 -3 26 -10 53 -16 60 -13 17 -36 15 -44 -3z"/>
<path d="M20034 7885 c-18 -27 -13 -55 10 -55 17 0 56 46 56 66 0 24 -48 16
-66 -11z"/>
<path d="M6627 7873 c-12 -12 -7 -22 8 -17 8 4 15 10 15 15 0 11 -14 12 -23 2z"/>
<path d="M13862 7768 c-23 -23 -9 -88 19 -88 10 0 9 89 0 95 -4 2 -13 -1 -19
-7z"/>
<path d="M2584 7627 c-9 -24 4 -69 19 -64 7 2 11 17 9 33 -4 37 -19 53 -28 31z"/>
<path d="M19878 7623 c-9 -10 -23 -32 -31 -49 -14 -27 -14 -34 -2 -50 13 -18
14 -18 33 -1 10 9 24 35 31 57 17 57 0 79 -31 43z"/>
<path d="M10647 7624 c-4 -4 -7 -33 -7 -65 0 -48 3 -57 20 -62 16 -4 22 2 32
34 8 27 8 49 2 67 -9 26 -33 39 -47 26z"/>
<path d="M6625 7558 c-10 -26 -2 -43 12 -26 7 8 8 19 3 28 -8 12 -10 12 -15
-2z"/>
<path d="M17094 7495 c-16 -48 -16 -57 -3 -70 9 -9 19 -11 28 -6 25 16 26 131
1 131 -5 0 -17 -25 -26 -55z"/>
<path d="M2584 7406 c-8 -22 -1 -59 13 -64 17 -5 27 22 19 53 -7 28 -24 33
-32 11z"/>
<path d="M13860 7365 c-13 -46 -7 -95 11 -95 16 0 22 30 11 55 -7 15 -8 26 -2
30 12 8 13 55 1 55 -4 0 -14 -20 -21 -45z"/>
<path d="M6611 7292 c-11 -20 1 -48 17 -38 12 7 13 56 1 56 -5 0 -13 -8 -18
-18z"/>
<path d="M19711 7288 c-22 -23 -37 -80 -26 -97 14 -23 37 -9 55 35 24 54 25
84 5 84 -8 0 -23 -10 -34 -22z"/>
<path d="M2564 7166 c-7 -31 -2 -69 11 -73 17 -5 32 31 27 65 -5 38 -29 43
-38 8z"/>
<path d="M17059 7148 c-25 -60 -10 -125 26 -111 16 5 26 114 13 131 -16 19
-24 15 -39 -20z"/>
<path d="M10626 7106 c-7 -28 7 -113 21 -127 6 -6 14 -4 22 5 10 12 10 23 0
53 -14 40 -16 47 -18 76 -2 25 -18 21 -25 -7z"/>
<path d="M3301 7057 c-6 -7 -12 -42 -15 -76 -3 -40 -10 -69 -21 -81 -14 -15
-16 -30 -11 -72 3 -29 7 -115 8 -190 1 -103 5 -139 15 -142 9 -4 13 -26 13
-68 1 -39 6 -70 15 -82 8 -11 15 -27 15 -36 0 -9 8 -24 18 -33 29 -26 42 -3
42 73 0 36 4 70 8 76 5 5 6 43 2 84 -4 41 -3 118 1 170 13 151 11 272 -6 300
-7 14 -21 40 -29 58 -16 34 -36 41 -55 19z"/>
<path d="M1900 7045 c-8 -10 -13 -74 -16 -207 -6 -359 -5 -483 1 -500 4 -10
18 -18 31 -18 21 0 24 5 24 34 0 23 7 39 19 48 19 13 19 15 1 68 -18 53 -18
55 -1 70 15 12 20 35 26 110 3 52 8 111 10 130 1 19 -4 67 -12 105 -8 39 -17
84 -20 100 -6 33 -31 75 -43 75 -4 0 -13 -7 -20 -15z"/>
<path d="M19590 7007 c-30 -40 -37 -98 -15 -117 15 -13 19 -12 36 9 11 13 19
33 19 45 0 11 7 34 15 50 19 36 19 33 -9 38 -19 4 -30 -2 -46 -25z"/>
<path d="M6022 6963 c-8 -19 -8 -58 -2 -123 5 -52 9 -168 9 -257 0 -172 10
-234 44 -258 28 -20 49 -8 42 24 -17 84 -21 153 -9 176 23 44 -8 416 -37 451
-18 22 -36 17 -47 -13z"/>
<path d="M9555 6964 c-15 -15 -16 -29 -11 -83 4 -36 6 -82 4 -101 -2 -19 -2
-109 -1 -200 1 -91 2 -186 2 -212 1 -38 7 -54 32 -83 21 -24 39 -35 53 -33 18
3 21 11 24 66 2 34 -1 101 -7 149 -6 57 -6 96 1 116 21 57 -27 350 -61 381
-17 16 -20 16 -36 0z"/>
<path d="M7234 6959 c-9 -16 -14 -95 -15 -276 -1 -114 3 -170 16 -230 10 -43
19 -79 21 -81 1 -2 16 4 34 13 23 12 30 21 24 33 -15 36 -23 132 -19 235 2 60
0 132 -5 160 -5 30 -4 56 1 62 14 14 11 43 -7 70 -17 27 -38 32 -50 14z"/>
<path d="M13826 6925 c-10 -26 -7 -94 4 -116 8 -15 7 -19 -4 -19 -25 0 -36
-35 -36 -114 0 -61 -4 -79 -19 -93 -32 -30 -36 -68 -11 -93 21 -21 22 -28 15
-107 -6 -79 -5 -86 15 -105 16 -15 21 -29 18 -49 -5 -34 11 -52 44 -47 21 3
23 8 21 58 -4 165 -6 306 -4 396 1 63 -2 111 -10 128 -10 20 -10 29 -1 34 7 5
8 25 3 65 -8 62 -24 90 -35 62z"/>
<path d="M2562 6878 c-7 -7 -12 -38 -12 -70 0 -45 -4 -60 -16 -65 -14 -5 -15
-16 -8 -77 4 -39 8 -97 9 -129 0 -63 15 -83 47 -66 17 9 19 23 17 130 -1 72 3
124 9 132 16 19 -30 161 -46 145z"/>
<path d="M10657 6866 c-14 -15 -36 -238 -34 -351 1 -27 -2 -71 -6 -97 -7 -50
-1 -61 45 -72 15 -3 33 -13 42 -21 18 -18 36 -19 56 -2 12 10 15 42 14 177 0
97 -6 183 -13 210 -7 25 -16 65 -22 89 -14 70 -50 99 -82 67z m30 -498 c-3 -8
-6 -5 -6 6 -1 11 2 17 5 13 3 -3 4 -12 1 -19z"/>
<path d="M11761 6846 c-15 -18 -22 -325 -8 -348 8 -11 7 -36 -1 -81 -7 -36 -9
-72 -6 -81 3 -9 1 -23 -5 -30 -9 -11 -6 -18 18 -35 57 -41 83 -24 73 45 -5 31
-3 91 4 155 14 109 3 334 -17 371 -12 21 -42 23 -58 4z"/>
<path d="M2208 6768 c-25 -46 -8 -218 22 -218 23 0 30 33 26 131 -2 57 -4 105
-5 107 -4 11 -33 -2 -43 -20z"/>
<path d="M6623 6763 c-15 -5 -16 -41 -6 -132 7 -71 25 -88 54 -52 16 19 18 35
14 94 -6 82 -23 106 -62 90z"/>
<path d="M16082 6741 c-6 -17 -7 -44 -2 -64 5 -26 3 -46 -11 -77 -11 -24 -22
-60 -25 -80 -5 -32 -3 -40 15 -49 20 -11 21 -20 21 -129 0 -152 13 -171 76
-106 29 29 34 40 29 67 -12 67 -22 172 -18 196 2 14 4 70 5 123 2 90 0 100
-22 123 -31 33 -56 32 -68 -4z"/>
<path d="M1180 6745 c-22 -26 -17 -192 6 -232 20 -34 37 -41 51 -20 4 6 6 56
5 111 -3 126 -28 182 -62 141z"/>
<path d="M4024 6738 c-4 -13 -8 -54 -9 -93 -1 -38 -4 -79 -8 -90 -9 -29 29
-73 51 -58 24 14 39 169 23 224 -14 45 -45 54 -57 17z"/>
<path d="M2886 6701 c-7 -55 1 -128 16 -137 22 -14 37 23 39 91 3 77 -3 95
-30 95 -14 0 -20 -11 -25 -49z"/>
<path d="M3677 6723 c-2 -5 -7 -36 -11 -71 -6 -53 -5 -63 10 -69 31 -12 49 11
47 58 -4 63 -11 89 -28 89 -7 0 -16 -3 -18 -7z"/>
<path d="M5332 6713 c-5 -10 -6 -45 -1 -78 4 -33 8 -68 8 -77 1 -28 40 -22 51
8 14 36 12 138 -2 152 -17 17 -46 15 -56 -5z"/>
<path d="M6331 6655 c-7 -41 -10 -79 -7 -84 3 -5 17 -11 31 -13 43 -9 54 29
34 122 -8 36 -15 50 -28 50 -14 0 -20 -16 -30 -75z"/>
<path d="M17057 6706 c-6 -21 -9 -156 -11 -371 -1 -66 -5 -128 -10 -137 -5
-12 -4 -18 3 -18 12 0 71 39 82 53 3 5 9 49 12 98 3 49 11 105 18 124 15 41 2
181 -22 229 -19 39 -65 53 -72 22z"/>
<path d="M5022 6707 c-14 -17 -4 -117 14 -142 14 -19 15 -19 36 2 20 20 20 25
8 70 -22 82 -35 98 -58 70z"/>
<path d="M6902 6711 c-13 -8 -20 -126 -10 -137 4 -3 16 -3 27 1 35 11 41 125
7 138 -7 3 -18 2 -24 -2z"/>
<path d="M9896 6698 c-3 -7 -10 -44 -17 -81 -10 -58 -9 -71 3 -83 12 -13 16
-12 31 3 25 28 43 107 31 140 -10 30 -41 43 -48 21z"/>
<path d="M5681 6691 c-11 -7 -12 -20 -5 -62 5 -29 14 -54 20 -56 14 -5 47 61
42 84 -4 23 -40 44 -57 34z"/>
<path d="M18271 6686 c-7 -8 -15 -50 -17 -93 -7 -99 -7 -84 -1 -243 4 -123 7
-135 24 -138 11 -2 27 6 36 16 15 16 18 48 20 236 2 184 0 218 -13 226 -21 14
-36 12 -49 -4z"/>
<path d="M850 6675 c-18 -22 -23 -86 -9 -120 6 -16 11 -40 10 -52 -3 -30 13
-29 33 2 19 29 22 155 4 173 -16 16 -23 15 -38 -3z"/>
<path d="M4351 6676 c-18 -22 -16 -115 3 -134 22 -22 38 -4 43 49 4 41 -12 99
-27 99 -4 0 -13 -6 -19 -14z"/>
<path d="M8969 6663 c-10 -25 -5 -95 8 -129 7 -20 31 -17 43 5 14 27 13 124
-2 139 -20 20 -38 14 -49 -15z"/>
<path d="M9272 6677 c-25 -29 15 -151 46 -145 27 5 28 70 1 118 -25 43 -31 47
-47 27z"/>
<path d="M10106 6668 c-10 -16 -14 -43 -11 -85 3 -70 9 -83 35 -83 15 0 22 14
35 75 16 72 16 77 0 95 -24 26 -41 25 -59 -2z"/>
<path d="M10346 6671 c-14 -16 -17 -29 -11 -63 11 -74 14 -80 38 -72 29 9 37
22 37 66 0 24 -8 46 -23 63 -22 27 -22 27 -41 6z"/>
<path d="M10952 6666 c-6 -11 -10 -28 -10 -36 -1 -8 -4 -32 -8 -53 -7 -41 14
-77 47 -77 27 0 41 51 22 86 -9 18 -12 41 -8 60 4 26 2 33 -14 37 -13 3 -22
-2 -29 -17z"/>
<path d="M1524 6672 c-15 -9 -28 -103 -19 -142 6 -26 10 -30 28 -24 32 9 32 9
29 81 -2 67 -16 99 -38 85z"/>
<path d="M7574 6672 c-6 -4 -14 -29 -17 -57 -4 -27 -8 -59 -9 -70 -4 -26 33
-33 52 -10 19 23 19 110 0 129 -8 9 -20 12 -26 8z"/>
<path d="M7845 6658 c-7 -35 -1 -112 10 -120 37 -27 69 17 55 76 -14 63 -54
90 -65 44z"/>
<path d="M8154 6649 c3 -17 6 -41 6 -53 0 -12 7 -31 15 -42 15 -19 15 -19 30
0 32 42 7 126 -37 126 -18 0 -20 -4 -14 -31z"/>
<path d="M8707 6663 c-3 -5 -8 -35 -12 -69 -5 -47 -3 -63 8 -73 12 -10 19 -7
36 15 24 30 26 56 10 103 -10 29 -32 41 -42 24z"/>
<path d="M11982 6615 c-17 -37 -14 -66 8 -95 16 -20 22 -23 37 -14 10 6 18 16
17 23 -1 6 -2 26 -2 45 -2 32 -23 66 -41 66 -4 0 -13 -11 -19 -25z"/>
<path d="M11471 6607 c-6 -8 -9 -21 -7 -28 2 -8 7 -26 10 -41 9 -39 53 -40 62
-1 13 50 -37 103 -65 70z"/>
<path d="M11190 6595 c-16 -19 -3 -94 17 -102 18 -7 49 29 56 64 8 41 -47 70
-73 38z"/>
<path d="M12220 6591 c-26 -50 1 -118 38 -94 10 5 23 21 31 35 13 23 13 29 -2
52 -21 31 -52 34 -67 7z"/>
<path d="M13242 6578 c-17 -17 -15 -89 4 -116 16 -24 50 -30 57 -9 7 18 -4
110 -16 125 -12 15 -30 15 -45 0z"/>
<path d="M13521 6577 c-7 -9 -11 -36 -9 -69 3 -49 5 -53 28 -53 16 0 26 6 28
18 5 27 -6 80 -21 101 -12 16 -14 16 -26 3z"/>
<path d="M12455 6560 c-15 -17 -16 -24 -7 -45 21 -45 66 -21 60 32 -4 34 -28
41 -53 13z"/>
<path d="M12982 6557 c-12 -14 -4 -94 10 -103 16 -10 48 28 48 55 -1 28 -21
61 -37 61 -6 0 -15 -6 -21 -13z"/>
<path d="M14082 6558 c-18 -18 -15 -87 3 -94 23 -9 45 15 45 50 0 29 -15 56
-30 56 -3 0 -11 -5 -18 -12z"/>
<path d="M14390 6555 c-19 -22 -30 -97 -18 -112 14 -18 43 -16 62 3 22 22 21
87 -2 107 -23 21 -26 21 -42 2z"/>
<path d="M15510 6555 c-13 -16 -9 -68 10 -137 20 -71 60 -37 60 51 0 84 -35
128 -70 86z"/>
<path d="M14614 6552 c-14 -9 -38 -108 -30 -127 8 -22 32 -18 49 9 43 65 29
150 -19 118z"/>
<path d="M15194 6542 c-6 -4 -14 -32 -18 -63 -9 -68 10 -84 50 -44 28 28 31
61 8 93 -16 24 -23 26 -40 14z"/>
<path d="M15814 6528 c-11 -36 -7 -80 10 -97 14 -14 18 -14 31 0 26 26 35 74
18 98 -19 28 -50 27 -59 -1z"/>
<path d="M16295 6532 c-5 -4 -11 -18 -13 -32 -1 -14 -7 -35 -13 -47 -14 -26
-4 -72 17 -80 28 -11 53 28 56 87 3 71 -13 97 -47 72z"/>
<path d="M16803 6513 c-4 -10 -7 -38 -8 -63 0 -38 3 -45 20 -48 16 -2 23 8 37
50 13 38 14 55 6 65 -15 19 -47 16 -55 -4z"/>
<path d="M17587 6505 c-26 -25 -2 -135 29 -135 26 0 40 37 34 92 -4 44 -8 53
-26 56 -12 2 -29 -4 -37 -13z"/>
<path d="M16567 6499 c-13 -8 -17 -22 -16 -57 4 -94 79 -78 79 16 0 45 -26 62
-63 41z"/>
<path d="M17297 6503 c-10 -10 -8 -62 3 -83 13 -25 49 -15 61 18 16 42 -35 94
-64 65z"/>
<path d="M17915 6481 c-6 -21 19 -91 32 -91 18 0 33 25 33 55 0 17 -5 36 -12
43 -18 18 -46 14 -53 -7z"/>
<path d="M18795 6470 c-11 -35 -8 -159 5 -190 14 -35 14 -35 45 -14 32 21 44
93 22 128 -9 13 -13 33 -10 45 11 42 -49 73 -62 31z"/>
<path d="M19010 6475 c-10 -13 -10 -19 4 -33 9 -10 16 -35 16 -55 0 -56 32
-61 62 -9 22 37 13 79 -23 97 -35 19 -43 19 -59 0z"/>
<path d="M18525 6453 c-3 -15 -11 -45 -17 -66 -9 -28 -9 -40 1 -50 16 -16 41
1 66 46 15 28 17 41 9 64 -14 40 -51 44 -59 6z"/>
<path d="M6580 6124 c-8 -3 -33 -12 -56 -20 -25 -9 -45 -24 -52 -39 -15 -32
-2 -38 39 -18 47 24 159 31 159 10 0 -22 -22 -36 -74 -46 -49 -9 -81 -37 -65
-57 5 -6 46 -14 92 -17 97 -7 156 -22 164 -43 8 -22 -31 -58 -100 -92 -93 -46
-149 -59 -184 -42 -44 21 -57 21 -38 0 9 -10 35 -23 58 -28 35 -9 54 -8 112
10 38 11 77 26 85 33 8 7 27 15 41 19 37 8 107 66 115 95 9 31 -6 42 -96 70
-39 12 -70 27 -70 33 0 5 9 17 19 26 35 30 35 58 1 82 -30 21 -118 36 -150 24z"/>
<path d="M10588 6073 c-8 -10 -29 -44 -46 -75 -26 -48 -30 -62 -22 -83 9 -24
14 -26 63 -24 28 1 61 6 73 10 42 15 49 -2 35 -91 -11 -74 -11 -84 5 -101 37
-40 52 -21 60 75 3 34 8 77 12 96 7 32 11 35 51 40 74 8 87 70 15 70 -36 0
-37 0 -31 35 5 28 2 38 -16 50 -20 14 -23 14 -39 -6 -10 -12 -18 -34 -18 -50
0 -15 -5 -31 -12 -35 -17 -11 -88 -22 -88 -15 0 4 9 24 20 45 14 29 17 44 9
57 -12 24 -51 24 -71 2z"/>
<path d="M16983 6053 c-7 -2 -13 -12 -13 -21 0 -10 -11 -39 -25 -65 l-26 -47
25 -25 c20 -20 35 -25 75 -25 73 0 81 -5 69 -43 -24 -78 -26 -96 -11 -116 8
-12 20 -21 28 -21 18 0 45 39 38 56 -5 14 14 82 29 100 5 8 20 9 43 4 63 -14
79 41 19 66 -35 15 -36 17 -31 55 5 35 2 42 -19 51 -32 15 -54 -4 -54 -48 0
-40 -10 -47 -58 -39 -61 10 -66 16 -45 59 17 37 17 38 -2 52 -20 15 -23 15
-42 7z"/>
<path d="M13717 6015 c-58 -16 -92 -42 -77 -60 8 -10 23 -9 70 2 34 7 73 12
88 9 15 -2 30 -5 35 -5 4 -1 7 -10 7 -22 0 -22 -74 -97 -155 -158 -25 -18 -45
-37 -45 -42 0 -5 10 -15 23 -23 18 -12 37 -13 109 -4 76 10 90 9 112 -6 38
-24 56 -21 56 12 0 42 -49 67 -118 60 -38 -4 -52 -2 -52 8 0 7 9 15 20 19 24
8 110 93 120 120 25 66 -88 119 -193 90z"/>
<path d="M2555 5949 c-99 -19 -149 -36 -163 -57 -8 -13 -12 -25 -9 -29 4 -3
36 4 72 16 75 24 145 28 145 8 0 -18 -27 -41 -67 -56 -38 -15 -49 -39 -29 -59
12 -13 20 -13 46 -2 34 14 146 8 180 -10 44 -23 14 -69 -71 -108 -34 -17 -64
-22 -123 -22 -58 0 -77 -3 -74 -12 6 -16 90 -33 114 -23 11 4 35 9 54 10 79 8
190 95 190 150 0 12 -90 62 -143 79 -14 4 -16 12 -10 33 14 57 10 66 -32 78
-23 6 -57 8 -80 4z"/>
<path d="M9795 5320 c-16 -4 -55 -8 -85 -9 -58 -1 -80 -13 -80 -43 0 -24 38
-32 121 -24 68 6 69 6 69 -18 0 -35 -27 -93 -76 -164 -24 -35 -44 -69 -44 -77
0 -37 54 -25 71 16 6 17 21 41 31 55 43 54 88 153 88 193 0 23 -4 41 -9 41 -5
0 -11 9 -14 20 -5 21 -21 23 -72 10z"/>
<path d="M5421 5299 c-109 -26 -131 -37 -131 -66 0 -33 25 -39 68 -15 20 11
58 23 85 27 44 7 47 6 47 -14 0 -31 -26 -67 -66 -92 -19 -11 -34 -27 -34 -34
0 -17 26 -26 56 -19 26 7 114 -21 114 -36 0 -20 -13 -40 -26 -40 -8 0 -14 -4
-14 -10 0 -5 -9 -10 -19 -10 -11 0 -23 -4 -26 -10 -9 -15 -122 -13 -128 3 -7
18 -42 -5 -42 -28 0 -23 53 -43 113 -44 63 -1 207 68 216 103 11 46 -3 74 -49
96 -65 31 -71 43 -46 85 27 46 27 67 -1 92 -35 31 -38 31 -117 12z"/>
<path d="M10052 5313 c-52 -5 -57 -15 -65 -126 -5 -70 -4 -78 14 -88 16 -8 26
-7 46 6 28 18 68 14 76 -9 9 -22 -3 -55 -23 -61 -26 -8 -82 -9 -106 -1 -14 4
-29 0 -44 -12 l-24 -19 27 -18 c18 -11 49 -18 90 -19 50 -1 68 3 95 22 34 24
62 78 62 117 0 28 -63 74 -114 82 -32 5 -36 9 -30 27 10 34 25 46 53 46 15 0
36 7 47 15 19 15 19 15 0 30 -11 8 -29 14 -40 13 -12 -1 -40 -3 -64 -5z"/>
<path d="M9173 5276 c-29 -6 -60 -19 -70 -29 -16 -16 -16 -18 -1 -34 13 -12
20 -13 30 -6 7 6 34 14 61 18 48 7 53 4 47 -35 -1 -8 -20 -34 -43 -57 -55 -57
-39 -75 51 -57 70 14 83 -41 20 -86 -34 -25 -47 -29 -77 -24 -20 4 -40 10 -45
15 -16 15 -56 10 -56 -6 0 -23 40 -43 100 -50 47 -6 66 -2 123 20 53 22 69 33
74 53 8 32 -29 104 -62 122 -13 7 -26 18 -29 25 -6 17 4 55 15 55 15 0 10 44
-7 68 -17 25 -45 26 -131 8z"/>
<path d="M13200 5260 c-8 -5 -37 -10 -63 -10 -80 0 -88 -9 -82 -88 10 -115 5
-108 84 -108 60 0 74 -3 96 -24 33 -31 33 -72 -1 -99 -30 -24 -56 -26 -103
-10 -27 10 -36 9 -48 -4 -19 -19 -10 -35 33 -53 48 -20 72 -18 133 13 69 35
90 74 73 132 -15 48 -59 87 -115 101 -91 23 -105 40 -71 89 14 19 23 22 53 17
43 -6 64 4 59 30 -4 22 -26 28 -48 14z"/>
<path d="M19569 5237 c-39 -18 -59 -37 -59 -58 0 -23 36 -25 87 -7 78 28 63
-50 -17 -85 -74 -33 -62 -55 50 -88 34 -11 46 -20 48 -36 5 -32 -51 -65 -85
-52 -37 14 -51 11 -64 -12 -17 -33 3 -44 75 -42 100 2 150 39 142 106 -5 46
-20 66 -63 84 -33 13 -45 33 -20 33 21 0 57 44 57 69 0 33 -35 78 -67 85 -16
4 -35 9 -43 11 -8 2 -27 -2 -41 -8z"/>
<path d="M20122 5237 c-41 -13 -92 -70 -92 -102 0 -34 22 -32 65 6 39 35 61
33 71 -6 10 -38 -32 -139 -74 -180 -34 -33 -35 -36 -20 -51 12 -13 32 -17 78
-15 34 1 81 -5 107 -14 37 -13 48 -13 54 -3 23 35 -11 68 -76 76 -26 2 -49 11
-52 18 -2 7 7 32 20 56 14 24 29 60 32 81 10 50 -17 120 -51 136 -14 6 -26 11
-27 10 -1 -1 -17 -6 -35 -12z"/>
<path d="M20455 5235 c-16 -8 -40 -14 -51 -15 -12 0 -32 -8 -44 -18 -20 -16
-21 -23 -15 -85 8 -77 17 -83 101 -78 62 3 111 -19 125 -57 21 -54 -17 -97
-58 -66 -24 18 -62 18 -70 -2 -6 -17 31 -62 64 -75 51 -19 135 45 135 104 0
80 -70 147 -169 163 -45 7 -63 20 -63 45 0 22 29 39 67 39 33 0 53 16 53 42 0
22 -31 23 -75 3z"/>
<path d="M12551 5214 c-12 -15 -20 -32 -18 -38 4 -11 14 -11 93 0 54 8 84 -8
84 -44 0 -36 -108 -143 -171 -170 -56 -24 -64 -35 -48 -63 12 -23 7 -23 132
-1 28 5 68 5 97 -1 41 -8 54 -7 74 7 51 33 -8 69 -98 59 -58 -7 -59 5 -7 53
46 41 81 103 81 143 0 17 -10 37 -26 52 -21 19 -38 24 -98 27 -70 4 -74 3 -95
-24z"/>
<path d="M16525 5219 c-11 -6 -42 -22 -70 -37 l-50 -27 -3 -76 c-2 -63 0 -78
16 -92 17 -15 25 -16 70 -5 71 16 102 2 102 -45 0 -52 -27 -70 -92 -63 -29 3
-66 6 -82 8 -42 4 -42 -16 0 -41 49 -29 126 -31 180 -3 60 30 67 44 62 108 -4
43 -11 61 -31 81 -23 23 -34 27 -91 26 -72 0 -80 7 -69 57 7 36 28 50 77 50
46 0 66 9 66 29 0 37 -42 51 -85 30z"/>
<path d="M15897 5197 c-60 -13 -128 -69 -110 -88 10 -10 23 -8 67 10 71 29
149 27 154 -5 3 -22 -29 -54 -98 -98 -60 -38 -47 -51 50 -51 84 0 85 0 85 -25
0 -19 -9 -29 -39 -43 -43 -21 -55 -22 -108 -12 -36 7 -38 6 -38 -18 0 -49 92
-52 187 -6 99 48 109 107 25 156 -42 25 -44 27 -24 36 26 12 45 62 33 85 -32
60 -94 80 -184 59z"/>
<path d="M9515 5044 c-8 -8 -15 -27 -15 -40 0 -22 3 -24 23 -18 49 15 61 41
27 61 -15 10 -22 10 -35 -3z"/>
<path d="M12871 4937 c-18 -23 10 -51 42 -43 29 7 35 24 15 44 -16 16 -43 15
-57 -1z"/>
<path d="M16227 4902 c-25 -27 -22 -52 7 -52 28 0 49 22 44 47 -5 25 -31 27
-51 5z"/>
<path d="M19845 4911 c-3 -5 2 -17 11 -26 15 -14 19 -15 32 -2 8 8 11 20 8 26
-9 13 -43 15 -51 2z"/>
<path d="M7441 4891 c-17 -11 -32 -108 -36 -230 -2 -89 -14 -111 -58 -111 -10
0 -31 -6 -45 -14 -15 -8 -63 -32 -107 -52 -43 -21 -100 -53 -126 -71 -26 -17
-63 -39 -83 -47 -20 -8 -69 -39 -109 -69 -39 -29 -82 -60 -93 -68 -12 -7 -56
-38 -98 -66 -42 -29 -80 -53 -85 -53 -12 0 -153 -113 -223 -179 -32 -29 -70
-63 -86 -75 -33 -24 -99 -84 -116 -105 -6 -8 -56 -57 -111 -110 -55 -53 -122
-121 -150 -151 -27 -30 -116 -122 -197 -205 -80 -82 -162 -170 -182 -195 -99
-126 -123 -157 -139 -183 -10 -16 -24 -36 -32 -45 -71 -87 -176 -222 -225
-287 -33 -44 -78 -103 -100 -132 -61 -77 -130 -185 -137 -213 -3 -14 -18 -38
-34 -55 -15 -16 -35 -50 -44 -75 -9 -25 -41 -95 -72 -156 l-55 -111 -39 0
c-38 0 -39 1 -40 36 0 20 -2 47 -5 61 -9 55 -24 158 -30 210 -3 30 -17 82 -29
115 -13 33 -29 80 -34 105 -10 40 -22 195 -21 260 0 28 -35 223 -57 315 -8 33
-17 74 -19 90 -3 17 -8 37 -11 45 -3 8 -8 38 -10 65 -2 28 -11 79 -20 115 -8
36 -19 81 -23 100 -5 19 -20 67 -35 105 -14 39 -35 97 -46 130 -12 33 -29 74
-39 90 -10 17 -28 56 -40 87 -20 54 -45 105 -94 189 -12 20 -38 66 -59 102
-21 37 -45 84 -54 105 -8 21 -27 46 -41 55 -15 8 -36 24 -47 34 -11 11 -48 38
-82 61 -46 31 -72 42 -100 42 -21 0 -48 3 -60 6 -23 6 -25 16 -38 228 -6 85
-22 113 -57 95 -27 -15 -31 -27 -33 -126 -2 -53 -8 -100 -14 -106 -14 -14
-132 -30 -233 -31 -61 -1 -78 -4 -81 -17 -3 -10 -40 -27 -99 -47 -54 -18 -150
-63 -227 -107 -74 -41 -136 -75 -138 -75 -3 0 -42 -22 -87 -49 -44 -27 -110
-61 -146 -76 -36 -15 -72 -32 -80 -39 -8 -6 -64 -35 -125 -65 -60 -30 -132
-65 -160 -79 -60 -30 -268 -176 -349 -246 -176 -153 -389 -365 -438 -438 -15
-21 -44 -52 -65 -67 -40 -29 -78 -74 -128 -152 -31 -48 -93 -135 -142 -200
-16 -21 -41 -56 -58 -78 -16 -23 -56 -74 -88 -113 -58 -71 -92 -132 -81 -149
6 -11 -10 -41 -56 -104 -20 -27 -43 -68 -50 -90 -7 -22 -19 -49 -26 -60 -8
-11 -14 -28 -14 -38 0 -10 -13 -46 -29 -80 -61 -131 -71 -158 -86 -213 -8 -32
-15 -74 -15 -94 -1 -35 -21 -75 -33 -63 -4 3 -7 15 -7 25 0 19 -12 22 -45 9
-19 -8 -20 -18 -22 -212 -1 -112 -6 -229 -10 -259 -13 -88 -2 -189 22 -206 18
-13 22 -13 37 6 9 11 21 20 27 20 13 0 15 27 2 34 -15 10 4 263 22 285 6 7 12
50 12 95 1 81 16 147 69 296 13 36 32 92 41 125 21 69 82 188 134 260 20 28
49 70 65 95 50 78 88 121 197 230 58 58 131 137 163 177 31 39 68 78 81 87 35
23 33 56 -3 56 -22 0 -36 -11 -65 -50 -53 -71 -73 -67 -41 7 9 21 22 49 28 63
13 30 98 140 109 140 4 0 7 5 7 11 0 7 17 31 37 54 21 23 54 61 73 85 41 50
189 195 245 240 29 23 45 30 63 25 21 -5 41 9 133 97 275 263 331 307 394 309
23 0 38 10 65 43 19 24 55 53 80 65 25 11 90 46 145 76 144 79 164 87 200 81
22 -4 36 -2 44 8 17 20 127 58 159 54 23 -2 27 1 25 19 -2 19 18 35 47 38 3 0
24 7 45 17 93 39 89 38 225 41 103 3 105 3 105 27 0 21 6 26 40 32 93 16 92
17 100 -66 8 -82 12 -93 39 -98 23 -4 38 39 30 81 -4 20 1 35 21 58 27 30 28
30 71 17 23 -7 53 -18 65 -24 38 -21 113 -80 142 -113 45 -51 167 -236 197
-300 15 -31 32 -63 38 -70 5 -6 15 -30 23 -52 7 -22 20 -51 29 -65 30 -46 78
-174 110 -290 17 -63 41 -144 52 -180 11 -36 24 -96 29 -135 5 -38 16 -101 24
-140 9 -38 20 -95 25 -125 4 -30 10 -62 13 -70 3 -8 8 -42 11 -75 3 -33 11
-91 18 -128 9 -53 9 -70 0 -76 -10 -6 -9 -17 2 -48 23 -64 24 -99 4 -95 -12 2
-15 -3 -11 -18 3 -11 12 -20 19 -20 10 0 14 -14 15 -47 1 -99 27 -414 35 -422
2 -2 4 6 4 18 0 12 5 31 11 42 6 13 7 25 1 32 -5 7 -10 46 -11 89 -1 42 -6 91
-11 109 -12 40 -13 113 -3 123 13 13 43 -136 48 -239 3 -55 12 -138 20 -185 8
-47 14 -123 14 -170 1 -47 4 -99 7 -117 3 -18 1 -47 -5 -65 -9 -24 -8 -33 1
-39 12 -8 29 -150 31 -273 2 -52 6 -71 19 -79 12 -8 20 -7 31 1 12 10 13 21 5
55 -5 23 -7 57 -3 74 3 18 6 82 6 142 0 83 4 113 15 122 10 8 14 29 13 68 -2
58 6 95 48 219 35 107 69 176 103 214 17 18 30 41 30 50 0 24 56 105 130 187
81 91 148 175 194 245 21 32 54 67 72 78 34 20 43 41 23 53 -19 13 -88 -44
-144 -120 -78 -105 -82 -99 -17 25 19 36 52 97 73 137 47 90 107 179 165 244
24 27 44 56 44 64 0 7 17 22 38 32 24 12 44 31 56 58 11 22 28 46 38 53 10 7
25 26 33 42 8 15 27 41 42 58 15 16 45 53 67 82 21 28 49 56 62 61 14 5 29 20
36 34 6 14 17 25 24 25 7 0 30 22 51 50 21 27 49 53 63 56 37 10 58 32 53 57
-3 16 13 39 60 87 80 82 186 170 206 170 8 0 80 66 160 148 112 113 166 159
232 200 48 28 91 52 96 52 6 0 18 9 29 21 10 12 61 50 112 85 87 59 158 91
312 139 72 23 112 44 128 66 7 11 22 19 32 19 20 0 22 -6 35 -80 17 -101 23
-108 63 -65 19 19 22 31 17 58 -9 46 6 53 52 24 22 -14 68 -39 103 -57 36 -18
81 -47 100 -65 19 -18 45 -36 56 -39 12 -4 30 -18 40 -32 11 -14 31 -42 47
-61 15 -20 27 -44 27 -54 0 -9 7 -30 15 -46 8 -15 24 -50 35 -78 29 -69 35
-83 59 -137 11 -25 40 -124 65 -220 25 -95 52 -198 61 -228 8 -30 19 -77 24
-105 5 -27 12 -57 16 -66 13 -33 22 -164 13 -185 -7 -15 -5 -30 6 -53 10 -19
21 -77 26 -144 9 -102 17 -173 26 -220 1 -9 8 -71 15 -138 11 -99 10 -122 0
-129 -10 -5 -11 -17 -6 -36 4 -16 9 -40 10 -54 2 -14 8 -49 14 -79 7 -32 11
-178 11 -365 0 -236 3 -315 13 -325 9 -9 11 -61 9 -206 -2 -183 -1 -195 17
-205 42 -22 50 -5 50 99 -1 53 5 117 11 141 7 25 12 68 11 96 -1 35 3 55 13
63 8 7 12 19 9 27 -3 8 -1 20 5 27 5 6 12 28 15 47 20 138 31 171 117 343 123
245 282 515 342 580 16 16 28 34 28 41 0 6 25 43 56 81 31 39 72 95 92 125 20
30 67 93 104 139 37 46 68 90 68 98 0 41 258 311 324 338 20 8 36 19 36 24 0
4 17 20 37 34 21 15 127 115 235 223 167 166 201 195 220 191 15 -4 30 0 43
13 46 46 193 154 245 180 30 16 70 40 89 54 19 14 39 26 43 26 5 0 21 8 36 19
15 10 58 36 95 57 38 22 85 49 105 61 20 13 53 30 72 39 19 9 45 25 59 35 13
10 39 19 57 19 19 0 34 4 34 10 0 5 13 16 30 25 24 13 33 13 50 3 19 -11 24
-10 45 15 28 32 114 54 145 37 29 -15 57 -12 77 9 10 10 37 24 59 30 53 14
223 16 236 3 6 -6 9 -46 6 -96 -2 -47 -3 -86 -1 -86 21 0 43 27 49 58 9 46 32
102 42 102 11 0 75 -24 89 -33 6 -4 14 -3 17 2 3 5 23 0 43 -10 21 -10 42 -19
48 -19 15 0 124 -122 155 -173 14 -24 44 -67 67 -97 24 -32 48 -80 58 -114 14
-48 91 -245 125 -321 31 -68 64 -158 80 -214 10 -37 29 -100 43 -141 14 -41
32 -118 41 -170 36 -218 49 -289 66 -355 10 -38 21 -104 24 -145 3 -41 10
-124 15 -185 19 -221 28 -331 29 -360 14 -329 18 -395 30 -407 15 -15 15 -43
1 -71 -14 -26 -20 -253 -8 -286 8 -21 14 -23 46 -18 20 4 40 10 44 14 5 5 10
94 13 198 3 138 10 217 24 290 31 147 62 276 76 310 7 17 16 47 20 68 7 36 85
282 107 339 6 15 20 28 32 30 14 2 24 13 28 33 10 40 35 108 65 172 13 30 24
57 24 61 0 14 135 292 143 292 4 0 7 -7 7 -15 0 -8 6 -15 14 -15 9 0 16 17 20
50 4 27 11 52 17 56 6 3 32 50 58 103 65 131 119 221 190 316 33 44 61 85 61
92 1 37 125 237 228 368 62 78 100 114 121 115 8 0 28 12 44 28 20 19 39 27
65 27 33 0 37 3 37 26 1 15 9 38 18 52 9 15 17 33 17 42 0 8 7 15 15 15 8 0
15 -8 15 -18 0 -10 6 -26 13 -36 11 -16 16 -13 59 28 46 46 46 46 79 31 57
-24 87 -56 129 -140 22 -44 40 -84 40 -91 0 -6 10 -19 21 -30 29 -26 41 -60
45 -124 2 -57 8 -84 43 -207 11 -39 25 -113 31 -163 6 -51 12 -96 15 -100 2
-4 16 -85 30 -181 20 -135 26 -226 30 -414 3 -141 11 -279 20 -335 15 -97 41
-445 36 -490 -1 -14 -3 -83 -4 -155 -3 -176 -16 -284 -38 -316 -18 -26 -18
-27 0 -43 12 -11 23 -43 31 -84 20 -116 42 -191 58 -197 32 -12 39 16 32 119
-7 97 2 143 31 161 5 4 9 30 10 58 1 105 34 241 79 333 22 44 29 70 24 88 -11
46 122 276 160 276 14 0 46 51 46 74 0 33 156 291 236 391 17 22 35 54 39 72
9 44 131 225 212 315 36 40 116 132 178 203 283 328 569 559 848 683 26 12 47
26 47 31 0 10 85 71 100 71 4 0 25 9 47 19 78 40 150 71 166 71 9 0 18 4 22 9
6 11 103 41 130 41 9 0 42 12 73 27 31 15 62 28 67 28 58 5 227 47 275 68 24
11 62 21 85 22 22 1 51 7 65 12 14 6 42 18 64 27 49 20 66 20 81 -1 9 -11 31
-17 78 -20 93 -4 111 -13 126 -63 10 -33 10 -49 1 -71 -12 -28 -11 -162 1
-174 4 -3 13 -3 22 1 11 4 17 27 23 82 9 103 22 122 77 114 23 -3 55 -16 70
-28 16 -13 34 -24 42 -24 21 0 93 -75 172 -180 46 -60 123 -202 123 -224 0 -8
11 -37 25 -64 14 -28 25 -55 25 -61 0 -26 31 -71 49 -71 13 0 26 -18 45 -59
14 -32 26 -66 26 -74 0 -9 4 -18 9 -21 5 -3 11 -16 14 -28 2 -13 16 -54 31
-93 14 -38 26 -80 26 -92 0 -12 12 -53 26 -90 14 -37 32 -93 40 -123 8 -30 19
-63 24 -72 6 -10 10 -28 10 -40 0 -13 9 -54 20 -93 11 -38 20 -83 20 -98 0
-16 6 -35 14 -42 7 -8 17 -36 20 -62 4 -26 11 -62 17 -78 10 -34 34 -141 50
-225 18 -94 30 -220 33 -345 2 -66 6 -169 11 -229 7 -105 6 -110 -15 -126 -21
-16 -22 -19 -11 -108 18 -147 78 -312 114 -312 26 0 33 20 27 83 -11 105 -5
189 14 202 9 7 16 23 16 36 0 14 7 34 15 46 22 32 65 149 65 179 0 28 -24 42
-44 25 -22 -19 -29 3 -21 71 7 59 7 61 -14 55 -19 -5 -21 -1 -22 41 -3 109
-11 132 -45 132 -19 0 -28 -8 -35 -30 -22 -61 -42 -18 -26 55 4 22 5 56 2 75
-4 19 -9 53 -11 75 -15 150 -49 315 -78 380 -8 17 -17 50 -21 75 -12 82 -36
193 -56 264 -22 74 -24 82 -41 156 -5 25 -14 54 -18 65 -5 11 -16 43 -24 70
-48 159 -147 432 -170 468 -8 12 -24 50 -35 85 -11 35 -34 87 -51 117 -16 29
-30 60 -30 68 0 9 -29 53 -65 97 -36 44 -65 85 -65 91 0 6 -15 25 -32 41 -27
25 -33 38 -33 71 0 40 0 41 -72 76 -88 44 -141 68 -172 76 -22 7 -23 10 -20
89 3 118 2 124 -29 140 -39 20 -62 5 -62 -40 0 -42 -15 -74 -35 -74 -26 0 -26
-20 0 -32 46 -21 23 -33 -56 -30 -65 3 -149 17 -149 26 0 2 7 17 16 34 21 42
15 76 -13 80 -18 3 -27 -5 -40 -32 -9 -21 -27 -39 -43 -45 -19 -6 -29 -18 -33
-39 -7 -36 -23 -43 -73 -32 -32 8 -63 3 -169 -25 -136 -37 -231 -68 -242 -79
-3 -3 -13 -6 -21 -6 -8 0 -61 -22 -116 -49 -56 -27 -139 -59 -186 -71 -161
-43 -295 -95 -380 -149 -36 -23 -81 -49 -101 -59 -59 -29 -149 -85 -194 -122
-23 -19 -83 -66 -131 -103 -51 -39 -112 -98 -144 -139 -30 -38 -98 -114 -150
-167 -53 -53 -121 -125 -152 -161 -30 -36 -79 -92 -108 -125 -29 -33 -63 -76
-76 -95 -44 -65 -58 -85 -84 -120 -14 -19 -34 -55 -45 -80 -10 -25 -23 -50
-29 -55 -37 -35 -146 -215 -210 -348 -42 -86 -76 -160 -76 -164 0 -4 -27 -62
-59 -128 -33 -66 -69 -142 -81 -170 -12 -27 -28 -63 -36 -79 -8 -16 -14 -34
-14 -40 -1 -12 -35 -56 -44 -56 -3 0 -6 5 -6 12 0 6 -14 40 -31 74 -17 35 -28
67 -25 72 13 21 5 222 -15 382 -22 175 -27 298 -19 505 3 104 -8 206 -50 444
-13 73 -13 127 2 150 9 15 7 37 -10 107 -29 118 -37 164 -34 192 8 73 -132
376 -211 459 -26 26 -47 53 -47 60 0 26 -30 42 -75 39 -25 -1 -46 2 -48 8 -2
6 -5 67 -6 136 -1 105 -4 128 -19 143 -22 21 -48 14 -58 -16 -4 -12 -6 -52 -5
-90 2 -61 0 -69 -19 -74 -25 -7 -26 -19 -1 -32 21 -12 33 -75 17 -91 -6 -6
-18 -10 -29 -10 -21 0 -74 -47 -227 -200 -100 -100 -136 -146 -160 -199 -6
-14 -26 -42 -45 -62 -19 -21 -43 -55 -54 -77 -11 -21 -27 -44 -35 -51 -9 -8
-16 -18 -16 -23 0 -6 -8 -22 -19 -36 -10 -15 -40 -67 -66 -116 -26 -48 -68
-118 -94 -155 -55 -76 -121 -179 -121 -187 0 -3 -18 -32 -40 -64 -22 -33 -45
-71 -50 -85 -5 -13 -31 -58 -58 -97 -44 -66 -73 -117 -135 -243 -11 -22 -28
-49 -37 -60 -36 -41 -55 -89 -110 -275 -17 -58 -41 -121 -54 -140 -21 -31 -44
-98 -92 -270 -9 -30 -17 -60 -19 -66 -2 -8 -15 -9 -36 -5 -30 6 -34 11 -45 61
-12 56 -27 223 -30 340 0 36 -6 94 -12 130 -13 79 -19 132 -28 230 -3 41 -12
86 -19 100 -7 14 -16 54 -20 90 -10 92 -62 322 -85 372 -10 24 -28 79 -40 122
-25 93 -77 233 -91 241 -5 4 -9 33 -9 65 0 32 -4 61 -9 65 -15 9 -58 91 -76
145 -15 44 -74 139 -190 305 -105 150 -184 214 -313 255 -30 9 -42 18 -39 29
2 9 9 15 15 14 18 -4 14 12 -8 32 -17 15 -20 29 -18 94 2 82 -11 121 -41 121
-27 0 -41 -43 -41 -131 0 -62 -3 -81 -15 -84 -8 -3 -22 -7 -31 -10 -12 -4 -14
-8 -5 -19 15 -18 4 -26 -34 -26 -18 0 -44 -9 -58 -20 -14 -11 -32 -20 -40 -20
-8 0 -21 -9 -28 -21 -13 -18 -44 -29 -129 -44 -8 -1 -22 -5 -30 -7 -71 -25
-185 -58 -199 -58 -10 0 -45 -13 -77 -30 -32 -16 -63 -30 -69 -30 -5 0 -28 -9
-50 -20 -22 -11 -46 -19 -54 -20 -8 0 -29 -11 -47 -25 -18 -14 -40 -25 -49
-25 -8 0 -21 -11 -27 -25 -8 -17 -40 -40 -99 -70 -49 -24 -112 -59 -141 -78
-29 -18 -107 -61 -173 -94 -66 -33 -150 -80 -187 -104 -37 -24 -88 -57 -115
-74 -135 -83 -383 -295 -383 -326 0 -26 -136 -175 -209 -229 -34 -25 -85 -76
-115 -115 -110 -144 -252 -332 -281 -373 -16 -23 -42 -59 -58 -79 -60 -83
-121 -180 -135 -218 -9 -22 -24 -49 -34 -61 -10 -11 -18 -23 -18 -27 0 -4 -28
-53 -62 -110 -86 -140 -129 -228 -254 -522 -6 -14 -10 2 -14 57 -4 67 -8 79
-32 102 -27 24 -28 30 -30 128 -3 201 -4 224 -12 323 -4 55 -19 188 -33 295
-14 107 -29 251 -32 320 -4 69 -10 130 -14 137 -8 13 -36 142 -43 203 -10 76
-11 83 -28 155 -9 39 -19 99 -21 135 -2 38 -12 86 -25 115 -13 28 -31 69 -41
92 -11 23 -19 46 -19 50 -1 4 -9 26 -20 48 -11 22 -19 44 -20 48 0 11 -45 112
-68 154 -121 223 -194 320 -265 352 -59 27 -61 53 -4 62 20 3 40 9 44 13 13
12 31 120 23 129 -18 19 -49 -13 -55 -58 -8 -53 -25 -69 -62 -62 -15 3 -35 1
-44 -3 -8 -5 -40 -6 -70 -3 l-54 5 0 129 c0 89 -4 132 -12 140 -7 7 -13 21
-13 31 0 20 -8 22 -29 9z m39 -131 c0 -11 -4 -20 -10 -20 -5 0 -10 9 -10 20 0
11 5 20 10 20 6 0 10 -9 10 -20z m-3864 -417 c-11 -11 -19 6 -11 24 8 17 8 17
12 0 3 -10 2 -21 -1 -24z m-91 17 c-3 -5 -13 -10 -21 -10 -8 0 -14 5 -14 10 0
6 9 10 21 10 11 0 17 -4 14 -10z m13191 -172 c-22 -18 -65 -47 -95 -63 -116
-62 -184 -86 -83 -29 26 15 61 38 79 51 29 21 122 72 133 73 2 0 -13 -15 -34
-32z m-421 -293 c-33 -30 -65 -54 -71 -55 -6 0 -28 -14 -49 -30 -21 -17 -41
-28 -44 -24 -7 7 90 98 138 129 20 12 43 30 50 39 10 12 17 14 25 6 7 -7 -7
-26 -49 -65z m-335 -293 c0 -13 -58 -77 -64 -71 -7 6 44 79 56 79 4 0 8 -4 8
-8z m-180 -221 c0 -14 -49 -70 -71 -82 -18 -9 -18 -7 2 31 24 46 69 79 69 51z
m-123 -137 c2 -5 -20 -38 -49 -73 -58 -73 -77 -68 -25 6 18 26 36 56 40 66 7
19 28 19 34 1z m3719 -1410 c-3 -9 -6 -20 -6 -25 0 -5 -4 -9 -10 -9 -5 0 -10
11 -10 25 0 16 6 25 16 25 11 0 14 -5 10 -16z"/>
<path d="M9431 4793 c-6 -21 -11 -48 -11 -60 0 -13 -7 -41 -16 -63 -13 -32
-14 -43 -4 -55 21 -25 53 -17 83 20 17 21 37 35 50 35 46 0 68 12 65 34 -3 18
-10 21 -53 21 l-50 0 -3 53 c-3 47 -5 52 -27 52 -19 0 -26 -7 -34 -37z"/>
<path d="M10517 4812 c-8 -9 -18 -36 -22 -60 -9 -54 -14 -56 -140 -61 -65 -2
-89 -29 -33 -35 12 -2 37 -6 54 -10 19 -4 48 -1 74 8 31 11 47 12 60 4 41 -26
63 21 53 114 -6 51 -23 66 -46 40z"/>
<path d="M9977 4814 c-4 -4 -7 -27 -7 -50 0 -24 -5 -46 -11 -50 -6 -4 -47 -8
-91 -9 -73 -2 -123 -18 -87 -29 73 -21 131 -28 154 -18 19 9 30 9 44 0 35 -21
51 -4 50 54 -1 29 -4 64 -8 78 -7 25 -30 37 -44 24z"/>
<path d="M11114 4809 c-39 -14 -42 -149 -4 -149 24 0 40 34 40 83 0 63 -8 77
-36 66z"/>
<path d="M11398 4793 c-10 -3 -20 -18 -24 -38 -8 -44 -3 -66 19 -79 28 -17 50
18 44 68 -6 44 -15 54 -39 49z"/>
<path d="M8807 4783 c-11 -10 -8 -112 3 -134 12 -21 35 -25 45 -8 4 5 4 41 0
80 -6 56 -10 69 -24 69 -10 0 -21 -3 -24 -7z"/>
<path d="M9126 4768 c-9 -12 -16 -34 -16 -49 0 -41 -20 -50 -109 -50 -59 0
-81 -4 -81 -13 0 -24 72 -37 145 -27 77 11 103 29 104 74 0 18 2 43 3 57 4 33
-25 38 -46 8z"/>
<path d="M12631 4772 c-18 -16 -19 -24 -11 -105 5 -49 11 -92 15 -95 3 -3 14
-1 23 4 14 9 18 30 20 106 3 104 -7 124 -47 90z"/>
<path d="M10232 4764 c-14 -25 -2 -73 20 -80 11 -3 23 -2 28 3 14 15 19 70 7
82 -16 16 -44 14 -55 -5z"/>
<path d="M17582 4768 c-17 -17 -15 -84 4 -103 20 -20 32 -16 57 17 18 23 18
27 3 55 -8 17 -23 33 -31 37 -21 8 -19 8 -33 -6z"/>
<path d="M13992 4752 c-30 -25 -33 -72 -6 -107 15 -20 15 -20 30 -1 15 22 19
111 5 120 -5 3 -18 -2 -29 -12z"/>
<path d="M9698 4735 c-15 -32 4 -78 30 -73 13 2 18 15 20 51 3 42 1 47 -18 47
-12 0 -25 -10 -32 -25z"/>
<path d="M10795 4743 c-9 -8 -15 -27 -13 -42 2 -20 9 -27 29 -29 22 -3 27 2
32 24 9 50 -19 77 -48 47z"/>
<path d="M13359 4744 c-19 -23 -23 -106 -6 -129 13 -16 17 -17 31 -6 22 18 23
136 2 144 -8 3 -20 -1 -27 -9z"/>
<path d="M13663 4745 c-15 -11 -23 -28 -25 -58 -3 -39 -5 -42 -36 -47 -39 -6
-42 -22 -6 -32 14 -4 32 -12 40 -19 29 -24 174 10 174 41 0 15 -8 18 -52 16
l-53 -1 -3 50 c-4 60 -11 70 -39 50z"/>
<path d="M7990 4724 c-6 -15 -9 -36 -8 -46 2 -11 -6 -23 -21 -31 -42 -21 -35
-34 21 -40 92 -12 154 -8 168 8 19 22 5 30 -53 30 l-52 0 -1 50 c-1 43 -4 50
-22 53 -16 3 -25 -4 -32 -24z"/>
<path d="M11973 4740 c-20 -8 -23 -17 -23 -64 0 -51 2 -54 28 -59 15 -3 48
-11 75 -18 34 -9 51 -9 58 -2 18 18 0 33 -40 33 l-38 0 -9 57 c-10 60 -16 67
-51 53z"/>
<path d="M14752 4733 c-5 -10 -9 -57 -10 -105 -2 -80 0 -88 19 -99 13 -7 38
-8 63 -4 22 3 65 8 95 11 30 3 60 9 66 14 6 5 20 7 31 4 10 -2 26 0 33 5 13 8
13 16 0 58 -13 40 -19 48 -39 48 -21 0 -25 -5 -25 -30 0 -43 -26 -57 -103 -59
l-67 -1 -5 71 c-6 88 -36 132 -58 87z"/>
<path d="M16881 4741 c-18 -11 -19 -114 -2 -135 12 -14 15 -13 33 9 15 19 29
25 61 25 39 0 40 1 24 17 -9 10 -27 18 -40 18 -16 0 -23 7 -25 25 -4 25 -19
50 -31 50 -3 0 -12 -4 -20 -9z"/>
<path d="M17282 4738 c-7 -7 -12 -18 -12 -25 0 -7 -6 -22 -12 -33 -10 -16 -10
-23 3 -36 15 -14 21 -14 70 2 30 9 60 21 66 27 20 15 5 27 -31 27 -25 0 -35 6
-44 25 -13 28 -22 31 -40 13z"/>
<path d="M18804 4739 c-6 -10 -33 -148 -34 -171 0 -15 37 -8 52 10 24 27 44
138 28 157 -15 18 -36 20 -46 4z"/>
<path d="M12185 4720 c-11 -13 -18 -34 -17 -57 2 -49 16 -62 42 -38 16 15 20
29 18 64 -3 51 -16 60 -43 31z"/>
<path d="M12420 4711 c-5 -11 -10 -34 -10 -51 0 -17 -5 -40 -11 -52 -13 -25
-12 -26 37 -34 50 -8 60 9 39 60 -8 19 -12 42 -9 51 6 15 -11 45 -27 45 -5 0
-13 -9 -19 -19z"/>
<path d="M19083 4711 c-15 -24 -6 -91 14 -98 26 -10 44 18 41 66 -2 37 -7 47
-23 49 -11 1 -25 -6 -32 -17z"/>
<path d="M6995 4700 c-13 -15 -16 -28 -10 -57 9 -49 22 -73 40 -73 23 0 27 18
20 86 -7 68 -19 79 -50 44z"/>
<path d="M8262 4708 c-18 -18 -14 -63 9 -102 12 -20 22 -36 24 -36 2 0 10 14
19 31 31 62 -11 148 -52 107z"/>
<path d="M15244 4708 c-12 -19 -9 -131 4 -155 11 -20 18 -21 65 -16 49 5 87
25 87 45 0 5 -19 6 -44 3 l-43 -7 -7 56 c-9 69 -41 108 -62 74z"/>
<path d="M6653 4698 c-28 -36 -16 -113 15 -94 15 9 35 74 28 91 -7 18 -30 19
-43 3z"/>
<path d="M13150 4702 c-8 -3 -18 -10 -22 -16 -13 -19 -9 -66 7 -72 8 -4 15
-12 15 -20 0 -7 18 -19 40 -25 66 -20 163 19 125 51 -12 10 -18 10 -29 1 -14
-12 -112 -18 -123 -8 -3 3 3 19 13 36 16 27 16 33 4 45 -8 7 -22 11 -30 8z"/>
<path d="M16120 4685 c-5 -14 -10 -38 -10 -52 0 -14 -8 -32 -17 -39 -16 -12
-14 -14 17 -15 38 -1 73 1 78 6 2 2 -2 14 -9 27 -8 12 -14 39 -14 58 0 44 -30
55 -45 15z"/>
<path d="M16391 4696 c-14 -16 -11 -81 3 -81 5 0 18 12 28 26 16 22 18 30 9
48 -14 25 -24 26 -40 7z"/>
<path d="M16615 4701 c-14 -14 -6 -91 9 -91 18 0 38 43 34 71 -3 25 -27 36
-43 20z"/>
<path d="M18468 4699 c-21 -12 -25 -78 -7 -96 7 -7 32 -10 63 -7 102 10 116
14 116 33 0 17 -7 18 -65 13 -61 -4 -65 -3 -65 16 0 25 -10 52 -19 52 -3 0
-14 -5 -23 -11z"/>
<path d="M8564 4692 c-6 -4 -13 -15 -17 -24 -6 -17 -37 -24 -77 -18 -11 1 -12
-1 -4 -10 6 -6 30 -14 53 -17 23 -3 44 -9 46 -13 3 -5 23 1 45 11 42 21 54 49
20 49 -11 0 -23 7 -26 15 -7 16 -23 19 -40 7z"/>
<path d="M11184 4691 c-18 -18 47 -51 100 -51 38 0 82 28 68 42 -10 10 -159
18 -168 9z"/>
<path d="M14508 4689 c-14 -8 -18 -23 -18 -64 0 -94 48 -81 53 14 2 56 -6 67
-35 50z"/>
<path d="M12932 4678 c-14 -14 -16 -57 -3 -77 5 -8 16 -11 31 -6 19 6 21 11
15 43 -10 55 -19 64 -43 40z"/>
<path d="M21337 4684 c-4 -4 -7 -31 -7 -61 0 -38 4 -53 14 -53 23 0 37 26 39
72 2 36 -1 43 -18 46 -12 2 -24 0 -28 -4z"/>
<path d="M6316 4664 c-17 -17 -14 -76 6 -101 11 -14 149 -7 191 11 35 14 32
43 -3 37 -14 -3 -52 -5 -85 -5 -58 -1 -60 0 -63 26 -5 38 -26 53 -46 32z"/>
<path d="M19354 4664 c-3 -10 -12 -36 -20 -57 -18 -48 -18 -71 1 -87 8 -7 15
-21 15 -32 0 -15 5 -18 23 -12 31 9 30 6 29 91 -1 62 -5 80 -21 97 -20 19 -20
19 -27 0z"/>
<path d="M19900 4665 c-14 -17 -15 -63 -2 -110 6 -23 14 -30 33 -30 26 0 27 4
12 99 -9 53 -22 66 -43 41z"/>
<path d="M21551 4666 c-16 -19 -6 -130 13 -145 26 -22 44 10 48 84 3 69 3 70
-23 73 -14 2 -31 -4 -38 -12z"/>
<path d="M10945 4661 c-11 -5 -32 -7 -47 -5 -15 1 -32 -4 -40 -13 -10 -13 -9
-18 7 -30 30 -21 128 7 123 35 -4 19 -17 23 -43 13z"/>
<path d="M15567 4653 c-36 -41 -9 -121 28 -82 23 25 26 55 7 78 -17 22 -18 22
-35 4z"/>
<path d="M20142 4657 c-37 -44 -12 -108 28 -72 22 20 26 55 8 73 -15 15 -23
15 -36 -1z"/>
<path d="M21042 4658 c-5 -7 -13 -27 -16 -45 -6 -27 -4 -32 15 -38 38 -12 67
53 37 83 -15 15 -23 15 -36 0z"/>
<path d="M19681 4646 c-18 -21 -6 -63 19 -71 43 -14 53 19 17 61 -20 23 -24
24 -36 10z"/>
<path d="M20433 4652 c-27 -17 -21 -105 10 -124 18 -11 25 0 32 46 11 69 -6
101 -42 78z"/>
<path d="M20776 4642 c-21 -24 -18 -61 6 -76 34 -21 59 39 30 73 -17 23 -18
23 -36 3z"/>
<path d="M5307 4633 c-4 -3 -7 -24 -7 -45 0 -32 -4 -40 -27 -50 -38 -16 -39
-18 -23 -28 19 -12 107 -13 114 -2 9 16 -11 114 -25 123 -17 11 -24 11 -32 2z"/>
<path d="M15823 4632 c-7 -4 -13 -22 -15 -40 -1 -18 -6 -32 -10 -32 -4 0 -8 4
-8 8 0 11 -112 3 -124 -9 -6 -5 5 -15 26 -23 29 -13 40 -13 73 -2 35 12 40 12
54 -5 10 -12 21 -16 29 -11 17 12 25 78 12 102 -12 22 -18 24 -37 12z"/>
<path d="M21920 4625 c-9 -11 -11 -32 -6 -74 l7 -59 -57 -40 -56 -40 49 -4
c26 -3 53 -1 58 3 6 4 21 9 35 11 17 2 26 10 28 25 2 13 13 29 24 37 25 17 18
45 -13 53 -17 5 -20 12 -17 52 3 40 0 46 -18 49 -11 2 -27 -4 -34 -13z"/>
<path d="M6848 4625 c-3 -3 -37 -7 -77 -8 -131 -6 -101 -42 32 -39 66 1 94 16
76 38 -12 15 -22 17 -31 9z"/>
<path d="M19436 4619 c3 -6 14 -9 24 -6 11 3 21 -1 24 -9 5 -13 10 -12 36 1
16 8 30 18 30 20 0 3 -27 5 -61 5 -41 0 -58 -3 -53 -11z"/>
<path d="M6002 4607 c-34 -42 -18 -80 39 -95 34 -9 112 -2 125 11 13 13 -10
28 -40 26 -75 -5 -86 -1 -86 30 0 31 -22 47 -38 28z"/>
<path d="M18945 4613 c-22 -3 -46 -10 -54 -16 -11 -10 -9 -13 10 -18 43 -12
94 -9 117 7 45 31 29 37 -73 27z"/>
<path d="M7090 4598 c0 -4 7 -5 15 -2 8 4 26 -1 40 -10 14 -9 43 -18 65 -21
49 -5 113 12 107 28 -4 13 -227 18 -227 5z"/>
<path d="M12865 4601 c-6 -5 -25 -11 -44 -13 -39 -3 -52 -23 -22 -33 30 -9
102 15 99 33 -4 19 -21 25 -33 13z"/>
<path d="M14343 4597 c5 -17 51 -31 73 -23 24 9 7 22 -39 29 -27 4 -37 3 -34
-6z"/>
<path d="M5663 4588 c-20 -26 -23 -78 -7 -104 19 -28 36 -31 54 -9 7 8 24 15
39 15 30 1 66 24 57 38 -3 5 -26 7 -51 4 -42 -4 -45 -3 -45 20 0 23 -16 48
-31 48 -4 0 -11 -6 -16 -12z"/>
<path d="M5037 4549 c-19 -28 -14 -82 9 -114 13 -17 16 -18 30 -3 18 18 11 94
-11 124 -11 16 -14 16 -28 -7z"/>
<path d="M4830 4553 c-22 -9 -29 -24 -25 -57 9 -66 41 -107 60 -76 3 6 28 10
54 10 36 0 53 5 67 21 l19 21 -50 -7 c-55 -8 -52 -8 -77 -6 -15 1 -18 10 -18
51 0 50 -2 53 -30 43z"/>
<path d="M3880 4525 c-14 -17 -15 -63 -2 -110 7 -25 15 -31 53 -37 47 -8 83
-2 74 13 -4 5 -17 6 -31 3 -40 -10 -56 12 -52 70 4 70 -14 95 -42 61z"/>
<path d="M4511 4456 c1 -68 14 -91 42 -80 24 9 28 34 14 89 -9 40 -17 51 -34
53 -22 3 -23 0 -22 -62z"/>
<path d="M4175 4470 c-13 -20 6 -50 31 -50 22 0 25 4 22 28 -2 19 -9 28 -25
30 -11 2 -24 -2 -28 -8z"/>
<path d="M4612 4434 c-21 -15 -3 -25 52 -26 48 -1 69 8 63 25 -5 15 -95 16
-115 1z"/>
<path d="M1933 4412 c-22 -14 73 -35 122 -28 24 4 47 11 50 15 11 18 -146 30
-172 13z"/>
<path d="M2856 4412 c-23 -5 -20 -19 7 -26 49 -13 127 -4 127 14 0 8 -105 18
-134 12z"/>
<path d="M4300 4410 c0 -6 9 -10 19 -10 11 0 23 -4 26 -10 14 -22 55 -5 55 23
0 1 -23 3 -50 4 -28 1 -50 -2 -50 -7z"/>
<path d="M1297 4404 c-14 -14 -7 -20 39 -33 34 -10 51 -11 70 -3 37 17 29 32
-18 32 -24 0 -52 3 -63 6 -11 3 -24 2 -28 -2z"/>
<path d="M1623 4397 c4 -13 99 -22 126 -12 27 11 -7 22 -72 23 -42 1 -57 -2
-54 -11z"/>
<path d="M4045 4399 c-10 -15 1 -23 20 -15 9 3 13 10 10 16 -8 13 -22 13 -30
-1z"/>
<path d="M867 4383 c-13 -12 -7 -23 13 -23 11 0 20 7 20 15 0 15 -21 21 -33 8z"/>
<path d="M2430 4381 c0 -13 53 -30 105 -34 21 -1 30 2 30 13 0 11 -9 14 -36
12 -21 -2 -40 1 -44 7 -8 13 -55 15 -55 2z"/>
<path d="M300 4359 c7 -13 21 -19 42 -19 38 0 27 16 -20 29 -30 9 -31 8 -22
-10z"/>
<path d="M21699 4364 c-10 -13 -10 -17 1 -24 17 -10 40 5 40 26 0 19 -25 18
-41 -2z"/>
<path d="M21555 4291 c-40 -10 -75 -29 -75 -42 0 -19 28 -20 76 -4 55 18 76
33 68 46 -6 10 -26 10 -69 0z"/>
<path d="M21335 4160 c-25 -9 -50 -38 -41 -47 10 -10 86 17 86 31 0 18 -20 25
-45 16z"/>
<path d="M11625 4106 c-9 -43 3 -66 20 -43 13 18 9 63 -6 72 -4 3 -11 -10 -14
-29z"/>
<path d="M14247 4073 c-16 -15 -7 -72 12 -83 11 -5 22 -10 25 -10 11 0 6 41
-9 70 -17 32 -18 33 -28 23z"/>
<path d="M21179 4052 c-51 -22 -91 -82 -55 -82 17 0 91 59 91 73 0 13 -16 17
-36 9z"/>
<path d="M18176 3959 c-4 -9 -6 -41 -4 -70 2 -42 7 -55 21 -57 20 -4 21 19 3
93 -9 35 -15 45 -20 34z"/>
<path d="M20961 3864 c-32 -26 -39 -48 -21 -59 10 -6 70 50 70 65 0 21 -21 18
-49 -6z"/>
<path d="M3543 3839 c-18 -18 -17 -89 1 -89 21 0 24 10 17 58 -5 35 -8 41 -18
31z"/>
<path d="M14247 3804 c-9 -15 4 -62 19 -68 11 -4 13 1 8 22 -9 37 -20 56 -27
46z"/>
<path d="M11602 3740 c-16 -26 -15 -57 2 -63 21 -8 38 17 34 49 -4 34 -19 40
-36 14z"/>
<path d="M20749 3710 c-30 -30 -31 -50 -3 -50 20 0 84 52 84 68 0 23 -51 12
-81 -18z"/>
<path d="M18202 3708 c-15 -15 -16 -84 -2 -93 18 -11 40 16 40 50 0 38 -20 61
-38 43z"/>
<path d="M7460 3638 c0 -16 5 -28 10 -28 13 0 13 20 0 40 -8 12 -10 9 -10 -12z"/>
<path d="M14260 3605 c-14 -36 -4 -65 22 -65 18 0 19 4 13 38 -9 51 -22 61
-35 27z"/>
<path d="M3569 3553 c-1 -10 -1 -40 1 -66 1 -32 -3 -54 -14 -66 -18 -19 -11
-61 10 -61 11 0 14 20 14 89 0 49 4 91 9 93 5 2 3 9 -5 16 -12 11 -14 10 -15
-5z"/>
<path d="M20569 3541 c-29 -30 -37 -55 -20 -65 16 -10 35 4 59 40 36 57 10 74
-39 25z"/>
<path d="M11595 3527 c-19 -47 -4 -107 25 -107 27 0 30 11 17 58 -15 51 -34
73 -42 49z"/>
<path d="M18171 3434 c-13 -57 -6 -84 18 -70 12 8 15 126 3 126 -4 0 -13 -25
-21 -56z"/>
<path d="M7451 3393 c-11 -39 -9 -49 7 -39 6 3 8 15 5 25 -3 10 0 22 6 25 14
9 14 26 1 26 -5 0 -14 -17 -19 -37z"/>
<path d="M14264 3406 c-10 -42 -1 -71 24 -74 20 -3 22 1 22 35 0 57 -34 86
-46 39z"/>
<path d="M20392 3384 c-32 -22 -45 -49 -28 -63 10 -8 20 -4 45 19 49 47 36 81
-17 44z"/>
<path d="M11611 3346 c-18 -21 -2 -104 21 -112 27 -8 32 0 29 48 -3 66 -25 94
-50 64z"/>
<path d="M18165 3201 c-9 -16 -1 -72 13 -83 24 -20 35 5 22 51 -10 40 -23 51
-35 32z"/>
<path d="M20221 3183 c-23 -28 -37 -70 -28 -80 13 -12 37 8 57 46 11 22 20 45
20 51 0 19 -29 10 -49 -17z"/>
<path d="M14273 3168 c-15 -19 -26 -130 -14 -148 17 -26 41 10 47 71 6 60 -12
103 -33 77z"/>
<path d="M11624 3135 c-9 -23 0 -50 19 -53 13 -3 17 3 17 26 0 32 -27 52 -36
27z"/>
<path d="M3572 3030 c0 -14 2 -19 5 -12 2 6 2 18 0 25 -3 6 -5 1 -5 -13z"/>
<path d="M3556 2978 c-9 -35 -7 -98 3 -98 14 0 21 30 17 73 -4 46 -11 55 -20
25z"/>
<path d="M7440 2926 c0 -19 4 -38 10 -41 5 -3 9 9 8 30 -2 47 -18 57 -18 11z"/>
<path d="M20072 2937 c-23 -25 -20 -37 9 -37 10 0 21 12 28 30 13 38 -5 41
-37 7z"/>
<path d="M14261 2892 c-19 -36 21 -182 51 -182 10 0 0 142 -13 178 -10 26 -25
28 -38 4z"/>
<path d="M18168 2865 c-3 -14 -2 -28 2 -30 13 -8 31 21 24 39 -9 24 -21 20
-26 -9z"/>
<path d="M3580 2719 c0 -34 15 -69 30 -69 13 0 13 47 0 55 -5 3 -10 15 -10 26
0 10 -4 19 -10 19 -5 0 -10 -14 -10 -31z"/>
<path d="M19884 2725 c-27 -27 -28 -48 -2 -53 14 -3 48 46 48 70 0 16 -21 8
-46 -17z"/>
<path d="M7470 2715 c0 -14 -6 -34 -12 -45 -11 -17 -10 -22 2 -30 8 -5 18 -6
22 -4 12 7 10 104 -2 104 -5 0 -10 -11 -10 -25z"/>
<path d="M11622 2690 c-16 -50 -10 -243 8 -265 13 -15 15 -15 26 -1 8 12 8 37
-3 104 -9 54 -11 94 -5 107 6 13 5 33 -3 55 l-12 35 -11 -35z"/>
<path d="M18165 2700 c-10 -17 4 -62 18 -57 15 5 16 59 0 64 -6 2 -14 -1 -18
-7z"/>
<path d="M18180 2546 c0 -63 7 -86 25 -86 19 0 26 28 19 69 -15 84 -44 96 -44
17z"/>
<path d="M3587 2537 c-5 -14 8 -45 17 -37 2 3 6 14 8 24 4 22 -17 33 -25 13z"/>
<path d="M19762 2532 c-30 -23 -45 -77 -26 -93 9 -7 18 -8 23 -3 10 11 35 103
30 109 -2 2 -14 -4 -27 -13z"/>
<path d="M7460 2472 c0 -48 29 -106 45 -91 3 4 2 35 -2 70 -6 49 -12 65 -25
67 -15 3 -18 -4 -18 -46z"/>
<path d="M14260 2451 c0 -5 5 -13 10 -16 6 -3 10 -2 10 4 0 5 -4 13 -10 16 -5
3 -10 2 -10 -4z"/>
<path d="M19636 2348 c-18 -28 -19 -74 -1 -72 21 2 39 51 29 75 l-11 23 -17
-26z"/>
<path d="M11632 2278 c2 -30 8 -43 18 -43 20 0 27 65 8 76 -24 16 -29 9 -26
-33z"/>
<path d="M14250 2295 c0 -14 5 -25 11 -25 6 0 8 -7 5 -17 -7 -16 -6 -17 9 -2
13 13 14 20 4 42 -15 34 -29 35 -29 2z"/>
<path d="M18192 2291 c-9 -26 -4 -81 8 -81 14 0 23 81 11 93 -7 7 -13 4 -19
-12z"/>
<path d="M3561 2282 c-11 -21 -6 -52 9 -52 11 0 20 54 10 64 -4 4 -13 -1 -19
-12z"/>
<path d="M7482 2168 c-17 -17 -15 -73 3 -88 24 -20 37 1 33 50 -3 46 -16 58
-36 38z"/>
<path d="M11635 2129 c-8 -24 16 -55 34 -45 18 11 13 44 -8 56 -16 8 -21 6
-26 -11z"/>
<path d="M14256 2112 c-11 -33 2 -114 17 -109 12 4 11 55 -2 104 -8 28 -8 28
-15 5z"/>
<path d="M19506 2087 c-25 -62 -27 -74 -12 -87 9 -6 21 -10 28 -8 12 4 40 107
32 120 -12 18 -35 6 -48 -25z"/>
<path d="M18193 2062 c1 -43 12 -49 31 -19 8 13 6 22 -11 39 l-22 22 2 -42z"/>
<path d="M3544 2065 c-4 -8 -3 -23 0 -32 6 -15 8 -15 16 -3 13 20 12 50 0 50
-6 0 -13 -7 -16 -15z"/>
<path d="M13685 2020 c-13 -14 -15 -26 -10 -47 5 -15 9 -113 10 -216 3 -197
12 -247 45 -247 15 0 20 -11 25 -55 8 -58 14 -69 38 -59 12 4 13 12 5 42 -13
49 -26 194 -33 362 -5 149 -10 184 -32 217 -19 28 -25 28 -48 3z"/>
<path d="M17061 2008 c-12 -35 -15 -94 -15 -323 -1 -218 4 -265 29 -265 8 0
22 12 32 28 9 15 30 39 46 53 33 30 34 64 0 64 -12 0 -24 3 -28 7 -4 4 -6 102
-6 218 2 214 -2 240 -35 240 -8 0 -18 -10 -23 -22z"/>
<path d="M3507 1976 c-3 -8 -3 -17 0 -20 7 -7 33 13 33 25 0 15 -27 10 -33 -5z"/>
<path d="M15874 1975 c-6 -15 -4 -56 15 -314 12 -162 19 -210 34 -228 17 -23
37 -15 37 15 0 15 5 33 12 40 8 8 8 15 -1 26 -8 9 -17 92 -25 225 -11 178 -16
214 -31 231 -22 24 -34 25 -41 5z"/>
<path d="M14267 1923 c-11 -10 -8 -58 4 -70 16 -16 39 -5 39 19 0 38 -26 69
-43 51z"/>
<path d="M7455 1912 c-6 -4 -15 -26 -21 -49 -9 -33 -8 -47 1 -60 23 -31 45 1
45 63 0 53 -5 61 -25 46z"/>
<path d="M11653 1912 c-15 -9 -43 -89 -43 -124 0 -15 -5 -30 -10 -33 -13 -8
-6 -323 7 -335 13 -12 102 -20 108 -10 3 5 1 28 -4 52 -15 64 -22 186 -11 168
7 -10 10 23 10 98 0 94 -3 120 -20 152 -11 22 -21 40 -23 40 -1 0 -7 -4 -14
-8z"/>
<path d="M18125 1889 c-4 -5 -4 -40 0 -77 4 -37 8 -83 10 -102 2 -19 8 -75 14
-125 6 -49 11 -114 11 -143 0 -85 31 -122 52 -62 5 17 19 35 30 41 13 7 17 16
12 27 -4 9 -8 109 -10 222 -3 166 -7 207 -19 219 -13 13 -18 14 -37 2 -16 -10
-23 -10 -26 -2 -5 14 -29 14 -37 0z"/>
<path d="M10612 1833 c-10 -19 -6 -508 3 -524 9 -13 51 -11 63 4 7 8 8 45 4
107 -4 52 -6 158 -6 235 1 112 -2 146 -14 168 -19 31 -37 35 -50 10z"/>
<path d="M9492 1817 c-15 -18 -9 -436 7 -504 12 -52 28 -67 56 -57 11 4 13 13
9 28 -4 11 -8 42 -9 69 -1 27 -7 53 -13 59 -7 7 -8 17 -3 27 5 9 9 51 9 93 0
42 3 118 7 168 7 85 6 93 -13 111 -25 22 -36 24 -50 6z"/>
<path d="M18454 1763 c-4 -16 -15 -43 -25 -62 -32 -61 0 -83 45 -31 26 31 43
90 31 109 -13 22 -44 12 -51 -16z"/>
<path d="M5788 1769 c-15 -8 -17 -38 -17 -307 0 -164 3 -311 7 -327 5 -19 16
-31 28 -33 18 -3 19 5 20 165 0 92 2 232 4 309 3 94 1 146 -7 155 -6 8 -12 22
-14 31 -3 13 -8 14 -21 7z"/>
<path d="M7002 1753 c-6 -10 -10 -141 -11 -290 0 -248 1 -273 17 -282 10 -5
27 -5 41 0 21 8 22 13 15 42 -5 17 -9 142 -9 277 0 135 -4 251 -8 258 -12 17
-35 15 -45 -5z"/>
<path d="M13956 1726 c-14 -24 -26 -52 -26 -61 0 -28 29 -29 56 0 19 21 24 36
22 63 -4 50 -21 50 -52 -2z"/>
<path d="M14226 1754 c-17 -16 -23 -114 -7 -114 11 0 61 76 61 93 0 14 -19 37
-31 37 -4 0 -15 -7 -23 -16z"/>
<path d="M18757 1752 c-22 -25 -22 -88 0 -100 19 -11 62 4 64 22 8 79 -26 120
-64 78z"/>
<path d="M12927 1753 c-11 -18 -18 -74 -12 -93 9 -29 32 -25 50 10 20 38 19
53 -3 73 -20 19 -29 21 -35 10z"/>
<path d="M13164 1752 c-10 -6 -34 -73 -34 -94 0 -5 13 -8 29 -8 33 0 35 3 45
41 7 31 -21 74 -40 61z"/>
<path d="M19031 1747 c-13 -13 -15 -103 -3 -111 21 -13 64 58 56 92 -7 23 -37
35 -53 19z"/>
<path d="M7417 1720 c-16 -26 -17 -38 -7 -87 20 -110 55 -96 52 22 -2 103 -13
119 -45 65z"/>
<path d="M12160 1720 c-15 -15 -20 -33 -20 -69 0 -28 4 -53 10 -56 5 -3 23 2
40 12 27 15 30 23 30 65 0 37 -4 50 -20 58 -15 8 -24 6 -40 -10z"/>
<path d="M13447 1733 c-11 -10 -8 -111 3 -118 30 -18 62 64 41 104 -12 21 -31
27 -44 14z"/>
<path d="M15583 1728 c-11 -15 -33 -88 -33 -112 0 -46 65 9 72 62 5 38 -22 72
-39 50z"/>
<path d="M16757 1726 c-29 -30 -35 -116 -8 -116 30 0 58 86 38 114 -12 17 -15
17 -30 2z"/>
<path d="M17314 1715 c-17 -25 -16 -76 1 -82 20 -6 55 37 55 66 0 39 -34 49
-56 16z"/>
<path d="M3119 1728 c0 -2 -3 -75 -7 -163 -8 -184 -7 -374 3 -457 7 -58 27
-90 46 -71 12 12 16 624 4 666 -4 17 -14 27 -26 27 -10 0 -19 -1 -20 -2z"/>
<path d="M12420 1709 c-12 -22 -5 -95 10 -104 11 -7 36 31 45 68 12 48 -33 78
-55 36z"/>
<path d="M15315 1713 c-14 -34 -14 -88 0 -107 18 -24 45 -14 45 18 0 14 5 36
11 50 9 20 9 29 -1 41 -17 20 -46 19 -55 -2z"/>
<path d="M16122 1698 c-9 -32 3 -78 19 -78 27 0 39 15 39 49 0 63 -43 85 -58
29z"/>
<path d="M16408 1704 c-14 -31 -1 -59 28 -59 21 0 41 43 31 69 -10 25 -46 19
-59 -10z"/>
<path d="M17622 1707 c-7 -7 -13 -28 -14 -47 -3 -29 0 -34 27 -41 37 -11 55 8
47 49 -9 49 -37 67 -60 39z"/>
<path d="M11914 1697 c-3 -8 -4 -30 -2 -49 2 -25 8 -33 22 -33 28 0 42 28 30
62 -10 31 -41 43 -50 20z"/>
<path d="M17930 1681 c-13 -25 -13 -68 0 -76 13 -8 46 11 54 30 8 22 -11 65
-28 65 -9 0 -20 -9 -26 -19z"/>
<path d="M15030 1665 c-14 -37 -13 -49 9 -62 26 -16 43 5 39 49 -4 43 -34 51
-48 13z"/>
<path d="M3526 1665 c-10 -26 -7 -123 3 -130 17 -10 32 34 29 87 -3 51 -20 74
-32 43z"/>
<path d="M14516 1651 c-16 -30 -7 -51 24 -51 39 0 54 52 21 70 -27 14 -29 14
-45 -19z"/>
<path d="M10868 1652 c-8 -9 -21 -39 -27 -66 -10 -40 -10 -51 1 -57 37 -24 58
5 58 80 0 56 -10 69 -32 43z"/>
<path d="M11311 1657 c-5 -7 -12 -31 -14 -54 -5 -36 -2 -43 16 -49 42 -13 65
66 28 98 -15 13 -22 14 -30 5z"/>
<path d="M1798 1654 c-4 -3 -4 -11 -2 -18 3 -7 0 -25 -6 -40 -15 -42 -25 -593
-10 -611 37 -45 59 39 53 210 -2 66 -5 196 -6 289 -2 158 -8 192 -29 170z"/>
<path d="M9771 1651 c-20 -13 -20 -81 1 -94 21 -14 33 -4 42 34 7 33 -21 74
-43 60z"/>
<path d="M11080 1645 c-10 -12 -11 -28 -4 -63 7 -37 13 -47 29 -47 16 0 21 9
26 45 10 68 -19 104 -51 65z"/>
<path d="M10050 1625 c-16 -19 -4 -125 14 -125 32 0 50 28 47 71 -4 64 -32 89
-61 54z"/>
<path d="M10333 1618 c-5 -7 -9 -26 -9 -43 1 -25 6 -31 27 -33 33 -4 44 20 27
56 -15 30 -31 38 -45 20z"/>
<path d="M665 1593 c3 -41 3 -41 25 -53 25 -13 60 -4 60 16 0 16 -26 19 -35 4
-11 -17 -35 9 -35 36 0 13 -4 24 -9 24 -4 0 -7 -12 -6 -27z"/>
<path d="M8892 1608 c-12 -12 -17 -104 -6 -132 8 -20 28 -20 48 0 16 16 22 96
10 128 -7 19 -35 21 -52 4z"/>
<path d="M9195 1589 c-9 -26 16 -55 40 -45 25 9 16 60 -12 64 -15 2 -23 -3
-28 -19z"/>
<path d="M8606 1577 c-14 -10 -17 -21 -11 -45 8 -39 18 -46 45 -32 23 12 27
59 8 78 -15 15 -20 15 -42 -1z"/>
<path d="M7337 1555 c-9 -8 -19 -35 -22 -59 -11 -74 2 -100 38 -73 25 18 35
118 14 135 -12 10 -18 10 -30 -3z"/>
<path d="M7649 1516 c-16 -34 -3 -98 19 -94 28 5 48 52 36 85 -13 37 -40 42
-55 9z"/>
<path d="M7972 1493 c3 -39 20 -51 48 -34 22 15 1 65 -28 69 -21 3 -23 0 -20
-35z"/>
<path d="M6714 1512 c-19 -12 -44 -70 -38 -86 7 -19 37 -21 52 -3 28 34 17
109 -14 89z"/>
<path d="M6372 1488 c-12 -12 -17 -100 -6 -111 12 -11 41 11 53 41 21 51 -14
103 -47 70z"/>
<path d="M6060 1464 c-10 -11 -10 -20 -1 -40 15 -33 45 -28 49 8 4 34 -29 56
-48 32z"/>
<path d="M5186 1451 c-14 -15 -16 -29 -11 -60 9 -52 32 -73 51 -46 18 24 18
84 0 108 -17 21 -19 21 -40 -2z"/>
<path d="M5477 1453 c-12 -12 -7 -60 7 -72 31 -26 58 16 40 63 -6 16 -35 22
-47 9z"/>
<path d="M3801 1436 c-6 -8 -11 -31 -9 -52 1 -22 -1 -49 -6 -62 -11 -33 19
-40 50 -12 19 18 24 34 24 70 0 62 -30 91 -59 56z"/>
<path d="M1095 1426 c-17 -12 -19 -24 -17 -78 4 -71 21 -100 50 -82 13 9 17
26 17 77 0 79 -17 107 -50 83z"/>
<path d="M4914 1415 c-14 -35 24 -68 51 -45 11 9 11 17 3 36 -12 27 -45 32
-54 9z"/>
<path d="M2760 1405 c-7 -8 -15 -35 -18 -60 -4 -36 -1 -46 12 -51 27 -10 40
12 41 68 0 53 -13 70 -35 43z"/>
<path d="M3456 1412 c-3 -5 -8 -31 -11 -58 -5 -38 -3 -53 8 -62 47 -39 86 63
45 116 -12 14 -34 16 -42 4z"/>
<path d="M749 1394 c-16 -20 -20 -106 -5 -116 28 -19 36 -7 36 56 0 69 -9 86
-31 60z"/>
<path d="M4155 1380 c-19 -36 -19 -41 -1 -65 14 -19 15 -19 35 -1 23 21 28 65
9 84 -18 18 -26 15 -43 -18z"/>
<path d="M1400 1379 c-18 -32 -3 -119 20 -119 14 0 19 12 24 60 4 33 4 65 1
70 -10 17 -34 11 -45 -11z"/>
<path d="M2080 1374 c-6 -14 -10 -43 -10 -65 0 -36 2 -40 22 -37 19 2 24 12
30 53 4 28 6 56 3 63 -8 21 -35 13 -45 -14z"/>
<path d="M2421 1386 c-7 -8 -15 -35 -18 -58 -3 -24 -10 -49 -16 -56 -8 -11 -5
-19 13 -33 32 -24 36 -24 54 4 21 32 17 151 -5 155 -9 2 -21 -4 -28 -12z"/>
<path d="M16963 1063 c-7 -2 -13 -15 -13 -27 0 -24 -37 -123 -52 -140 -14 -17
-9 -45 11 -56 11 -5 52 -10 91 -10 48 0 72 -4 75 -12 2 -7 6 -49 9 -93 6 -111
25 -157 53 -133 12 9 13 32 7 123 -5 79 -3 114 5 119 6 4 33 7 61 8 55 0 72
13 60 44 -8 20 -12 21 -59 11 -29 -5 -55 -7 -59 -3 -3 4 -5 36 -4 72 4 78 -3
104 -28 104 -28 0 -33 -16 -31 -95 3 -86 -8 -100 -70 -92 -22 3 -43 8 -46 11
-3 3 2 28 11 55 29 89 21 131 -21 114z"/>
<path d="M10762 1007 c-6 -7 -12 -53 -14 -103 l-3 -89 -50 -17 c-62 -21 -115
-22 -140 -4 -19 13 -19 15 -1 68 22 64 16 108 -14 108 -14 0 -22 -11 -31 -42
-6 -24 -17 -58 -25 -76 -20 -47 -17 -86 7 -108 24 -22 112 -25 191 -7 l47 10
-6 -113 -6 -113 27 -12 c38 -18 45 -3 39 90 -5 87 16 146 52 146 16 0 20 7 20
35 0 31 -3 35 -25 35 -25 0 -25 0 -25 100 0 83 -3 100 -16 103 -9 1 -21 -3
-27 -11z"/>
<path d="M13637 960 c-30 -24 -36 -57 -11 -67 8 -3 25 3 37 15 18 16 30 19 62
13 36 -6 40 -9 43 -39 2 -23 -4 -41 -22 -63 -14 -17 -26 -35 -26 -39 0 -16
-63 -82 -87 -91 -36 -13 -30 -47 10 -53 17 -3 62 -10 98 -16 89 -14 162 -13
183 3 29 21 0 35 -87 41 -73 5 -117 18 -117 34 0 4 20 28 45 54 98 104 99 218
3 218 -18 0 -49 3 -68 6 -27 4 -42 1 -63 -16z"/>
<path d="M6354 750 c-24 -9 -36 -33 -28 -54 4 -11 11 -11 42 0 46 17 118 18
128 2 4 -7 -2 -18 -17 -27 -37 -25 -89 -72 -89 -82 0 -16 36 -28 100 -33 83
-7 100 -23 66 -59 -25 -27 -143 -67 -197 -67 -27 0 -47 -26 -32 -41 11 -11
184 8 197 21 6 6 18 10 27 10 23 0 82 63 91 97 10 37 -7 62 -58 84 -24 11 -44
22 -44 25 0 3 11 20 24 37 27 35 35 65 23 85 -9 14 -198 16 -233 2z"/>
<path d="M2377 716 c-63 -17 -90 -41 -74 -67 9 -15 19 -18 42 -13 17 3 37 12
45 20 38 33 170 26 170 -9 0 -16 -66 -68 -98 -76 -42 -12 -37 -30 15 -52 66
-29 83 -47 83 -84 0 -63 -134 -144 -214 -129 -32 5 -36 4 -36 -15 0 -11 6 -21
13 -22 6 0 26 -2 42 -3 17 -2 34 0 39 2 6 3 27 6 47 7 66 3 159 98 159 162 0
10 -7 28 -15 39 -8 12 -12 24 -9 27 3 3 -3 12 -15 19 -29 18 -26 34 10 75 51
58 26 106 -61 118 -25 3 -56 8 -70 10 -14 2 -46 -2 -73 -9z"/>
</g>
</svg>
