<?xml version="1.0" standalone="no"?>
<!DOCTYPE svg PUBLIC "-//W3C//DTD SVG 20010904//EN"
 "http://www.w3.org/TR/2001/REC-SVG-20010904/DTD/svg10.dtd">
<svg version="1.0" xmlns="http://www.w3.org/2000/svg"
 width="309.000000pt" height="360.000000pt" viewBox="0 0 309.000000 360.000000"
 preserveAspectRatio="xMidYMid meet">
<metadata>
Created by potrace 1.13, written by Peter Selinger 2001-2015
</metadata>
<g transform="translate(0.000000,360.000000) scale(0.100000,-0.100000)"
stroke="none">
<path d="M2530 2764 c-42 -9 -96 -13 -150 -10 -267 16 -443 16 -720 1 -441
-26 -637 -32 -1048 -36 -250 -1 -375 -6 -381 -13 -5 -6 -12 -78 -16 -161 -4
-91 -14 -185 -27 -240 -19 -85 -26 -279 -14 -355 14 -81 27 -333 22 -440 -3
-69 -6 -212 -7 -318 -2 -158 0 -196 12 -203 8 -5 11 -9 6 -9 -4 0 -1 -14 8
-30 10 -19 24 -30 38 -31 47 -2 102 3 112 11 6 4 17 8 25 9 92 7 121 12 145
21 43 16 505 11 630 -7 55 -8 150 -18 210 -24 61 -5 150 -14 199 -20 49 -6
157 -10 240 -8 166 3 389 -7 506 -22 79 -11 565 -13 581 -4 5 4 9 36 9 73 0
37 7 94 15 127 18 75 21 664 4 897 -17 233 -17 577 0 681 12 76 12 90 0 101
-22 21 -315 28 -399 10z m334 -34 c11 -11 -78 -24 -101 -16 -9 4 -298 7 -642
8 -372 1 -600 4 -561 9 36 5 286 7 557 6 271 -1 495 2 499 5 9 9 237 -2 248
-12z m33 -77 c-2 -16 -4 -3 -4 27 0 30 2 43 4 28 2 -16 2 -40 0 -55z m-1438
58 c8 -5 -10 -11 -53 -15 -36 -4 -70 -5 -75 -2 -5 4 -21 2 -35 -4 -14 -5 -39
-7 -56 -4 -59 12 -28 23 73 27 56 1 109 4 117 5 8 1 21 -2 29 -7z m-314 -31
c-27 -4 -229 -8 -447 -8 -348 -1 -400 -3 -422 -17 -28 -18 -46 -4 -26 20 11
13 82 15 479 14 256 -1 444 -5 416 -9z m1245 -88 c0 -10 -26 -39 -66 -72 -55
-46 -50 -70 16 -70 16 0 32 -4 35 -10 3 -5 13 -10 22 -10 9 0 31 -11 49 -25
40 -30 47 -31 83 -4 15 11 47 23 69 26 47 6 48 7 27 58 -12 28 -13 40 -4 51 9
11 17 6 46 -29 19 -23 43 -52 53 -64 36 -42 43 -64 30 -89 -7 -12 -10 -36 -7
-52 8 -39 -29 -113 -64 -130 -55 -25 -82 -25 -127 5 -23 15 -45 36 -48 45 -6
21 -44 24 -44 4 0 -30 -55 -56 -119 -56 -85 0 -123 24 -155 97 -30 69 -10 139
64 223 22 24 40 48 40 52 0 4 4 8 10 8 5 0 20 11 34 25 24 24 56 34 56 17z
m-1618 -69 c18 -21 59 -63 91 -94 48 -47 60 -65 73 -115 8 -32 13 -68 10 -80
-7 -25 -39 -64 -55 -64 -6 0 -11 -4 -11 -9 0 -17 -81 -41 -138 -41 -50 0 -63
4 -89 28 -18 15 -31 36 -30 46 1 10 -4 21 -10 23 -7 3 -13 -2 -13 -11 0 -20
-45 -64 -74 -72 -38 -9 -106 15 -147 53 -38 36 -38 36 -32 97 4 43 14 75 34
107 16 25 29 51 29 57 0 7 5 12 10 12 6 0 10 9 10 20 0 11 4 20 10 20 5 0 12
11 16 25 4 16 13 25 25 25 24 0 24 0 -6 -54 -32 -58 -32 -66 7 -66 49 0 103
-29 123 -66 10 -19 21 -34 24 -34 3 0 18 15 33 34 17 21 46 40 77 52 61 22 64
37 16 87 -35 36 -44 57 -25 57 5 0 24 -17 42 -37z m2107 -145 c-1 -96 -4 -125
-8 -87 -6 57 -2 229 5 229 2 0 3 -64 3 -142z m-2 -225 c-3 -10 -5 -4 -5 12 0
17 2 24 5 18 2 -7 2 -21 0 -30z m29 -307 c5 -138 3 -187 -5 -182 -7 5 -11 67
-11 193 0 103 2 184 5 181 3 -2 8 -89 11 -192z m-2476 166 c0 -5 -11 -14 -25
-20 -14 -6 -25 -17 -25 -24 0 -8 -5 -6 -11 4 -7 13 -6 22 3 33 14 15 58 21 58
7z m-223 -49 c-3 -10 -5 -4 -5 12 0 17 2 24 5 18 2 -7 2 -21 0 -30z m902 25
c84 -8 105 -8 112 3 7 11 12 12 29 2 11 -7 48 -13 82 -13 35 0 90 -7 123 -15
33 -8 90 -14 127 -15 69 0 98 -14 50 -23 -28 -6 -173 12 -182 22 -3 3 -49 7
-103 9 l-98 3 -13 -33 -14 -33 -4 30 c-3 29 -4 30 -59 30 -31 0 -63 6 -72 13
-13 11 -20 11 -41 -3 -14 -10 -26 -22 -26 -29 0 -6 -8 1 -18 17 -20 32 -24 33
-58 10 -25 -16 -27 -16 -36 0 -10 19 -58 23 -75 6 -8 -8 -13 -8 -17 0 -5 7
-43 11 -98 11 -75 0 -93 -3 -104 -17 -13 -17 -13 -17 -14 0 0 14 -9 17 -52 17
-39 0 -49 3 -38 10 19 13 457 11 599 -2z m-592 -50 c-3 -8 -6 -5 -6 6 -1 11 2
17 5 13 3 -3 4 -12 1 -19z m102 -45 c0 -21 -4 -47 -9 -58 -6 -14 -9 -4 -9 38
-1 32 3 57 9 57 6 0 10 -17 9 -37z m1305 18 c10 -8 100 -14 358 -27 47 -2 98
0 113 6 19 7 31 7 40 0 9 -7 21 -7 39 0 15 5 85 10 156 10 120 0 129 -1 135
-20 9 -29 -4 -45 -20 -24 -6 10 -25 18 -40 19 -22 1 -31 -6 -41 -30 -8 -19
-13 -23 -14 -12 0 26 -44 43 -75 29 -24 -11 -25 -14 -25 -121 0 -69 -4 -112
-11 -117 -8 -4 -10 27 -8 107 2 63 0 120 -4 127 -5 6 -25 12 -46 12 -40 0 -62
-13 -79 -45 -11 -19 -11 -18 -12 8 0 26 -2 27 -49 27 l-48 0 -9 -62 -8 -63 -6
64 -5 64 -61 0 c-33 0 -66 -3 -72 -7 -7 -4 -12 -32 -12 -66 0 -32 -5 -62 -11
-65 -7 -5 -9 17 -8 65 2 53 -2 74 -12 81 -21 13 -85 11 -97 -4 -6 -7 -12 -69
-14 -140 -3 -143 -1 -149 62 -145 35 3 35 3 38 56 4 66 22 69 22 3 0 -28 4
-53 10 -56 18 -11 105 -16 119 -7 8 6 16 40 21 88 7 82 12 72 14 -31 l1 -60
44 -3 c31 -2 49 2 63 15 19 17 20 17 30 0 10 -18 31 -20 201 -17 26 0 47 -4
47 -10 0 -5 22 -10 50 -10 29 0 50 5 50 11 0 5 4 8 9 4 5 -3 9 -71 9 -151 0
-116 -3 -147 -14 -151 -8 -3 -20 -1 -27 5 -7 6 -42 11 -77 11 -74 0 -88 1
-150 4 l-45 2 -5 -60 c-3 -34 -8 -53 -12 -44 -3 9 -4 34 -1 56 8 59 -19 73
-141 72 -84 0 -97 -3 -119 -23 -24 -22 -24 -22 -33 -2 -11 26 -57 33 -88 12
-21 -13 -26 -13 -42 -1 -25 19 -53 19 -61 -1 -5 -15 -7 -15 -15 0 -12 22 -93
22 -102 0 -3 -9 -7 -46 -8 -82 l-2 -67 -3 60 c-5 97 -9 105 -47 105 -29 0 -34
-4 -42 -32 l-8 -33 -3 31 -4 32 -82 5 c-45 4 -93 8 -107 11 -108 18 -118 18
-129 -1 -6 -10 -11 -12 -11 -6 0 7 -13 19 -30 28 -24 12 -66 15 -220 14 -167
-2 -190 -4 -190 -18 -1 -14 -2 -13 -11 2 -8 14 -24 18 -67 18 -117 1 -160 4
-168 12 -11 11 -102 8 -109 -3 -5 -8 -11 -7 -21 1 -12 10 -136 15 -216 10 -5
-1 -8 -9 -9 -18 0 -10 -5 -4 -10 12 -5 17 -7 39 -5 50 3 11 6 88 7 170 1 83 5
155 10 160 4 6 12 40 18 75 l9 65 -1 -72 c-1 -40 2 -75 5 -78 10 -11 76 -18
102 -11 23 6 26 12 28 59 l2 52 3 -51 c3 -43 8 -53 30 -65 23 -12 27 -11 43 9
18 22 19 22 25 2 10 -30 72 -28 85 3 9 22 9 22 9 1 1 -25 36 -38 75 -28 13 3
40 1 60 -4 21 -6 38 -7 41 -1 4 5 20 2 37 -7 17 -9 40 -13 51 -10 11 3 35 -1
53 -9 19 -8 50 -14 71 -15 104 -3 132 -6 139 -12 4 -5 25 -8 46 -8 37 0 38 1
40 38 l1 37 4 -37 c4 -33 8 -38 38 -44 69 -13 70 -12 71 119 0 64 4 120 7 124
4 3 7 -47 7 -112 0 -96 3 -122 17 -137 20 -23 80 -24 105 -2 16 16 18 16 24 0
4 -11 18 -16 45 -16 33 0 40 4 45 25 8 31 22 32 26 3 3 -20 9 -23 43 -23 38 0
40 2 46 35 l6 35 2 -37 c1 -27 6 -38 16 -38 8 0 15 -4 15 -10 0 -5 22 -10 50
-10 46 0 50 2 57 28 4 15 8 79 8 142 l0 114 -75 12 c-41 7 -92 13 -112 13 -22
1 -38 6 -38 12 0 14 176 5 194 -10z m-333 -93 c-3 -114 -11 -112 -11 2 0 51 3
90 6 87 4 -4 6 -44 5 -89z m-239 47 c-6 -34 -12 -32 -12 6 0 16 4 28 9 25 4
-3 6 -17 3 -31z m-645 -47 c-2 -13 -4 -5 -4 17 -1 22 1 32 4 23 2 -10 2 -28 0
-40z m290 -45 c-2 -16 -4 -3 -4 27 0 30 2 43 4 28 2 -16 2 -40 0 -55z m123 47
c0 -5 -4 -10 -10 -10 -5 0 -10 5 -10 10 0 6 5 10 10 10 6 0 10 -4 10 -10z
m710 -47 c-4 -56 -5 -57 -8 -14 -3 38 2 71 10 71 2 0 1 -26 -2 -57z m-710 -23
c0 -21 -4 -42 -10 -45 -6 -4 -10 13 -10 45 0 32 4 49 10 45 6 -3 10 -24 10
-45z m1520 -86 c-7 -68 -7 -67 -8 31 0 64 3 89 7 69 5 -17 5 -62 1 -100z
m-1735 97 c3 -5 1 -12 -5 -16 -5 -3 -10 1 -10 9 0 18 6 21 15 7z m1492 -118
c-3 -10 -5 -4 -5 12 0 17 2 24 5 18 2 -7 2 -21 0 -30z m522 -165 c-1 -135 -3
-162 -10 -123 -5 28 -7 64 -4 80 2 17 1 64 -4 105 -8 77 -5 110 10 110 5 0 8
-78 8 -172z m-1642 -215 c-3 -10 -5 -2 -5 17 0 19 2 27 5 18 2 -10 2 -26 0
-35z m670 -105 c-2 -24 -4 -7 -4 37 0 44 2 63 4 43 2 -21 2 -57 0 -80z m-1207
15 c0 -56 -10 -68 -27 -30 -12 28 4 118 18 96 5 -8 9 -38 9 -66z m1917 0 c-2
-16 -4 -5 -4 22 0 28 2 40 4 28 2 -13 2 -35 0 -50z m-1157 37 c0 -5 -5 -10
-11 -10 -5 0 -7 5 -4 10 3 6 8 10 11 10 2 0 4 -4 4 -10z m541 -65 c0 -31 -2
-59 -5 -63 -3 -3 -6 25 -6 63 0 38 3 66 6 63 3 -4 5 -32 5 -63z m-644 -22 c-2
-16 -4 -5 -4 22 0 28 2 40 4 28 2 -13 2 -35 0 -50z m-539 25 c-2 -13 -7 -23
-13 -23 -5 0 -11 10 -13 23 -2 15 2 22 13 22 11 0 15 -7 13 -22z m1424 -20
c-10 -22 -11 -21 -11 12 -1 26 2 31 11 22 8 -8 8 -17 0 -34z m-1005 0 c-3 -8
-6 -5 -6 6 -1 11 2 17 5 13 3 -3 4 -12 1 -19z m-921 -27 c26 -20 22 -31 -12
-31 -36 0 -54 11 -54 31 0 25 34 25 66 0z m312 -16 c3 -3 -12 -6 -34 -6 -21
-1 -61 -3 -89 -4 -27 -1 -70 1 -95 4 -42 5 -43 5 -15 11 34 7 226 3 233 -5z
m140 -1 c12 -2 22 -1 22 3 0 5 33 8 73 7 139 -2 147 -3 147 -19 0 -13 -9 -15
-52 -10 -29 4 -63 8 -75 11 -12 2 -28 -3 -37 -11 -16 -17 -72 -20 -81 -5 -3 6
-26 10 -50 10 -24 0 -51 3 -61 7 -16 6 -16 7 2 14 18 7 56 5 112 -7z m720 -9
c11 -23 9 -27 -13 -37 -33 -15 -54 2 -31 25 9 9 16 20 16 26 0 20 17 11 28
-14z m922 10 c0 -19 70 -21 88 -3 9 9 12 7 12 -9 0 -17 8 -22 45 -27 24 -4 47
-11 50 -17 4 -5 24 -9 46 -9 27 0 38 -4 33 -11 -7 -12 -80 -4 -99 10 -26 22
-271 30 -391 13 -95 -14 -652 -8 -667 7 -8 8 -4 11 16 11 17 0 30 8 38 22 l12
23 10 -23 c7 -16 19 -22 43 -22 18 0 34 6 37 13 3 9 7 9 20 -2 24 -19 396 -19
409 1 8 10 11 10 15 1 5 -15 79 -18 87 -4 4 5 38 9 78 9 55 0 73 4 80 16 11
20 38 21 38 1z m447 -17 c-3 -7 -5 -2 -5 12 0 14 2 19 5 13 2 -7 2 -19 0 -25z
m-1633 4 c99 1 151 -3 159 -11 8 -8 -24 -11 -130 -11 -173 0 -236 7 -220 25 8
8 18 10 28 4 9 -5 83 -8 163 -7z m-1029 -32 c3 -5 -1 -10 -10 -10 -9 0 -13 5
-10 10 3 6 8 10 10 10 2 0 7 -4 10 -10z m780 -30 c11 -5 56 -11 100 -14 290
-16 386 -24 392 -29 13 -14 -261 -10 -287 3 -29 15 -202 25 -420 24 -263 -1
-394 -11 -439 -31 -21 -10 -49 -13 -73 -10 -49 7 -55 12 -37 33 10 12 24 15
54 11 22 -2 90 0 150 5 302 25 515 28 560 8z m1861 -108 c-12 -11 -15 5 -8 44
l7 39 3 -39 c2 -21 1 -41 -2 -44z m-731 38 c-7 -11 -537 -12 -586 0 -20 5 100
8 279 9 197 1 311 -3 307 -9z m50 -8 c0 -18 -20 -15 -23 4 -3 10 1 15 10 12 7
-3 13 -10 13 -16z m275 -13 c106 -14 116 -14 205 -6 72 6 78 6 61 -8 -16 -12
-51 -15 -162 -15 -85 0 -145 4 -149 10 -3 6 -52 10 -111 10 -63 0 -104 4 -104
10 0 13 160 12 260 -1z m362 -27 c-19 -6 -44 6 -37 18 4 7 14 6 28 -2 14 -7
17 -13 9 -16z"/>
<path d="M2260 2406 c-25 -28 -21 -56 9 -56 23 0 51 -25 51 -46 0 -9 -13 -29
-30 -46 -35 -35 -34 -32 -14 -52 9 -10 33 -16 58 -16 81 0 155 98 124 165 -6
13 -19 27 -30 30 -10 4 -18 11 -18 16 0 5 -9 9 -19 9 -11 0 -23 5 -26 10 -3 6
-23 10 -44 10 -27 0 -44 -7 -61 -24z"/>
<path d="M2540 2370 c-21 -21 -24 -41 -14 -103 6 -32 13 -41 47 -57 43 -21 92
-26 102 -11 3 6 -10 17 -29 26 -20 9 -38 25 -41 35 -6 18 13 70 25 70 3 0 17
10 29 21 29 28 15 39 -51 39 -35 0 -54 -6 -68 -20z"/>
<path d="M445 2392 c-16 -8 -37 -25 -47 -36 -20 -25 -23 -81 -5 -101 6 -8 23
-30 37 -49 22 -32 30 -35 71 -36 37 0 48 4 52 19 4 17 -22 51 -41 51 -4 0 -13
9 -19 19 -11 17 -8 24 16 50 16 17 36 31 45 31 9 0 16 8 16 19 0 12 -14 23
-43 35 -49 18 -43 19 -82 -2z"/>
<path d="M711 2373 c-33 -32 -41 -46 -47 -90 -6 -50 -5 -54 25 -82 34 -32 86
-46 134 -35 57 12 79 54 28 54 -27 0 -61 32 -61 58 0 18 42 52 65 52 38 0 39
18 5 50 -47 44 -96 42 -149 -7z"/>
</g>
</svg>
