<?xml version="1.0" standalone="no"?>
<!DOCTYPE svg PUBLIC "-//W3C//DTD SVG 20010904//EN"
 "http://www.w3.org/TR/2001/REC-SVG-20010904/DTD/svg10.dtd">
<svg version="1.0" xmlns="http://www.w3.org/2000/svg"
 width="234.000000pt" height="212.000000pt" viewBox="0 0 234.000000 212.000000"
 preserveAspectRatio="xMidYMid meet">
<metadata>
Created by potrace 1.13, written by Peter Selinger 2001-2015
</metadata>
<g transform="translate(0.000000,212.000000) scale(0.100000,-0.100000)"
 stroke="none">
<path d="M1063 1877 c-87 -84 -205 -198 -263 -253 -411 -390 -720 -695 -720
-711 0 -7 9 -32 20 -55 11 -24 49 -119 85 -213 36 -93 98 -252 138 -352 l72
-183 802 0 c755 0 802 1 807 18 3 9 17 78 31 152 14 74 30 154 35 177 6 23 46
223 91 445 44 221 83 406 85 409 8 14 -141 124 -451 333 -55 37 -161 109 -235
161 -205 142 -328 225 -333 225 -3 0 -77 -69 -164 -153z"/>
</g>
</svg>
