<?xml version="1.0" standalone="no"?>
<!DOCTYPE svg PUBLIC "-//W3C//DTD SVG 20010904//EN"
 "http://www.w3.org/TR/2001/REC-SVG-20010904/DTD/svg10.dtd">
<svg version="1.0" xmlns="http://www.w3.org/2000/svg"
 width="300.000000pt" height="303.000000pt" viewBox="0 0 300.000000 303.000000"
 preserveAspectRatio="xMidYMid meet">
<metadata>
Created by potrace 1.15, written by Peter Selinger 2001-2017
</metadata>
<g transform="translate(0.000000,303.000000) scale(0.100000,-0.100000)"
fill="#000000" stroke="none">
<path d="M1960 2655 l-325 -325 -235 0 -235 0 -315 -317 c-173 -175 -427 -432
-565 -570 l-250 -253 242 0 242 0 318 334 318 334 3 -334 2 -334 328 -1 327 0
-327 -322 -327 -322 -7 -255 -6 -255 75 75 c42 41 296 302 566 580 l491 504 1
261 1 260 338 305 339 305 -335 3 -334 2 -2 325 -3 325 -325 -325z"/>
</g>
</svg>
