<?xml version="1.0" standalone="no"?>
<!DOCTYPE svg PUBLIC "-//W3C//DTD SVG 20010904//EN"
 "http://www.w3.org/TR/2001/REC-SVG-20010904/DTD/svg10.dtd">
<svg version="1.0" xmlns="http://www.w3.org/2000/svg"
 width="854.000000pt" height="850.000000pt" viewBox="0 0 854.000000 850.000000"
 preserveAspectRatio="xMidYMid meet">
<metadata>
Created by potrace 1.13, written by Peter Selinger 2001-2015
</metadata>
<g transform="translate(0.000000,850.000000) scale(0.100000,-0.100000)"
stroke="none">
<path d="M1686 8392 c-6 -11 22 -52 35 -52 5 0 20 -11 33 -25 15 -16 34 -25
52 -25 16 0 40 -7 52 -16 48 -33 257 -28 367 10 39 14 95 60 95 79 0 8 10 19
23 25 16 8 -65 11 -315 11 -185 1 -339 -3 -342 -7z"/>
<path d="M2688 8379 c-14 -15 -18 -37 -18 -99 0 -44 4 -80 8 -80 5 0 14 -30
21 -66 12 -59 20 -73 74 -130 33 -35 70 -67 83 -70 13 -3 24 -12 24 -20 0 -23
96 -44 207 -44 105 0 144 10 172 44 8 9 22 16 32 16 23 0 109 84 134 131 10
19 27 52 39 74 17 32 21 58 21 130 0 54 -6 99 -13 113 l-13 22 -377 -1 c-358
-1 -378 -2 -394 -20z"/>
<path d="M3840 8390 c-34 -21 -28 -331 10 -465 12 -44 26 -96 30 -116 7 -35
37 -108 65 -159 24 -42 52 -104 59 -127 8 -25 -8 -32 -21 -10 -14 21 -107 83
-212 141 -72 39 -140 65 -234 92 l-132 38 -195 0 c-173 0 -204 -3 -275 -23
-44 -13 -98 -27 -120 -33 -47 -12 -153 -62 -212 -100 -23 -16 -45 -28 -50 -28
-16 0 -133 -102 -212 -184 -31 -33 -67 -72 -81 -86 -27 -29 -33 -37 -85 -125
-20 -33 -40 -67 -45 -75 -5 -8 -24 -47 -44 -87 l-34 -72 -29 37 c-44 59 -103
149 -103 159 0 18 -230 239 -284 273 -31 19 -71 45 -89 57 -17 13 -52 32 -77
44 -25 11 -61 29 -81 40 -20 10 -45 19 -56 19 -10 0 -46 8 -79 19 -116 36
-156 41 -338 41 -154 0 -195 -3 -262 -21 -43 -11 -97 -25 -119 -31 -41 -10
-49 -13 -125 -47 -63 -28 -168 -88 -186 -106 -9 -8 -19 -15 -22 -15 -4 0 -20
-11 -35 -25 l-27 -26 0 -972 0 -973 75 -52 c41 -29 78 -52 81 -52 4 0 28 -13
53 -29 60 -39 211 -92 351 -123 32 -7 124 -12 220 -12 140 0 178 3 250 23 47
12 101 26 120 30 41 10 75 23 147 57 28 13 56 24 61 24 5 0 17 9 27 20 10 11
22 20 27 20 30 0 211 147 288 234 25 28 51 56 58 61 14 11 38 50 48 78 3 9 10
17 15 17 5 0 9 5 9 11 0 6 14 28 30 49 17 21 30 42 30 47 0 5 8 27 19 49 10
21 26 58 37 82 21 49 34 52 63 16 29 -37 27 -69 -8 -95 -15 -11 -41 -48 -56
-80 -23 -51 -27 -69 -23 -132 3 -77 10 -91 84 -172 49 -53 168 -80 252 -56 18
6 56 28 84 50 28 23 55 41 60 41 6 0 60 -24 121 -54 152 -73 183 -86 200 -86
9 0 42 -7 74 -15 197 -49 571 -22 712 52 24 13 52 23 62 23 10 0 21 5 24 11 4
6 34 22 66 36 32 14 59 29 59 34 0 5 19 21 43 36 23 15 46 33 50 40 4 7 14 13
21 13 7 0 23 11 36 25 13 14 47 36 75 49 53 24 66 41 105 143 6 17 25 46 41
64 16 19 32 45 36 59 3 14 16 39 28 55 12 17 25 44 29 60 4 17 13 37 20 45 33
38 71 283 70 450 -1 154 -35 341 -80 439 -14 31 -33 73 -42 93 -9 21 -20 38
-24 38 -5 0 -8 8 -8 18 0 9 -9 28 -20 42 -24 30 -25 40 -5 40 8 0 19 -9 25
-20 6 -11 17 -20 24 -20 8 0 24 -11 37 -25 13 -13 29 -25 35 -25 6 0 19 -9 29
-20 16 -18 109 -66 245 -128 123 -56 379 -88 570 -72 101 9 236 37 295 60 68
27 254 122 272 139 12 12 27 21 32 21 6 0 14 6 18 13 4 8 22 22 38 32 40 25
199 185 220 222 8 15 33 50 54 77 22 27 44 58 49 70 5 12 23 48 38 81 16 33
29 65 30 70 1 6 14 42 28 80 15 39 28 84 31 100 2 17 9 57 15 90 11 65 14 353
4 379 -6 14 -124 16 -1238 16 -739 0 -1237 -4 -1246 -10z"/>
<path d="M8345 7408 c-16 -6 -39 -17 -50 -24 -11 -8 -25 -14 -32 -14 -16 0
-102 -53 -145 -88 -46 -39 -148 -145 -148 -155 0 -4 -10 -19 -23 -33 -13 -13
-39 -66 -59 -117 -51 -129 -66 -270 -43 -412 9 -55 24 -115 34 -135 10 -19 28
-57 40 -83 12 -27 26 -54 31 -60 50 -59 80 -105 80 -123 0 -11 -13 -33 -30
-49 -16 -16 -30 -34 -30 -41 0 -6 -7 -17 -15 -24 -8 -7 -15 -23 -15 -36 0 -13
-6 -27 -13 -31 -16 -11 -47 -100 -47 -137 0 -17 -5 -55 -12 -87 -17 -86 13
-313 49 -368 9 -14 30 -50 45 -80 15 -30 37 -60 48 -68 11 -8 20 -19 20 -25 0
-17 70 -98 84 -98 7 0 23 -11 36 -25 13 -14 29 -25 36 -25 7 0 19 -8 26 -18
22 -32 106 -72 148 -72 l40 0 0 1220 c0 970 -3 1220 -12 1219 -7 0 -26 -5 -43
-11z"/>
<path d="M6195 7368 c-36 -21 -54 -52 -55 -94 0 -33 6 -46 33 -72 27 -26 41
-32 77 -32 85 1 133 78 98 155 -22 48 -104 71 -153 43z"/>
<path d="M4873 6478 c-13 -6 -23 -15 -23 -19 0 -5 -15 -15 -33 -22 -18 -8 -44
-30 -57 -50 -14 -20 -28 -37 -32 -37 -5 0 -8 -16 -8 -35 0 -18 -5 -57 -11 -86
-7 -32 -8 -54 -2 -58 5 -3 25 -34 43 -68 18 -35 39 -63 47 -63 8 0 26 -9 40
-20 22 -17 41 -20 134 -20 98 0 109 2 119 20 6 11 16 20 24 20 14 0 56 45 56
60 0 6 5 10 10 10 6 0 10 11 10 24 0 14 5 28 11 32 8 5 10 30 5 83 -4 42 -8
82 -8 89 -1 6 -7 12 -15 12 -7 0 -13 9 -13 20 0 11 -4 20 -9 20 -5 0 -12 9
-16 20 -3 11 -20 23 -36 27 -16 5 -28 12 -27 17 7 24 -169 45 -209 24z"/>
<path d="M4715 5567 c-85 -16 -174 -59 -226 -108 -27 -26 -49 -51 -49 -57 0
-6 -9 -14 -20 -17 -11 -3 -20 -13 -20 -22 0 -8 -9 -26 -20 -40 -26 -34 -38
-81 -46 -183 -8 -98 14 -216 46 -258 11 -14 20 -30 20 -36 0 -18 130 -146 148
-146 5 0 21 -9 35 -20 31 -25 148 -50 229 -50 71 0 194 34 224 61 11 10 24 19
30 19 12 0 74 59 74 71 0 5 7 9 15 9 8 0 15 5 15 11 0 5 13 27 29 47 50 64 66
131 64 267 -1 113 -3 124 -33 185 -18 35 -47 80 -66 99 -19 20 -34 39 -34 42
0 12 -97 79 -115 79 -9 0 -23 6 -31 14 -17 17 -140 47 -186 45 -18 -1 -55 -6
-83 -12z"/>
<path d="M6950 5019 c-19 -5 -51 -16 -70 -23 -19 -7 -60 -21 -90 -31 -30 -10
-62 -23 -70 -30 -8 -7 -30 -20 -48 -29 -18 -10 -41 -25 -52 -34 -10 -9 -39
-33 -65 -52 -25 -19 -64 -59 -87 -87 -22 -29 -44 -53 -48 -53 -4 0 -13 -14
-20 -31 -7 -17 -19 -37 -27 -44 -18 -18 -83 -172 -83 -196 0 -10 -4 -19 -8
-19 -5 0 -9 -6 -9 -12 -1 -7 -4 -26 -7 -43 -24 -132 -28 -196 -17 -271 7 -44
14 -97 17 -118 3 -22 10 -48 15 -57 19 -35 11 -39 -85 -39 -53 0 -98 -4 -101
-10 -3 -5 -21 -10 -40 -10 -19 0 -36 -4 -39 -8 -3 -5 -38 -15 -78 -22 -40 -7
-77 -17 -82 -22 -21 -18 -25 -4 -25 100 0 59 -4 121 -10 137 -18 59 -59 140
-80 159 -11 11 -21 25 -21 31 0 14 -98 115 -111 115 -8 0 -94 41 -154 73 -11
6 -66 13 -123 15 -110 5 -176 -8 -252 -50 -19 -10 -50 -26 -69 -34 -18 -8 -35
-24 -38 -35 -3 -10 -11 -19 -19 -19 -7 0 -21 -13 -31 -30 -9 -16 -23 -30 -30
-30 -8 0 -18 -10 -23 -22 -5 -13 -19 -34 -30 -48 -46 -57 -73 -249 -51 -362
14 -71 76 -205 103 -222 10 -6 18 -16 18 -23 0 -7 17 -25 37 -40 56 -41 56
-41 83 -62 39 -30 16 -45 -51 -33 -133 23 -450 -3 -549 -46 -25 -10 -57 -22
-73 -26 -25 -6 -107 -40 -163 -67 -11 -6 -50 -33 -85 -59 -35 -27 -69 -49 -75
-50 -6 0 -40 -28 -77 -62 -36 -35 -71 -68 -79 -74 -35 -29 -178 -214 -178
-231 0 -4 -8 -16 -18 -27 -10 -12 -29 -46 -42 -76 -12 -30 -31 -73 -40 -95
-30 -67 -71 -212 -76 -267 -2 -28 -7 -61 -11 -72 -4 -12 -5 -33 -4 -48 3 -31
-16 -38 -25 -10 -4 9 -12 31 -19 47 -8 17 -17 42 -20 58 -4 15 -11 30 -16 33
-5 3 -9 14 -9 25 0 10 -4 19 -10 19 -5 0 -16 13 -25 29 -19 38 -121 139 -160
158 -16 9 -43 25 -60 38 -16 12 -51 25 -77 29 -26 4 -50 10 -52 14 -7 12 -246
15 -246 4 0 -6 -26 -14 -57 -18 -39 -5 -65 -14 -82 -31 -14 -13 -35 -26 -46
-29 -11 -4 -22 -10 -25 -14 -3 -4 -25 -24 -50 -44 -45 -37 -104 -112 -137
-173 -19 -38 -30 -39 -118 -18 -96 23 -165 20 -210 -11 -21 -14 -41 -22 -45
-17 -7 8 -45 103 -45 114 0 12 -40 79 -47 79 -5 0 -8 6 -8 14 0 25 -122 127
-186 156 -114 52 -200 61 -329 34 -87 -18 -161 -60 -229 -128 -59 -60 -105
-119 -106 -135 0 -23 -41 -81 -56 -81 -8 0 -19 11 -24 25 -5 14 -17 25 -27 25
-10 0 -25 14 -33 31 -8 17 -28 39 -45 48 -16 9 -32 19 -35 22 -3 4 -16 10 -30
14 -14 4 -30 15 -36 23 -32 44 -332 42 -412 -2 -15 -8 -42 -23 -61 -33 -42
-22 -101 -75 -101 -91 0 -7 -6 -12 -14 -12 -8 0 -18 -10 -22 -22 -4 -13 -13
-27 -20 -33 -10 -8 -14 -72 -15 -294 l-1 -283 36 -41 c20 -22 36 -44 36 -49 0
-4 4 -8 9 -8 12 0 86 -72 83 -82 -1 -4 20 -8 48 -8 35 0 50 -4 50 -14 0 -16
81 -26 205 -26 101 0 145 8 145 26 0 10 14 14 50 14 36 0 50 4 50 14 0 8 4 16
9 18 39 15 181 154 181 177 0 21 55 131 65 131 7 0 28 -17 47 -38 51 -54 79
-76 150 -115 56 -31 73 -35 161 -40 55 -3 101 -8 104 -11 3 -3 -2 -23 -11 -46
-11 -29 -16 -73 -16 -156 0 -113 1 -118 32 -173 43 -75 110 -140 183 -176 56
-28 68 -30 170 -30 110 0 111 0 173 38 35 20 67 37 72 37 5 0 12 9 15 20 3 11
15 25 26 30 10 6 19 17 19 26 0 8 6 17 14 20 20 8 53 89 67 167 13 72 8 106
-32 195 -10 23 -19 47 -19 52 0 9 27 26 98 60 52 24 62 25 62 5 0 -8 3 -15 8
-15 4 0 16 -16 26 -35 26 -47 141 -134 243 -183 l82 -39 131 2 c79 1 134 5
138 12 4 5 25 13 47 17 22 4 47 13 55 20 8 7 31 19 50 26 19 7 50 28 69 47 19
18 40 33 47 33 8 0 11 6 8 14 -3 7 1 16 9 19 18 7 87 111 87 131 0 9 4 16 8
16 9 0 32 59 32 82 0 9 5 18 12 20 7 3 12 17 13 33 0 16 5 30 11 32 10 3 19
-46 30 -167 2 -25 8 -54 13 -65 5 -11 17 -45 26 -75 9 -30 25 -73 35 -95 10
-22 24 -56 31 -75 7 -19 28 -57 46 -84 18 -26 33 -53 33 -58 0 -5 20 -34 45
-62 25 -29 45 -56 45 -60 0 -12 171 -174 230 -218 30 -23 72 -54 92 -70 20
-15 39 -28 42 -28 4 0 52 -22 109 -49 95 -45 164 -68 277 -93 25 -6 133 -12
240 -15 202 -5 204 -4 420 46 49 11 118 40 162 68 21 13 44 23 51 23 14 0 36
14 154 96 35 24 68 44 73 44 6 0 14 8 17 17 6 15 46 56 110 114 10 9 27 29 38
45 11 16 30 38 42 50 13 11 28 32 36 45 7 13 34 56 59 95 26 39 50 84 54 100
4 16 12 36 18 44 42 53 97 292 104 451 l5 116 119 7 c66 4 122 5 125 3 5 -6 5
-11 -3 -217 -5 -139 -3 -203 11 -310 9 -74 21 -139 25 -145 4 -5 11 -29 15
-53 4 -23 11 -42 16 -42 5 0 9 -12 9 -26 0 -14 8 -38 19 -52 10 -15 22 -38 26
-52 4 -14 25 -55 46 -91 22 -36 39 -68 39 -72 0 -9 47 -77 76 -109 13 -15 24
-30 24 -34 0 -16 190 -212 260 -269 79 -63 198 -145 210 -145 6 0 32 -13 58
-30 27 -16 54 -30 60 -30 5 0 40 -13 76 -29 36 -17 94 -35 128 -42 35 -6 68
-15 73 -19 16 -13 220 -30 344 -29 155 0 242 10 389 45 l122 29 -2 1429 -3
1429 -40 15 c-22 8 -69 21 -105 29 -36 8 -87 19 -115 26 -58 13 -443 16 -492
4 -50 -13 -43 14 15 59 71 56 198 190 216 229 9 19 21 37 27 41 10 6 30 47 83
168 35 80 43 291 20 505 -6 55 8 101 31 101 17 0 55 104 55 150 0 69 -47 148
-120 202 l-41 31 -111 -5 c-119 -6 -157 2 -192 41 -11 12 -25 21 -31 21 -7 0
-24 9 -38 20 -14 11 -72 37 -129 57 -102 37 -105 37 -273 40 -93 1 -186 -2
-205 -8z"/>
<path d="M2680 4835 c-89 -22 -201 -61 -255 -89 -27 -14 -54 -26 -59 -26 -4 0
-25 -13 -46 -30 -21 -16 -42 -30 -47 -30 -5 0 -16 -8 -25 -17 -9 -10 -31 -31
-50 -47 -62 -54 -128 -117 -128 -122 0 -4 -23 -36 -99 -135 -12 -15 -25 -40
-31 -55 -6 -16 -22 -51 -35 -79 -13 -27 -36 -90 -52 -140 -26 -85 -28 -101
-27 -275 0 -180 0 -188 33 -295 18 -60 41 -123 50 -140 10 -16 24 -46 31 -65
14 -37 32 -62 93 -136 20 -25 37 -49 37 -54 0 -12 202 -190 246 -217 65 -39
216 -108 254 -115 25 -4 65 -13 90 -18 137 -32 302 -33 425 -3 33 8 83 18 110
23 44 7 108 36 235 106 56 32 138 93 144 109 3 8 11 15 18 16 15 0 141 143
146 165 2 8 7 14 11 14 4 0 20 22 35 50 15 27 31 52 35 55 11 6 84 193 87 220
1 11 7 43 14 70 21 84 24 296 6 389 -9 44 -19 92 -21 106 -2 14 -16 54 -30 89
-14 36 -25 70 -25 77 0 7 -6 19 -13 26 -7 7 -24 33 -39 58 -14 25 -36 56 -47
69 -12 13 -21 28 -21 32 0 4 -10 19 -22 31 -13 13 -42 44 -65 70 -23 25 -59
59 -80 74 -21 16 -42 34 -48 40 -50 52 -218 137 -350 177 -90 26 -117 30 -265
33 -116 2 -181 -1 -220 -11z"/>
<path d="M648 4344 c-87 -17 -204 -66 -248 -104 -19 -16 -50 -37 -67 -45 -18
-9 -32 -21 -30 -27 1 -6 -9 -17 -22 -24 -13 -6 -28 -21 -35 -32 -6 -11 -32
-48 -58 -82 l-48 -62 0 -366 c0 -363 0 -367 23 -403 51 -83 130 -167 207 -219
28 -19 57 -39 63 -45 25 -21 76 -45 94 -45 11 0 28 -7 39 -15 10 -8 38 -15 61
-15 23 0 43 -4 45 -9 2 -5 52 -13 111 -17 89 -6 118 -4 165 11 98 29 146 43
172 49 14 3 34 12 45 21 11 8 48 34 83 56 34 23 62 48 62 55 0 8 7 14 17 14
18 0 73 57 73 76 0 6 7 14 15 17 25 10 125 184 125 219 0 9 5 29 11 45 7 15
11 41 10 56 -2 15 3 35 9 43 12 13 9 147 -4 249 -7 57 -68 221 -87 235 -3 3
-14 21 -24 40 -23 46 -189 208 -218 212 -12 2 -21 8 -20 14 1 6 -20 21 -47 34
-28 13 -50 27 -50 32 0 4 -17 8 -38 8 -21 0 -42 4 -47 9 -33 31 -263 40 -387
15z"/>
<path d="M4315 3993 c-48 -5 -133 -43 -158 -71 -10 -11 -31 -45 -48 -77 -58
-112 -31 -238 72 -328 61 -53 130 -74 208 -62 84 13 116 32 188 118 54 64 58
215 8 288 -72 105 -151 144 -270 132z"/>
<path d="M8104 3683 c-12 -2 -34 -18 -50 -34 -26 -27 -29 -37 -29 -97 0 -63 2
-69 34 -100 31 -29 39 -32 98 -32 59 0 66 2 98 35 32 32 35 39 35 95 0 112
-63 157 -186 133z"/>
<path d="M2790 1301 c0 -5 -16 -15 -35 -21 -37 -12 -55 -35 -55 -69 0 -12 -4
-21 -10 -21 -5 0 -10 -18 -10 -39 0 -22 5 -43 10 -46 6 -3 10 -15 10 -27 0
-50 83 -108 155 -108 48 0 94 30 134 86 33 47 34 122 2 165 -12 15 -21 33 -21
38 0 23 -68 51 -124 51 -31 0 -56 -4 -56 -9z"/>
<path d="M5768 734 c-37 -7 -100 -27 -139 -44 -90 -40 -193 -139 -234 -226
-15 -32 -34 -71 -42 -86 -8 -16 -17 -74 -20 -133 l-6 -105 534 2 534 3 0 85
c-1 60 -6 95 -18 119 -9 19 -17 43 -17 54 0 20 -38 89 -52 95 -4 2 -8 11 -8
19 0 20 -118 131 -147 139 -13 3 -23 9 -23 13 0 16 -90 50 -169 65 -96 18
-103 18 -193 0z"/>
<path d="M4075 261 c-3 -6 -15 -11 -26 -11 -10 0 -19 -4 -19 -8 0 -5 -24 -14
-52 -21 -34 -9 -63 -24 -80 -43 -16 -16 -28 -31 -28 -34 0 -2 164 -4 365 -4
201 0 365 3 365 6 0 12 -34 33 -52 34 -10 0 -18 6 -18 14 0 17 -22 26 -60 26
-16 0 -33 6 -37 14 -12 20 -62 27 -214 33 -92 3 -139 1 -144 -6z"/>
<path d="M1965 229 c-27 -11 -64 -36 -82 -55 l-32 -34 180 0 c98 0 179 4 179
8 0 24 -65 71 -118 86 -70 19 -65 20 -127 -5z"/>
</g>
</svg>
