<svg version="1.1" id="Layer_1" xmlns="http://www.w3.org/2000/svg" width="100%" viewBox="0 0 122 378"
     preserveAspectRatio="xMidYMid meet">
    <g>
        <path opacity="1.000000" stroke="none"
              d="
M67.050995,302.932617 
	C48.075535,269.324066 29.222073,236.066925 10.504243,202.733612 
	C9.266184,200.528839 8.481277,197.747330 8.466038,195.228134 
	C8.316851,170.565765 8.376115,145.902145 9.292670,120.731613 
	C22.889374,144.653229 36.484947,168.575500 50.083096,192.496292 
	C63.664963,216.388443 77.249390,240.279114 91.815720,263.863159 
	C91.815720,221.958466 91.815712,180.053802 91.815712,138.149124 
	C91.815712,96.324829 91.815720,54.500542 91.815720,12.246116 
	C98.517197,12.246116 105.047836,12.246116 111.885162,12.246116 
	C111.885162,129.832626 111.885162,247.401138 111.885162,364.951172 
	C103.709366,366.728638 102.918625,366.414551 99.107094,359.680756 
	C88.465446,340.880157 77.837891,322.071625 67.050995,302.932617 
z"/>
    </g>
</svg>
