<svg version="1.1" xmlns="http://www.w3.org/2000/svg"
 width="358.000000pt" height="306.000000pt" viewBox="0 0 358.000000 306.000000"
 preserveAspectRatio="xMidYMid meet">
<metadata>
Created by potrace 1.14, written by Peter Selinger 2001-2017
</metadata>
<g transform="translate(0.000000,306.000000) scale(0.100000,-0.100000)"
fill="#000000" stroke="none">
<path d="M1722 3023 c-15 -6 -50 -72 -56 -105 -3 -13 -5 -23 -6 -23 -16 0 -28
-284 -14 -347 10 -51 -15 -38 -62 32 -25 38 -51 70 -56 70 -5 0 -7 4 -4 9 3 5
-1 15 -10 22 -8 7 -24 30 -35 51 -11 21 -24 36 -29 33 -6 -4 -6 -14 1 -28 15
-27 70 -110 79 -117 10 -9 60 -77 60 -83 0 -3 -8 -3 -18 0 -10 2 -24 -2 -31
-10 -14 -17 -51 -11 -51 9 0 22 -113 132 -142 138 -22 5 -31 1 -44 -18 -8 -14
-17 -36 -20 -51 -2 -14 -5 -36 -7 -50 -6 -34 -17 -43 -28 -23 -5 9 -36 44 -68
77 -69 72 -108 73 -81 1 2 -3 2 -8 1 -12 0 -4 24 -44 55 -89 30 -45 52 -84 49
-88 -4 -3 -25 -7 -48 -8 -74 -3 -108 -14 -137 -43 l-28 -29 -21 23 c-12 12
-18 26 -14 29 8 9 -6 8 -31 -2 -17 -7 -16 -10 13 -44 18 -20 30 -41 26 -47 -4
-6 -1 -17 5 -25 10 -13 8 -15 -14 -15 -14 0 -26 -4 -26 -9 0 -5 -15 -8 -32 -7
-30 1 -33 -2 -36 -29 -6 -64 73 -135 119 -107 17 11 21 9 29 -13 5 -14 12 -37
14 -51 5 -26 5 -26 -16 -8 -11 11 -22 18 -24 16 -2 -1 -39 15 -82 35 -42 20
-80 36 -84 35 -4 -1 -5 11 -2 27 5 23 1 35 -19 55 -15 14 -36 26 -49 26 -13 0
-81 -21 -151 -46 -95 -35 -131 -44 -139 -36 -9 9 -8 18 1 36 8 13 10 29 7 35
-22 34 -53 -17 -36 -59 15 -36 51 -52 101 -44 26 4 39 3 39 -5 0 -6 5 -11 11
-11 6 0 33 -17 60 -37 37 -30 48 -44 49 -67 l0 -28 -18 22 -19 23 -26 -48
c-29 -51 -33 -65 -17 -65 6 0 10 5 10 10 0 6 8 10 18 10 21 -1 96 -86 83 -94
-5 -4 -12 -2 -16 4 -4 6 -10 8 -15 5 -13 -8 -123 15 -149 32 -18 12 -21 17
-10 24 23 14 3 20 -27 9 -27 -11 -28 -12 -10 -25 17 -13 16 -14 -13 -13 -17 1
-31 4 -31 7 0 3 -34 5 -76 4 l-75 -2 6 29 c8 38 -11 96 -38 115 -30 21 -80 19
-101 -4 -10 -11 -25 -17 -37 -14 -10 3 -26 0 -34 -7 -17 -14 -20 -50 -5 -50 6
0 10 7 10 15 0 34 17 11 37 -50 l21 -65 -23 -6 c-13 -3 -31 -15 -41 -25 -17
-19 -17 -22 1 -77 11 -31 32 -70 48 -87 16 -16 47 -53 68 -81 35 -46 129 -125
129 -108 0 3 6 2 13 -4 17 -14 108 -62 118 -62 4 0 20 -5 36 -12 15 -6 33 -12
38 -13 6 -1 15 -3 20 -4 13 -4 43 -7 82 -9 l32 -2 -20 -35 c-11 -19 -18 -39
-14 -45 3 -5 1 -10 -6 -10 -8 0 -10 12 -6 36 7 42 -13 43 -28 0 -7 -20 -5 -35
9 -60 13 -25 15 -39 8 -52 -14 -26 -9 -114 7 -144 8 -14 -33 19 -91 72 -58 54
-108 98 -111 98 -2 0 -12 -21 -22 -46 -18 -48 -14 -70 8 -40 12 17 24 8 136
-95 105 -96 122 -116 116 -136 -8 -32 5 -29 36 8 26 32 26 32 59 15 18 -9 39
-16 45 -16 11 0 27 -24 26 -40 0 -3 7 -15 15 -28 10 -16 12 -32 7 -55 -8 -30
-9 -52 -3 -69 1 -5 4 -12 5 -18 1 -5 4 -12 5 -15 1 -3 3 -10 4 -17 2 -17 76
-44 116 -43 19 1 49 5 65 10 26 7 28 6 18 -7 -16 -18 -5 -32 13 -17 11 9 12 6
3 -20 -8 -24 -8 -35 2 -47 15 -18 51 -15 57 5 3 10 0 12 -12 8 -12 -5 -16 0
-16 21 0 38 15 60 24 35 4 -10 8 -20 8 -23 0 -3 7 -14 14 -25 20 -27 18 -84
-2 -92 -10 -4 -20 0 -26 10 -11 21 -38 22 -38 2 0 -17 30 -35 59 -35 11 0 28
10 38 23 l17 24 24 -29 c13 -15 29 -28 36 -28 7 0 21 -9 32 -21 11 -13 27 -19
41 -16 13 2 24 -2 27 -10 3 -8 22 -21 41 -29 31 -13 39 -13 65 1 36 19 45 48
36 130 -5 51 -3 66 10 80 14 14 19 14 38 2 27 -18 32 -61 11 -94 -25 -37 -11
-39 36 -4 34 24 39 32 26 37 -10 3 -17 12 -17 19 0 8 -12 27 -26 44 -30 36
-78 42 -114 13 -20 -16 -22 -27 -21 -99 1 -87 -10 -110 -48 -98 -28 9 -32 30
-14 72 32 78 36 88 38 99 8 34 39 83 59 92 21 9 22 8 18 -14 -5 -26 12 -33 22
-9 5 14 9 14 38 -1 64 -32 128 -79 123 -91 -2 -7 2 -13 9 -13 10 0 13 -22 13
-92 0 -117 8 -175 30 -229 21 -54 35 -69 59 -64 10 2 22 4 26 4 6 1 51 70 53
81 0 3 4 11 8 18 5 6 6 12 3 12 -3 0 1 12 9 27 8 15 12 31 9 37 -8 15 23 -22
71 -85 84 -111 173 -178 230 -174 41 2 70 25 98 80 20 39 22 45 25 74 1 8 24
-6 55 -36 95 -90 139 -59 173 122 3 17 6 81 7 143 0 61 3 112 6 112 3 -1 31
-24 61 -51 207 -191 232 -209 256 -184 14 14 12 22 -25 90 -22 42 -53 92 -69
113 -15 20 -50 66 -77 102 -27 36 -52 70 -57 77 -10 13 -4 12 62 -6 25 -8 52
-15 60 -16 8 -2 17 -4 20 -5 19 -8 69 -3 92 7 30 15 42 43 33 76 -13 42 -56
128 -74 146 -39 39 -50 63 -38 82 8 13 19 16 39 12 16 -3 34 0 43 7 13 11 15
8 15 -18 0 -33 29 -62 63 -62 11 0 34 15 53 34 30 30 34 40 34 85 0 28 -4 51
-10 51 -5 0 -10 -18 -10 -40 0 -27 -7 -47 -20 -60 -24 -24 -29 -25 -59 -4 -23
17 -24 33 -6 91 11 35 -14 28 -26 -7 -6 -16 -19 -32 -29 -35 -26 -8 -63 13
-56 32 3 8 6 23 6 34 0 13 7 19 24 19 26 0 51 24 41 40 -8 14 -48 13 -63 -2
-7 -7 -13 -9 -13 -5 -2 12 -6 22 -14 41 -6 15 -2 24 17 40 15 12 35 37 45 56
11 19 26 35 34 36 42 2 77 17 87 38 11 25 16 25 122 11 72 -10 140 -13 140 -6
0 4 15 7 34 8 25 1 33 -3 32 -16 -1 -12 10 -17 47 -19 28 -2 47 1 47 7 0 6 -7
11 -15 11 -8 0 -15 5 -15 11 0 6 34 83 75 170 41 87 75 162 75 167 0 10 -79
22 -93 14 -5 -2 -1 -10 9 -16 16 -12 16 -16 -1 -59 -16 -42 -35 -62 -35 -37 0
5 -11 15 -25 23 l-26 13 23 26 c89 99 130 184 133 273 3 75 -64 201 -120 226
-11 5 -40 21 -65 35 -42 24 -193 74 -270 90 -19 4 -58 7 -86 6 l-51 -1 -7 114
c-4 63 -5 124 -1 135 6 19 5 19 -27 6 -31 -13 -55 -42 -25 -30 16 6 27 -33 27
-99 l0 -41 -45 44 c-35 35 -43 48 -39 67 l6 24 -39 -21 -39 -20 -44 21 c-52
26 -128 30 -195 11 -27 -8 -73 -16 -102 -17 -45 -2 -51 -1 -43 14 25 44 60
130 60 144 0 44 -44 -3 -85 -88 -13 -29 -32 -55 -41 -59 -11 -4 -15 -2 -11 8
6 15 -43 76 -61 76 -6 0 -20 16 -32 34 -22 37 -34 43 -88 50 -27 3 -40 -3 -71
-33 l-38 -36 -2 30 c-4 62 -8 75 -25 94 -10 11 -28 19 -39 18 -13 -1 -26 9
-38 31 -10 18 -18 36 -17 40 1 4 -4 20 -10 35 -7 16 -12 34 -12 40 0 18 -39
88 -63 115 -19 21 -47 27 -75 15z m73 -47 c19 -26 50 -88 56 -114 3 -12 7 -25
18 -62 9 -26 9 -32 0 -23 -7 7 -20 9 -34 3 -13 -5 -25 -7 -27 -5 -6 6 -62 -55
-77 -82 -6 -13 -17 -23 -23 -23 -6 0 -20 -8 -31 -17 -19 -18 -19 -17 -13 87 7
129 11 153 38 210 33 69 56 75 93 26z m356 -334 c29 -12 52 -50 32 -53 -5 -1
-19 -9 -33 -19 -41 -29 -93 -56 -122 -63 -26 -7 -26 -6 -21 36 5 44 40 92 78
107 22 8 29 8 66 -8z m391 -180 c37 -15 41 -26 20 -64 -16 -28 -24 -33 -58
-34 -49 -1 -96 15 -91 30 2 6 1 18 -4 27 -6 12 1 21 29 36 38 22 58 22 104 5z
m532 -188 c23 -4 45 -7 50 -6 4 2 14 -3 22 -9 8 -6 14 -8 14 -4 0 4 6 2 13 -4
8 -6 17 -8 20 -4 4 3 13 0 22 -7 8 -7 15 -9 15 -5 0 4 7 1 17 -6 9 -8 18 -13
20 -11 3 3 67 -27 135 -64 26 -14 89 -92 95 -117 1 -7 7 -29 12 -50 5 -22 7
-51 4 -65 -8 -41 -11 -57 -13 -59 -2 -2 -3 -6 -5 -10 -21 -78 -118 -193 -179
-213 -36 -12 -106 -80 -106 -104 0 -14 -62 -57 -88 -62 -7 -1 -27 2 -45 6 -17
5 -52 14 -76 20 l-43 11 24 27 c44 48 69 90 71 122 2 24 8 32 27 37 14 3 36
12 48 20 13 8 26 12 29 9 4 -3 12 -1 18 4 18 15 29 -48 13 -68 -11 -13 -9 -14
14 -9 15 4 40 12 55 19 25 10 26 12 8 15 -28 5 -48 58 -29 74 8 6 14 8 14 4 0
-5 9 0 19 9 19 17 20 17 32 -25 10 -33 11 -43 1 -47 -7 -2 -12 -7 -12 -12 0
-4 23 -1 50 8 50 16 66 32 32 32 -13 0 -22 12 -31 40 -11 37 -10 43 11 70 13
16 29 29 36 29 6 1 12 7 12 14 0 18 -38 77 -50 77 -17 0 -19 0 -57 17 -35 15
-66 24 -133 39 -14 4 -30 7 -36 7 -5 0 -10 15 -9 33 2 42 -27 76 -58 69 -12
-2 -38 -7 -58 -9 -20 -3 -42 -8 -51 -11 -10 -4 -18 6 -27 36 -15 49 -59 119
-75 119 -33 1 22 17 61 19 26 1 48 3 50 5 5 5 63 0 117 -10z m-256 -93 c24
-13 62 -67 62 -89 0 -7 -12 -17 -27 -22 -16 -6 -37 -14 -48 -19 -11 -5 -33
-14 -50 -21 -16 -7 -37 -16 -46 -21 -16 -7 -16 -5 -2 34 8 23 20 56 27 72 39
90 40 91 84 66z m-2073 -51 c8 -7 15 -9 15 -4 0 4 5 3 12 -4 7 -7 21 -12 32
-12 16 0 17 -3 8 -12 -18 -18 -15 -27 8 -21 11 3 20 0 20 -6 0 -6 -7 -11 -15
-11 -8 0 -15 -5 -15 -11 0 -6 8 -9 18 -7 11 2 17 13 17 31 -1 34 1 34 19 0 10
-18 15 -22 16 -12 0 14 12 11 70 -17 39 -19 70 -37 70 -41 0 -3 -3 -4 -6 -1
-3 4 -18 2 -34 -2 -21 -6 -32 -4 -41 6 -6 8 -16 14 -22 14 -6 0 -2 -7 9 -15
22 -16 3 -21 -25 -5 -14 7 -23 5 -36 -10 -16 -18 -17 -20 -2 -20 18 0 23 -25
7 -35 -5 -3 -34 11 -64 33 -44 31 -51 40 -39 48 13 8 14 14 4 32 -13 25 -43
29 -61 7 -10 -13 -18 -10 -56 21 -25 21 -44 45 -44 56 0 19 5 20 60 15 33 -2
67 -10 75 -17z m2405 -136 c0 3 18 -1 40 -9 22 -8 40 -12 40 -9 0 2 15 -3 32
-12 18 -9 42 -18 53 -19 11 -1 24 -3 28 -4 4 0 11 -11 16 -23 6 -17 3 -31 -11
-50 -24 -34 -30 -35 -43 -5 -15 33 -67 35 -92 3 l-20 -25 -13 41 c-6 23 -16
53 -21 66 l-9 23 -30 -21 c-32 -23 -40 -43 -14 -38 11 2 21 -12 33 -42 l17
-45 -25 -1 c-14 0 -34 -3 -45 -5 -15 -3 -19 3 -22 29 -2 19 -8 41 -13 50 -6
11 1 29 26 64 30 41 38 46 54 38 10 -6 19 -8 19 -6z m-2305 -76 c72 -51 93
-84 74 -119 -11 -21 -41 -15 -32 7 6 16 -8 19 -23 4 -17 -17 -40 -2 -90 58
-50 62 -68 97 -59 120 6 16 8 15 130 -70z m2175 10 c0 -5 -4 -8 -8 -8 -14 0
-86 -69 -80 -76 4 -3 26 10 50 30 l43 37 13 -43 c15 -54 11 -64 -27 -70 -50
-7 -136 75 -101 97 5 3 10 14 10 23 0 9 12 29 27 45 l28 28 22 -28 c13 -15 23
-31 23 -35z m-2600 -115 c0 -20 8 -41 20 -53 41 -41 120 -13 123 43 2 25 5 27
37 22 19 -3 43 -6 53 -6 11 0 17 -7 16 -17 -3 -29 1 -38 10 -23 6 9 14 -2 26
-38 9 -28 19 -51 21 -51 18 0 73 32 93 54 17 18 35 26 58 26 31 0 33 -2 33
-34 0 -19 -5 -38 -10 -41 -6 -4 -10 5 -10 19 0 24 -10 33 -22 20 -3 -3 -2 -22
3 -42 11 -47 3 -71 -21 -69 -10 1 -16 5 -14 9 3 4 -2 8 -10 8 -17 0 -21 12 -9
24 4 4 15 -3 24 -15 23 -31 30 -11 10 30 -19 41 -30 46 -56 27 -14 -10 -17
-17 -8 -27 20 -26 12 -47 -16 -42 -32 5 -77 -5 -65 -17 7 -6 75 -16 137 -20
14 0 7 -22 -14 -39 -18 -14 -20 -21 -10 -39 14 -27 14 -39 -1 -24 -14 14 -32
16 -23 3 3 -5 -5 -17 -17 -25 -20 -14 -22 -14 -32 7 -16 30 -57 51 -88 44 -37
-10 -69 -39 -71 -64 -1 -13 -5 -23 -9 -23 -19 0 -6 -28 15 -34 13 -3 24 -12
24 -21 0 -9 -7 -14 -16 -11 -9 3 -32 8 -51 11 -19 4 -41 12 -47 17 -7 6 -13 8
-13 5 0 -8 -165 77 -194 100 -25 20 -123 134 -149 173 -9 14 -23 44 -31 68
l-15 42 31 16 c23 12 32 13 38 4 5 -9 9 -9 14 -1 4 6 17 11 29 11 12 1 33 7
47 15 16 9 49 14 93 13 l67 -2 0 -33z m2989 -223 c13 -24 11 -32 -20 -103 -37
-85 -64 -104 -99 -72 -44 40 -32 118 27 171 44 39 71 40 92 4z m-2704 -394
c11 -8 25 -12 31 -9 7 2 17 -5 24 -16 6 -12 20 -21 30 -21 12 0 21 -7 22 -17
5 -63 3 -82 -12 -118 -19 -44 -13 -76 17 -94 29 -17 -1 -13 -36 5 -22 11 -30
21 -27 31 5 12 1 14 -14 10 -47 -12 -110 84 -106 163 4 72 30 96 71 66z m2098
-270 c9 -13 22 -29 29 -37 16 -16 50 -87 66 -136 22 -66 -33 -79 -175 -42 -65
17 -90 29 -117 56 l-35 35 19 44 c11 24 20 46 20 49 0 3 0 12 0 21 0 10 4 12
13 7 19 -12 109 -4 132 12 27 19 30 19 48 -9z m-219 -180 c27 -14 73 -66 59
-66 -4 0 -1 -6 7 -13 9 -7 27 -28 40 -47 13 -19 27 -37 30 -40 28 -24 150
-223 150 -245 0 -19 -90 48 -175 130 -17 17 -56 51 -86 77 -31 26 -56 53 -56
60 -1 7 -4 34 -8 60 -4 26 -4 55 0 65 5 10 7 21 7 26 -3 10 2 9 32 -7z m-1144
-88 c0 -13 -6 -35 -14 -50 -8 -15 -17 -40 -21 -57 -4 -17 -11 -31 -16 -31 -6
0 -26 -12 -44 -26 -30 -23 -33 -28 -20 -41 17 -16 19 -29 6 -37 -4 -3 -17 4
-27 15 -11 12 -29 25 -41 30 -12 4 -29 19 -38 33 -14 21 -15 33 -5 80 12 61
20 66 48 36 18 -19 20 -19 50 -4 17 8 34 20 37 25 4 5 10 7 14 4 5 -2 19 7 31
20 29 31 40 32 40 3z m1032 -94 c26 -9 36 -54 45 -193 l5 -94 -28 22 c-62 49
-164 242 -119 224 7 -2 23 9 36 26 13 16 29 28 34 25 6 -2 18 -7 27 -10z
m-736 -69 c-6 -18 22 -55 42 -55 10 0 23 10 30 21 l14 21 12 -23 c7 -13 24
-44 38 -69 23 -42 24 -48 11 -85 -26 -76 -66 -145 -83 -145 -10 0 -25 11 -34
25 -9 14 -14 25 -11 25 3 0 1 8 -4 19 -21 38 -39 297 -20 285 6 -3 8 -12 5
-19z m684 -140 c18 -28 48 -64 67 -80 35 -33 37 -49 9 -103 -21 -40 -51 -33
-111 28 l-46 47 -2 117 c-2 65 -1 119 2 121 2 3 14 -15 26 -38 11 -24 36 -65
55 -92z m-410 -1 c0 4 10 0 22 -8 36 -26 76 -20 109 15 16 17 27 34 24 39 -2
4 13 -2 35 -12 22 -11 40 -24 40 -29 0 -5 16 -30 36 -56 30 -39 35 -53 31 -85
-2 -21 -9 -44 -16 -51 -6 -8 -8 -16 -5 -19 3 -3 -11 -22 -30 -42 -29 -31 -38
-36 -63 -30 -62 15 -108 53 -199 164 -72 87 -88 116 -74 125 6 4 7 11 4 17 -4
6 0 14 7 19 10 5 24 -2 46 -23 18 -18 33 -29 33 -24z"/>
<path d="M3177 1328 c-69 -32 -88 -52 -39 -42 26 5 29 1 75 -90 52 -106 55
-123 30 -142 -39 -28 -2 -23 61 8 66 32 85 52 44 46 -25 -3 -48 31 -95 140
-23 54 -25 67 -14 84 7 11 11 22 9 24 -2 2 -34 -11 -71 -28z"/>
<path d="M615 771 c7 -23 -63 -111 -89 -111 -17 0 -16 -4 9 -30 31 -33 51 -39
41 -14 -8 20 60 104 84 104 24 0 44 -25 33 -43 -4 -7 -33 -44 -63 -80 -53 -64
-80 -82 -80 -53 0 24 -26 38 -39 22 -10 -12 -8 -19 8 -35 25 -25 68 -27 98 -3
36 28 123 143 123 163 0 20 -36 49 -62 49 -11 0 -15 5 -12 14 3 9 -6 17 -26
24 -28 10 -31 10 -25 -7z"/>
</g>
</svg>
