<svg version="1.1" xmlns="http://www.w3.org/2000/svg" width="100%" viewBox="0 0 135 134"
     preserveAspectRatio="xMidYMid meet">
    <g>
        <path opacity="1.000000" stroke="none"
              d="
M62.463184,135.000000 
	C61.559921,134.336853 61.262444,133.294037 60.658489,133.067169 
	C50.682468,129.320007 40.661335,125.693184 30.668592,121.990067 
	C29.036787,121.385353 27.492182,120.545334 25.208801,119.491814 
	C32.725246,106.437180 39.929470,93.787476 47.348801,81.265228 
	C48.040810,80.097260 50.084721,79.119972 51.517155,79.097702 
	C62.826954,78.921875 74.141449,78.939606 85.452217,79.081055 
	C86.758980,79.097389 88.649925,79.880150 89.259956,80.907387 
	C96.703186,93.441185 103.957352,106.087257 111.727882,119.511581 
	C104.850204,122.144798 98.438148,124.518906 92.090202,127.053604 
	C86.133339,129.432144 80.244270,131.980469 74.662689,134.727051 
	C70.975456,135.000000 66.950912,135.000000 62.463184,135.000000 
M36.056564,108.605682 
	C34.300903,111.831871 32.545242,115.058052 30.517870,118.783524 
	C42.536381,123.288284 54.063526,127.608864 66.932449,132.432373 
	C59.145786,119.025284 52.124653,106.936287 44.862213,94.431808 
	C41.753124,99.476234 39.126114,103.738487 36.056564,108.605682 
M103.056908,113.368774 
	C99.620316,107.297615 96.183723,101.226448 92.164085,94.125275 
	C84.726562,106.857178 77.670952,118.935310 70.615334,131.013443 
	C70.887054,131.293091 71.158775,131.572723 71.430496,131.852371 
	C82.918205,127.551186 94.405914,123.249992 105.956291,118.925346 
	C104.939850,116.895493 104.210747,115.439453 103.056908,113.368774 
z"/>
        <path opacity="1.000000" stroke="none"
              d="
M43.666664,1.000000 
	C45.757313,4.554852 47.338379,8.210612 49.305038,11.645607 
	C55.173843,21.896137 61.193851,32.060093 67.142372,42.236595 
	C61.005516,52.927887 55.132954,63.365902 48.970268,73.629715 
	C48.210209,74.895576 45.910881,75.878807 44.311325,75.898582 
	C30.188393,76.073151 16.062403,76.000107 1.468657,76.000137 
	C1.000000,71.975456 1.000000,67.950912 1.323031,63.804226 
	C2.069986,63.185158 2.785244,62.735317 2.874305,62.184277 
	C4.299097,53.368801 5.478131,44.509441 7.116283,35.735348 
	C7.560541,33.355862 8.824619,30.647673 10.590959,29.080614 
	C18.037603,22.474102 25.900988,16.339781 33.432777,9.825590 
	C36.522030,7.153717 39.157890,3.957626 42.000000,1.000000 
	C42.444447,1.000000 42.888889,1.000000 43.666664,1.000000 
M15.023803,28.488050 
	C14.446225,29.206934 13.868647,29.925816 12.202206,31.999950 
	C20.472975,31.999950 27.365749,32.089520 34.255123,31.974779 
	C41.155403,31.859856 48.052284,31.540909 56.047562,31.274893 
	C50.673855,22.103191 46.143559,14.371000 41.556442,6.541831 
	C32.472176,14.078559 24.046061,21.069258 15.023803,28.488050 
M4.016983,70.459938 
	C4.850411,70.972122 5.678008,71.917999 6.518174,71.929298 
	C14.790101,72.040527 23.064117,71.996483 32.047199,71.996483 
	C24.842619,59.437435 17.901478,47.337608 10.313641,34.110462 
	C8.054908,46.791637 6.028498,58.168488 4.016983,70.459938 
z"/>
        <path opacity="1.000000" stroke="none"
              d="
M136.000000,75.539368 
	C121.704216,76.000031 107.408142,75.952728 93.112923,76.042229 
	C90.432457,76.059013 88.671539,75.583496 87.228241,72.881104 
	C82.269508,63.596500 77.008324,54.469765 71.697807,45.379017 
	C70.180809,42.782173 70.663284,40.804550 72.055008,38.364967 
	C79.038040,26.124298 85.846176,13.783855 92.357880,1.239234 
	C92.750000,1.000000 93.500000,1.000000 94.290436,1.232818 
	C102.221886,8.307157 110.215919,15.034762 117.960747,22.037968 
	C121.867012,25.570185 126.967583,29.006289 128.608902,33.542179 
	C131.320541,41.035904 131.534576,49.411301 133.095062,57.357422 
	C133.549713,59.672489 135.003952,61.791256 136.000000,64.000000 
	C136.000000,67.692909 136.000000,71.385818 136.000000,75.539368 
M82.948868,27.569189 
	C82.235077,28.867104 81.521294,30.165018 81.018936,31.078484 
	C95.205627,31.078484 108.875427,31.078484 122.545235,31.078484 
	C122.621315,30.669250 122.697403,30.260017 122.773491,29.850784 
	C113.706528,22.220201 104.639565,14.589616 95.034340,6.506041 
	C90.939888,13.750604 87.199875,20.368031 82.948868,27.569189 
M127.352936,72.001854 
	C129.141159,72.001854 130.929382,72.001854 133.324326,72.001854 
	C131.065033,59.431347 128.907654,47.427944 126.515205,34.116543 
	C118.883209,47.382339 111.977478,59.385765 104.719276,72.001854 
	C112.546532,72.001854 119.467194,72.001854 127.352936,72.001854 
z"/>
        <path opacity="1.000000" stroke="none"
              d="
M136.000000,82.600006 
	C134.687347,84.200378 132.987396,85.172592 132.124237,86.637772 
	C126.041283,96.963402 120.130432,107.390419 113.727928,118.545952 
	C105.927864,105.092117 98.534332,92.339478 90.800117,78.999222 
	C106.150406,78.999222 120.606544,78.999222 135.531342,78.999611 
	C136.000000,80.066673 136.000000,81.133339 136.000000,82.600006 
M105.058220,96.372917 
	C108.073990,101.273933 111.089767,106.174950 114.462128,111.655457 
	C119.588615,102.683327 124.260391,94.531952 128.905228,86.365257 
	C130.704391,83.201935 129.660370,81.928940 126.115318,81.971672 
	C118.293396,82.065964 110.468712,81.942604 102.647240,82.053894 
	C101.206467,82.074394 99.775482,82.782158 97.888954,83.295410 
	C100.432381,87.742599 102.688080,91.686699 105.058220,96.372917 
z"/>
        <path opacity="1.000000" stroke="none"
              d="
M1.000000,79.399994 
	C15.579514,79.000000 30.159027,79.000000 45.842098,79.000000 
	C38.191914,92.324707 31.045315,104.772301 23.166386,118.495430 
	C19.697100,112.660835 16.871582,107.875862 14.013637,103.110321 
	C9.855229,96.176331 5.673453,89.256355 1.250821,82.665199 
	C1.000000,81.933327 1.000000,80.866661 1.000000,79.399994 
M8.977139,82.000656 
	C8.057768,82.065674 7.138396,82.130699 5.417573,82.252396 
	C11.265959,92.475533 16.769175,102.095306 22.506428,112.124176 
	C27.991564,102.348602 33.212215,93.044388 38.432869,83.740166 
	C38.254082,83.160149 38.075294,82.580132 37.896507,82.000114 
	C28.560116,82.000114 19.223724,82.000114 8.977139,82.000656 
z"/>
        <path opacity="1.000000" stroke="none"
              d="
M89.531342,1.000000 
	C86.086731,8.406278 82.268356,15.864828 78.227463,23.200809 
	C75.445091,28.252033 72.354332,33.133396 68.499153,39.605335 
	C60.678364,26.311081 53.435345,13.998953 46.096161,1.343412 
	C60.354229,1.000000 74.708458,1.000000 89.531342,1.000000 
M53.030136,6.173690 
	C58.060562,14.472494 63.090988,22.771297 68.543213,31.765955 
	C74.308006,21.875750 79.662140,12.690077 85.309212,3.001828 
	C74.531998,3.001828 64.708466,2.980197 54.885250,3.026200 
	C53.484467,3.032760 50.877544,2.344467 53.030136,6.173690 
z"/>
        <path opacity="1.000000" stroke="none"
              d="
M76.921234,76.000114 
	C68.123367,76.000114 59.814457,76.000114 50.044395,76.000114 
	C56.266651,65.460518 62.028667,55.700508 68.449654,44.824295 
	C74.779030,55.650166 80.503349,65.441132 86.676697,76.000114 
	C82.944214,76.000114 80.177200,76.000114 76.921234,76.000114 
z"/>
    </g>
</svg>
